<?xml version="1.0" standalone="no"?>
<!DOCTYPE svg PUBLIC "-//W3C//DTD SVG 1.1//EN"
"http://www.w3.org/Graphics/SVG/1.1/DTD/svg11.dtd">
<svg width="582.803" height="306.898" viewBox="0 0 12141.7 6393.7" version="1.1"
xmlns="http://www.w3.org/2000/svg"
xmlns:xlink="http://www.w3.org/1999/xlink">
<polyline points="10770.7,5651.66 10770.7,5661.9 10770.7,5685.17 10770.7,5685.54 10770.7,5708.81 10770.7,5709.66 10770.7,5719.05" style="stroke:rgb(255,0,0);stroke-width:15.748031;fill:none;stroke-opacity:0.5;stroke-linecap:round;stroke-linejoin:round;;fill:none"/>
<polyline points="10770.7,5651.66 10770.7,5661.9 10770.7,5685.17 10770.7,5685.54 10770.7,5708.81 10770.7,5709.66 10770.7,5719.05" style="stroke:rgb(0,0,0);stroke-width:1px;fill:none;stroke-opacity:1;stroke-linecap:round;stroke-linejoin:round;;fill:none"/>
<polyline points="10770.7,5719.06 10770.7,5708.81 10770.7,5685.54 10770.7,5685.17 10770.7,5661.9 10770.7,5661.05 10770.7,5651.65" style="stroke:rgb(255,0,0);stroke-width:15.748031;fill:none;stroke-opacity:0.5;stroke-linecap:round;stroke-linejoin:round;;fill:none"/>
<polyline points="10770.7,5719.06 10770.7,5708.81 10770.7,5685.54 10770.7,5685.17 10770.7,5661.9 10770.7,5661.05 10770.7,5651.65" style="stroke:rgb(0,0,0);stroke-width:1px;fill:none;stroke-opacity:1;stroke-linecap:round;stroke-linejoin:round;;fill:none"/>
<polyline points="10770.7,1831.66 10770.7,1841.9 10770.7,1865.17 10770.7,1865.54 10770.7,1888.81 10770.7,1889.66 10770.7,1899.05" style="stroke:rgb(255,0,0);stroke-width:15.748031;fill:none;stroke-opacity:0.5;stroke-linecap:round;stroke-linejoin:round;;fill:none"/>
<polyline points="10770.7,1831.66 10770.7,1841.9 10770.7,1865.17 10770.7,1865.54 10770.7,1888.81 10770.7,1889.66 10770.7,1899.05" style="stroke:rgb(0,0,0);stroke-width:1px;fill:none;stroke-opacity:1;stroke-linecap:round;stroke-linejoin:round;;fill:none"/>
<polyline points="10770.7,1899.06 10770.7,1888.81 10770.7,1865.54 10770.7,1865.17 10770.7,1841.9 10770.7,1841.05 10770.7,1831.65" style="stroke:rgb(255,0,0);stroke-width:15.748031;fill:none;stroke-opacity:0.5;stroke-linecap:round;stroke-linejoin:round;;fill:none"/>
<polyline points="10770.7,1899.06 10770.7,1888.81 10770.7,1865.54 10770.7,1865.17 10770.7,1841.9 10770.7,1841.05 10770.7,1831.65" style="stroke:rgb(0,0,0);stroke-width:1px;fill:none;stroke-opacity:1;stroke-linecap:round;stroke-linejoin:round;;fill:none"/>
</svg>
