<?xml version="1.0" standalone="no"?>
<!DOCTYPE svg PUBLIC "-//W3C//DTD SVG 1.1//EN"
"http://www.w3.org/Graphics/SVG/1.1/DTD/svg11.dtd">
<svg width="575.244" height="299.339" viewBox="0 0 11984.3 6236.22" version="1.1"
xmlns="http://www.w3.org/2000/svg"
xmlns:xlink="http://www.w3.org/1999/xlink">
<polyline points="2670.03,2084.26 2672.68,2084.09 2675.56,2084.11 2679.28,2084.4 2681.69,2084.42 2686.84,2084.09 2689.08,2084.11 2692.87,2084.4 2695.28,2084.42 2700.4,2084.09 2703.41,2084.11 2704.69,2084.22" style="stroke:rgb(255,0,0);stroke-width:23.622047;fill:none;stroke-opacity:0.5;stroke-linecap:round;stroke-linejoin:round;;fill:none"/>
<polyline points="2670.03,2084.26 2672.68,2084.09 2675.56,2084.11 2679.28,2084.4 2681.69,2084.42 2686.84,2084.09 2689.08,2084.11 2692.87,2084.4 2695.28,2084.42 2700.4,2084.09 2703.41,2084.11 2704.69,2084.22" style="stroke:rgb(0,0,0);stroke-width:1px;fill:none;stroke-opacity:1;stroke-linecap:round;stroke-linejoin:round;;fill:none"/>
<polyline points="2704.7,2388.15 2703.41,2388.05 2700.4,2388.03 2695.28,2388.35 2692.87,2388.34 2689.08,2388.04 2686.83,2388.02 2681.69,2388.36 2679.28,2388.34 2675.56,2388.04 2672.69,2388.03 2670.03,2388.2" style="stroke:rgb(255,0,0);stroke-width:23.622047;fill:none;stroke-opacity:0.5;stroke-linecap:round;stroke-linejoin:round;;fill:none"/>
<polyline points="2704.7,2388.15 2703.41,2388.05 2700.4,2388.03 2695.28,2388.35 2692.87,2388.34 2689.08,2388.04 2686.83,2388.02 2681.69,2388.36 2679.28,2388.34 2675.56,2388.04 2672.69,2388.03 2670.03,2388.2" style="stroke:rgb(0,0,0);stroke-width:1px;fill:none;stroke-opacity:1;stroke-linecap:round;stroke-linejoin:round;;fill:none"/>
<polyline points="2670.03,2388.2 2672.69,2388.03 2675.56,2388.04 2679.28,2388.34 2681.69,2388.36 2686.83,2388.02 2689.08,2388.04 2692.87,2388.34 2695.28,2388.35 2700.4,2388.03 2703.41,2388.05 2704.69,2388.15" style="stroke:rgb(255,0,0);stroke-width:23.622047;fill:none;stroke-opacity:0.5;stroke-linecap:round;stroke-linejoin:round;;fill:none"/>
<polyline points="2670.03,2388.2 2672.69,2388.03 2675.56,2388.04 2679.28,2388.34 2681.69,2388.36 2686.83,2388.02 2689.08,2388.04 2692.87,2388.34 2695.28,2388.35 2700.4,2388.03 2703.41,2388.05 2704.69,2388.15" style="stroke:rgb(0,0,0);stroke-width:1px;fill:none;stroke-opacity:1;stroke-linecap:round;stroke-linejoin:round;;fill:none"/>
<polyline points="2704.69,2084.22 2703.41,2084.11 2700.4,2084.09 2695.28,2084.42 2692.87,2084.4 2689.08,2084.11 2686.84,2084.09 2681.69,2084.42 2679.28,2084.4 2675.56,2084.11 2672.68,2084.09 2670.02,2084.26" style="stroke:rgb(255,0,0);stroke-width:23.622047;fill:none;stroke-opacity:0.5;stroke-linecap:round;stroke-linejoin:round;;fill:none"/>
<polyline points="2704.69,2084.22 2703.41,2084.11 2700.4,2084.09 2695.28,2084.42 2692.87,2084.4 2689.08,2084.11 2686.84,2084.09 2681.69,2084.42 2679.28,2084.4 2675.56,2084.11 2672.68,2084.09 2670.02,2084.26" style="stroke:rgb(0,0,0);stroke-width:1px;fill:none;stroke-opacity:1;stroke-linecap:round;stroke-linejoin:round;;fill:none"/>
</svg>
