M48
; DRILL file {KiCad 8.0.4} date 2024-10-17T10:00:54+0200
; FORMAT={-:-/ absolute / metric / decimal}
; #@! TF.CreationDate,2024-10-17T10:00:54+02:00
; #@! TF.GenerationSoftware,Kicad,Pcbnew,8.0.4
; #@! TF.FileFunction,Plated,1,2,PTH
FMAT,2
METRIC
; #@! TA.AperFunction,Plated,PTH,ViaDrill
T1C1.000
; #@! TA.AperFunction,Plated,PTH,ComponentDrill
T2C1.000
; #@! TA.AperFunction,Plated,PTH,ComponentDrill
T3C1.020
; #@! TA.AperFunction,Plated,PTH,ComponentDrill
T4C1.100
%
G90
G05
T1
X6.164Y7.404
X10.228Y30.645
X11.752Y51.6
X11.752Y47.79
X30.548Y35.344
X30.929Y68.491
X55.614Y48.044
X71.95Y64.3
X75.76Y64.3
X80.332Y64.3
X100.711Y25.857
X100.838Y42.926
X133.164Y55.41
X133.164Y6.896
X136.212Y55.41
X136.212Y6.896
T2
X10.228Y70.523
X10.228Y67.983
X10.228Y65.443
X10.228Y62.903
X10.228Y41.44
X10.228Y38.9
X10.228Y36.36
X10.228Y33.82
X10.228Y12.992
X10.228Y10.452
X10.228Y7.912
X10.482Y25.057
X10.482Y22.517
X14.292Y12.992
X14.292Y10.452
X14.292Y7.912
X15.054Y72.936
X15.054Y43.218
X15.114Y60.296
X15.114Y30.578
X16.578Y55.41
X16.578Y51.6
X16.578Y47.79
X17.594Y72.936
X17.594Y43.218
X17.654Y60.296
X17.654Y30.578
X18.356Y12.992
X18.356Y10.452
X18.356Y7.912
X19.118Y55.41
X19.118Y51.6
X19.118Y47.79
X20.134Y72.936
X20.134Y43.218
X20.194Y60.296
X20.194Y30.578
X20.642Y25.057
X20.642Y22.517
X21.658Y55.41
X21.658Y51.6
X21.658Y47.79
X22.42Y12.992
X22.42Y10.452
X22.42Y7.912
X22.674Y72.936
X22.674Y43.218
X22.734Y60.296
X22.734Y30.578
X25.214Y72.936
X25.214Y43.218
X25.274Y60.296
X25.274Y30.578
X26.107Y55.63
X26.107Y51.63
X26.107Y47.77
X26.484Y12.992
X26.484Y10.452
X26.484Y7.912
X27.754Y72.936
X27.754Y43.218
X27.814Y60.296
X27.814Y30.578
X28.647Y55.63
X28.647Y51.63
X28.647Y47.77
X30.294Y72.936
X30.294Y43.218
X30.354Y60.296
X30.354Y30.578
X30.548Y12.992
X30.548Y10.452
X30.548Y7.912
X31.187Y55.63
X31.187Y51.63
X31.187Y47.77
X32.834Y72.936
X32.834Y43.218
X32.894Y60.296
X32.894Y30.578
X34.612Y12.992
X34.612Y10.452
X34.612Y7.912
X38.676Y12.992
X38.676Y10.452
X38.676Y7.912
X73.22Y58.204
X73.22Y54.394
X75.76Y69.634
X75.76Y58.204
X75.76Y54.394
X78.3Y69.634
X78.3Y58.204
X78.3Y54.394
X90.955Y65.405
X95.039Y21.755
X95.039Y19.215
X95.069Y38.641
X95.069Y36.101
X95.955Y70.405
X100.601Y21.755
X100.601Y19.215
X100.652Y38.646
X100.652Y36.106
X100.84Y54.606
X100.84Y52.066
X100.84Y49.526
X100.955Y65.405
X104.775Y65.398
X109.775Y70.398
X110.37Y54.606
X110.37Y52.066
X110.37Y49.526
X114.775Y65.398
X121.412Y64.262
X126.212Y67.662
X126.212Y61.362
X133.762Y64.262
X138.562Y67.662
X138.562Y61.362
T3
X46.724Y72.174
X46.724Y69.634
X46.724Y67.094
X46.724Y64.554
X46.724Y62.014
X46.724Y59.474
X46.724Y56.934
X46.724Y54.394
X46.724Y51.854
X46.724Y49.314
X46.724Y46.774
X46.724Y44.234
X46.724Y41.694
X46.724Y39.154
X46.724Y36.614
X46.724Y34.074
X46.724Y31.534
X46.724Y28.994
X46.724Y26.454
X46.724Y23.914
X64.504Y72.174
X64.504Y69.634
X64.504Y67.094
X64.504Y64.554
X64.504Y62.014
X64.504Y59.474
X64.504Y56.934
X64.504Y54.394
X64.504Y51.854
X64.504Y49.314
X64.504Y46.774
X64.504Y44.234
X64.504Y41.694
X64.504Y39.154
X64.504Y36.614
X64.504Y34.074
X64.504Y31.534
X64.504Y28.994
X64.504Y26.454
X64.504Y23.914
T4
X124.345Y51.332
X124.345Y11.332
X141.345Y51.332
X141.345Y11.332
M30
