<?xml version="1.0" standalone="no"?>
<!DOCTYPE svg PUBLIC "-//W3C//DTD SVG 1.1//EN"
"http://www.w3.org/Graphics/SVG/1.1/DTD/svg11.dtd">
<svg width="575.244" height="299.339" viewBox="0 0 11984.3 6236.22" version="1.1"
xmlns="http://www.w3.org/2000/svg"
xmlns:xlink="http://www.w3.org/1999/xlink">
<circle cx="11216.1" cy="5257.32" r="39.3701" style=""/>
<circle cx="10812" cy="5606.61" r="39.3701" style=""/>
<circle cx="10572" cy="5606.61" r="39.3701" style=""/>
<circle cx="9877.56" cy="5257.32" r="39.3701" style=""/>
<circle cx="8007.95" cy="4636.61" r="39.3701" style=""/>
<circle cx="8007.95" cy="4436.61" r="39.3701" style=""/>
<circle cx="7570" cy="4636.61" r="39.3701" style=""/>
<circle cx="7570" cy="4436.61" r="39.3701" style=""/>
<circle cx="8016.61" cy="4113.62" r="39.3701" style=""/>
<circle cx="7572.36" cy="3307.01" r="39.3701" style=""/>
<circle cx="7572.36" cy="3107.01" r="39.3701" style=""/>
<circle cx="8011.97" cy="3306.61" r="39.3701" style=""/>
<circle cx="8011.97" cy="3106.61" r="39.3701" style=""/>
<circle cx="8026.61" cy="2769.61" r="39.3701" style=""/>
<circle cx="8026.77" cy="2249.92" r="39.3701" style=""/>
<circle cx="8026.77" cy="2049.92" r="39.3701" style=""/>
<circle cx="8026.77" cy="1849.92" r="39.3701" style=""/>
<circle cx="8777.17" cy="2249.92" r="39.3701" style=""/>
<circle cx="8777.17" cy="2049.92" r="39.3701" style=""/>
<circle cx="8777.17" cy="1849.92" r="39.3701" style=""/>
<circle cx="9877.56" cy="2107.72" r="39.3701" style=""/>
<circle cx="10572" cy="1786.61" r="39.3701" style=""/>
<circle cx="10812" cy="1786.61" r="39.3701" style=""/>
<circle cx="11216.1" cy="2107.72" r="39.3701" style=""/>
<circle cx="10997" cy="1317.95" r="39.3701" style=""/>
<circle cx="10997" cy="821.89" r="39.3701" style=""/>
<circle cx="10619.1" cy="1089.61" r="39.3701" style=""/>
<circle cx="10024.6" cy="821.89" r="39.3701" style=""/>
<circle cx="10024.6" cy="1317.95" r="39.3701" style=""/>
<circle cx="9646.61" cy="1089.61" r="39.3701" style=""/>
<circle cx="9124.02" cy="1000.16" r="39.3701" style=""/>
<circle cx="8730.31" cy="606.457" r="39.3701" style=""/>
<circle cx="8336.61" cy="1000.16" r="39.3701" style=""/>
<circle cx="8035.83" cy="999.606" r="39.3701" style=""/>
<circle cx="7642.13" cy="605.906" r="39.3701" style=""/>
<circle cx="7248.43" cy="999.606" r="39.3701" style=""/>
<circle cx="6411.97" cy="1086.61" r="39.3701" style=""/>
<circle cx="6051.97" cy="666.614" r="39.3701" style=""/>
<circle cx="6251.97" cy="666.614" r="39.3701" style=""/>
<circle cx="6051.97" cy="1086.61" r="39.3701" style=""/>
<circle cx="5751.97" cy="1086.61" r="39.3701" style=""/>
<circle cx="5165.67" cy="466.614" r="39.3701" style=""/>
<circle cx="5165.67" cy="666.614" r="39.3701" style=""/>
<circle cx="5165.67" cy="866.614" r="39.3701" style=""/>
<circle cx="5165.67" cy="1066.61" r="39.3701" style=""/>
<circle cx="5165.67" cy="1266.61" r="39.3701" style=""/>
<circle cx="5851.97" cy="1866.61" r="39.3701" style=""/>
<circle cx="6051.97" cy="1866.61" r="39.3701" style=""/>
<circle cx="6251.97" cy="1866.61" r="39.3701" style=""/>
<circle cx="6251.97" cy="1566.61" r="39.3701" style=""/>
<circle cx="6051.97" cy="1566.61" r="39.3701" style=""/>
<circle cx="5851.97" cy="1566.61" r="39.3701" style=""/>
<circle cx="5165.67" cy="1466.61" r="39.3701" style=""/>
<circle cx="5165.67" cy="1666.61" r="39.3701" style=""/>
<circle cx="5165.67" cy="1866.61" r="39.3701" style=""/>
<circle cx="5165.67" cy="2066.61" r="39.3701" style=""/>
<circle cx="5165.67" cy="2266.61" r="39.3701" style=""/>
<circle cx="5165.67" cy="2466.61" r="39.3701" style=""/>
<circle cx="5165.67" cy="2666.61" r="39.3701" style=""/>
<circle cx="5165.67" cy="2866.61" r="39.3701" style=""/>
<circle cx="5165.67" cy="3066.61" r="39.3701" style=""/>
<circle cx="5165.67" cy="3266.61" r="39.3701" style=""/>
<circle cx="5165.67" cy="3466.61" r="39.3701" style=""/>
<circle cx="5165.67" cy="3666.61" r="39.3701" style=""/>
<circle cx="5165.67" cy="3866.61" r="39.3701" style=""/>
<circle cx="5165.67" cy="4066.61" r="39.3701" style=""/>
<circle cx="5165.67" cy="4266.61" r="39.3701" style=""/>
<circle cx="3765.67" cy="4266.61" r="39.3701" style=""/>
<circle cx="3765.67" cy="4066.61" r="39.3701" style=""/>
<circle cx="3765.67" cy="3866.61" r="39.3701" style=""/>
<circle cx="3765.67" cy="3666.61" r="39.3701" style=""/>
<circle cx="3765.67" cy="3466.61" r="39.3701" style=""/>
<circle cx="3765.67" cy="3266.61" r="39.3701" style=""/>
<circle cx="3765.67" cy="3066.61" r="39.3701" style=""/>
<circle cx="4465.67" cy="2366.61" r="39.3701" style=""/>
<circle cx="3765.67" cy="2866.61" r="39.3701" style=""/>
<circle cx="3765.67" cy="2666.61" r="39.3701" style=""/>
<circle cx="3765.67" cy="2466.61" r="39.3701" style=""/>
<circle cx="3765.67" cy="2266.61" r="39.3701" style=""/>
<circle cx="3765.67" cy="2066.61" r="39.3701" style=""/>
<circle cx="3765.67" cy="1866.61" r="39.3701" style=""/>
<circle cx="3765.67" cy="1666.61" r="39.3701" style=""/>
<circle cx="3765.67" cy="1466.61" r="39.3701" style=""/>
<circle cx="3765.67" cy="1266.61" r="39.3701" style=""/>
<circle cx="3765.67" cy="1066.61" r="39.3701" style=""/>
<circle cx="3765.67" cy="866.614" r="39.3701" style=""/>
<circle cx="3765.67" cy="666.614" r="39.3701" style=""/>
<circle cx="3765.67" cy="466.614" r="39.3701" style=""/>
<circle cx="2521.97" cy="756.614" r="39.3701" style=""/>
<circle cx="2671.97" cy="406.614" r="39.3701" style=""/>
<circle cx="2471.97" cy="406.614" r="39.3701" style=""/>
<circle cx="2271.97" cy="406.614" r="39.3701" style=""/>
<circle cx="2071.97" cy="406.614" r="39.3701" style=""/>
<circle cx="1871.97" cy="406.614" r="39.3701" style=""/>
<circle cx="1671.97" cy="406.614" r="39.3701" style=""/>
<circle cx="1471.97" cy="406.614" r="39.3701" style=""/>
<circle cx="1271.97" cy="406.614" r="39.3701" style=""/>
<circle cx="891.969" cy="596.614" r="39.3701" style=""/>
<circle cx="891.969" cy="796.614" r="39.3701" style=""/>
<circle cx="891.969" cy="996.614" r="39.3701" style=""/>
<circle cx="891.969" cy="1196.61" r="39.3701" style=""/>
<circle cx="1276.69" cy="1401.89" r="39.3701" style=""/>
<circle cx="1476.69" cy="1401.89" r="39.3701" style=""/>
<circle cx="1676.69" cy="1401.89" r="39.3701" style=""/>
<circle cx="1876.69" cy="1401.89" r="39.3701" style=""/>
<circle cx="2076.69" cy="1401.89" r="39.3701" style=""/>
<circle cx="2276.69" cy="1401.89" r="39.3701" style=""/>
<circle cx="2476.69" cy="1401.89" r="39.3701" style=""/>
<circle cx="2676.69" cy="1401.89" r="39.3701" style=""/>
<circle cx="2542.28" cy="1769.29" r="39.3701" style=""/>
<circle cx="2342.28" cy="1769.29" r="39.3701" style=""/>
<circle cx="2142.28" cy="1769.29" r="39.3701" style=""/>
<circle cx="2342.28" cy="2084.25" r="39.3701" style=""/>
<circle cx="2142.28" cy="2084.25" r="39.3701" style=""/>
<circle cx="1791.97" cy="2086.61" r="39.3701" style=""/>
<circle cx="1791.97" cy="2386.61" r="39.3701" style=""/>
<circle cx="1591.97" cy="2386.61" r="39.3701" style=""/>
<circle cx="1391.97" cy="2386.61" r="39.3701" style=""/>
<circle cx="1391.97" cy="2086.61" r="39.3701" style=""/>
<circle cx="1591.97" cy="2086.61" r="39.3701" style=""/>
<circle cx="1791.97" cy="1786.61" r="39.3701" style=""/>
<circle cx="1591.97" cy="1786.61" r="39.3701" style=""/>
<circle cx="1391.97" cy="1786.61" r="39.3701" style=""/>
<circle cx="1011.97" cy="2086.61" r="39.3701" style=""/>
<circle cx="1011.97" cy="2386.61" r="39.3701" style=""/>
<circle cx="1271.97" cy="2746.61" r="39.3701" style=""/>
<circle cx="1471.97" cy="2746.61" r="39.3701" style=""/>
<circle cx="1671.97" cy="2746.61" r="39.3701" style=""/>
<circle cx="1871.97" cy="2746.61" r="39.3701" style=""/>
<circle cx="2071.97" cy="2746.61" r="39.3701" style=""/>
<circle cx="2142.28" cy="2388.19" r="39.3701" style=""/>
<circle cx="2542.28" cy="2084.25" r="39.3701" style=""/>
<circle cx="2542.28" cy="2388.19" r="39.3701" style=""/>
<circle cx="2342.28" cy="2388.19" r="39.3701" style=""/>
<circle cx="2271.97" cy="2746.61" r="39.3701" style=""/>
<circle cx="2471.97" cy="2746.61" r="39.3701" style=""/>
<circle cx="2671.97" cy="2746.61" r="39.3701" style=""/>
<circle cx="2491.97" cy="3366.61" r="39.3701" style=""/>
<circle cx="2676.69" cy="3741.89" r="39.3701" style=""/>
<circle cx="2476.69" cy="3741.89" r="39.3701" style=""/>
<circle cx="2276.69" cy="3741.89" r="39.3701" style=""/>
<circle cx="2076.69" cy="3741.89" r="39.3701" style=""/>
<circle cx="1876.69" cy="3741.89" r="39.3701" style=""/>
<circle cx="1676.69" cy="3741.89" r="39.3701" style=""/>
<circle cx="1476.69" cy="3741.89" r="39.3701" style=""/>
<circle cx="1276.69" cy="3741.89" r="39.3701" style=""/>
<circle cx="1711.97" cy="4176.61" r="39.3701" style=""/>
<circle cx="1711.97" cy="4376.61" r="39.3701" style=""/>
<circle cx="1531.97" cy="5126.61" r="39.3701" style=""/>
<circle cx="1851.97" cy="5126.61" r="39.3701" style=""/>
<circle cx="2171.97" cy="5126.61" r="39.3701" style=""/>
<circle cx="2491.97" cy="5126.61" r="39.3701" style=""/>
<circle cx="2811.97" cy="5126.61" r="39.3701" style=""/>
<circle cx="3131.97" cy="5126.61" r="39.3701" style=""/>
<circle cx="3131.97" cy="5326.61" r="39.3701" style=""/>
<circle cx="3131.97" cy="5526.61" r="39.3701" style=""/>
<circle cx="2811.97" cy="5526.61" r="39.3701" style=""/>
<circle cx="2811.97" cy="5326.61" r="39.3701" style=""/>
<circle cx="2491.97" cy="5526.61" r="39.3701" style=""/>
<circle cx="2491.97" cy="5326.61" r="39.3701" style=""/>
<circle cx="2171.97" cy="5526.61" r="39.3701" style=""/>
<circle cx="2171.97" cy="5326.61" r="39.3701" style=""/>
<circle cx="1851.97" cy="5526.61" r="39.3701" style=""/>
<circle cx="1851.97" cy="5326.61" r="39.3701" style=""/>
<circle cx="1531.97" cy="5526.61" r="39.3701" style=""/>
<circle cx="1531.97" cy="5326.61" r="39.3701" style=""/>
<circle cx="1211.97" cy="5126.61" r="39.3701" style=""/>
<circle cx="1211.97" cy="5326.61" r="39.3701" style=""/>
<circle cx="1211.97" cy="5526.61" r="39.3701" style=""/>
<circle cx="891.969" cy="5526.61" r="39.3701" style=""/>
<circle cx="571.969" cy="5566.61" r="39.3701" style=""/>
<circle cx="891.969" cy="5326.61" r="39.3701" style=""/>
<circle cx="891.969" cy="5126.61" r="39.3701" style=""/>
<circle cx="911.969" cy="4376.61" r="39.3701" style=""/>
<circle cx="911.969" cy="4176.61" r="39.3701" style=""/>
<circle cx="891.969" cy="3736.61" r="39.3701" style=""/>
<circle cx="891.969" cy="3486.61" r="39.3701" style=""/>
<circle cx="891.969" cy="3286.61" r="39.3701" style=""/>
<circle cx="891.969" cy="3086.61" r="39.3701" style=""/>
<circle cx="891.969" cy="2886.61" r="39.3701" style=""/>
</svg>
