<?xml version="1.0" standalone="no"?>
<!DOCTYPE svg PUBLIC "-//W3C//DTD SVG 1.1//EN"
"http://www.w3.org/Graphics/SVG/1.1/DTD/svg11.dtd">
<svg width="575.244" height="299.339" viewBox="0 0 11984.3 6236.22" version="1.1"
xmlns="http://www.w3.org/2000/svg"
xmlns:xlink="http://www.w3.org/1999/xlink">
<g fill-rule="evenodd"><path d="M 86.6142,6149.61 L 86.6142,86.6143 L 11897.6,86.6143 L 11897.6,6149.61 L 86.6142,6149.61M 7125.59,251.576 L 7125.95,253.384 L 7126.97,254.917 L 7128.51,255.941 L 7130.31,256.301 L 7464.17,256.301 L 7464.17,330.316 L 7466.93,344.176 L 7474.78,355.927 L 7485.72,363.342 L 7487.42,364.048 L 7500.39,366.537 L 7783.86,366.537 L 7797.72,363.779 L 7809.47,355.927 L 7816.88,344.993 L 7817.59,343.29 L 7820.08,330.316 L 7820.08,256.301 L 8153.94,256.301 L 8155.74,255.941 L 8157.28,254.917 L 8158.3,253.384 L 8158.66,251.576 L 8158.3,249.768 L 8157.28,248.236 L 8155.74,247.212 L 8153.94,246.852 L 7814.43,246.943 L 7812.01,248.236 L 7810.99,249.768 L 7810.63,251.576 L 7810.63,329.851 L 7808.51,340.525 L 7802.72,349.18 L 7794.07,354.964 L 7783.39,357.088 L 7500.86,357.088 L 7490.18,354.964 L 7481.53,349.18 L 7475.74,340.525 L 7473.62,329.851 L 7473.62,251.576 L 7473.26,249.768 L 7472.24,248.236 L 7469.82,246.943 L 7130.31,246.852 L 7128.51,247.212 L 7126.97,248.236 L 7125.95,249.768 L 7125.59,251.576M 8213.78,252.126 L 8214.14,253.934 L 8215.16,255.467 L 8216.69,256.491 L 8218.5,256.851 L 8552.36,256.851 L 8552.36,330.866 L 8555.12,344.728 L 8562.97,356.479 L 8573.9,363.894 L 8575.61,364.6 L 8588.58,367.087 L 8872.05,367.087 L 8885.91,364.331 L 8897.66,356.479 L 8905.07,345.545 L 8905.78,343.842 L 8908.27,330.866 L 8908.27,256.851 L 9242.12,256.851 L 9243.93,256.491 L 9245.46,255.467 L 9246.49,253.934 L 9246.85,252.126 L 9246.49,250.318 L 9245.46,248.786 L 9243.93,247.762 L 9242.12,247.402 L 8902.62,247.493 L 8900.2,248.786 L 8899.18,250.318 L 8898.82,252.126 L 8898.82,330.401 L 8896.69,341.077 L 8890.91,349.732 L 8882.26,355.516 L 8871.58,357.638 L 8589.05,357.638 L 8578.37,355.516 L 8569.72,349.732 L 8563.93,341.077 L 8561.81,330.401 L 8561.81,252.126 L 8561.45,250.318 L 8560.43,248.786 L 8558.01,247.493 L 8218.5,247.402 L 8216.69,247.762 L 8215.16,248.786 L 8214.14,250.318 L 8213.78,252.126 z " style="fill-opacity:1.000000;fill:rgb(103,198,105);stroke:rgb(0,0,0);stroke-width:2"/></g>
</svg>
