<?xml version="1.0" standalone="no"?>
<!DOCTYPE svg PUBLIC "-//W3C//DTD SVG 1.1//EN"
"http://www.w3.org/Graphics/SVG/1.1/DTD/svg11.dtd">
<svg width="1070.18" height="741.382" viewBox="0 0 22295.4 15445.4" version="1.1"
xmlns="http://www.w3.org/2000/svg"
xmlns:xlink="http://www.w3.org/1999/xlink">
<g fill-rule="evenodd"><path d="M 242.126,15203.3 L 242.126,12059.1 L 399.606,12059.1 L 399.606,15045.8 L 4173.23,15045.8 L 4173.23,15203.3 L 242.126,15203.3M 294.058,14068.4 L 318.43,14068.4 L 333.052,14063.5 L 342.802,14053.8 L 352.55,14024.5 L 352.55,14009.9 L 342.802,13980.7 L 333.052,13970.9 L 318.43,13966 L 294.058,13966 L 294.058,14068.4M 2231.99,15171.3 L 2232.11,15172.5 L 2232.99,15174.6 L 2234.62,15176.2 L 2236.75,15177.1 L 2296.39,15177.2 L 2297.54,15177.1 L 2299.67,15176.2 L 2301.3,15174.6 L 2302.18,15172.5 L 2302.18,15170.2 L 2301.3,15168 L 2299.67,15166.4 L 2297.54,15165.5 L 2273.05,15165.4 L 2273.05,15069 L 2272.6,15066.7 L 2272.05,15065.7 L 2270.42,15064 L 2268.29,15063.2 L 2267.14,15063.1 L 2264.88,15063.5 L 2262.96,15064.8 L 2253.04,15079.5 L 2234.36,15093.5 L 2233.5,15094.3 L 2232.33,15096.2 L 2232.05,15097.4 L 2232.18,15099.7 L 2232.57,15100.8 L 2233.96,15102.6 L 2235.94,15103.8 L 2237.06,15104.1 L 2239.36,15103.9 L 2241.44,15102.9 L 2261.24,15088 L 2261.24,15165.4 L 2237.9,15165.4 L 2235.64,15165.9 L 2234.62,15166.4 L 2232.99,15168 L 2232.11,15170.2 L 2231.99,15171.3 z " style="fill-opacity:1.000000;fill:rgb(103,198,105);stroke:rgb(0,0,0);stroke-width:2"/></g>
<g fill-rule="evenodd"><path d="M 242.126,12047.2 L 242.126,8122.05 L 399.606,8122.05 L 399.606,12047.2 L 242.126,12047.2M 283.455,10071.5 L 283.455,10088.9 L 288.726,10109.6 L 303.956,10130.1 L 305.728,10131.6 L 306.813,10132.1 L 321.437,10137 L 323.448,10137.3 L 348.834,10132.3 L 349.942,10132 L 351.857,10130.7 L 353.135,10128.8 L 353.582,10126.5 L 353.13,10124.2 L 351.848,10122.3 L 350.952,10121.6 L 348.823,10120.7 L 346.518,10120.7 L 323.684,10125.3 L 312.298,10121.5 L 299.498,10104.4 L 295.09,10086.8 L 295.09,10073.6 L 299.498,10056 L 312.298,10038.9 L 323.684,10035.1 L 346.518,10039.7 L 348.822,10039.7 L 350.952,10038.8 L 352.583,10037.2 L 353.13,10036.2 L 353.582,10033.9 L 353.135,10031.6 L 352.59,10030.6 L 350.963,10029 L 349.942,10028.4 L 323.448,10023.1 L 321.436,10023.4 L 306.812,10028.3 L 304.762,10029.5 L 303.956,10030.4 L 288.726,10050.9 L 283.455,10071.5 z " style="fill-opacity:1.000000;fill:rgb(115,81,255);stroke:rgb(0,0,0);stroke-width:2"/></g>
<g fill-rule="evenodd"><path d="M 242.126,8110.24 L 242.126,4185.04 L 399.606,4185.04 L 399.606,8110.24 L 242.126,8110.24M 288.153,6140.76 L 288.602,6143.02 L 289.883,6144.94 L 291.798,6146.22 L 294.058,6146.67 L 294.058,6194.38 L 333.052,6194.38 L 347.676,6184.63 L 352.55,6160.26 L 342.802,6145.63 L 335.277,6143.13 L 346.975,6135.19 L 347.71,6134.3 L 348.594,6132.17 L 348.708,6101.77 L 348.257,6099.5 L 346.975,6097.59 L 331.454,6087.1 L 329.329,6086.22 L 294.058,6086.11 L 292.906,6086.22 L 290.777,6087.11 L 289.148,6088.74 L 288.266,6090.86 L 288.153,6092.02 L 288.153,6140.76 z " style="fill-opacity:1.000000;fill:rgb(74,236,41);stroke:rgb(0,0,0);stroke-width:2"/></g>
<g fill-rule="evenodd"><path d="M 242.126,4173.23 L 242.126,242.127 L 4173.23,242.127 L 4173.23,399.607 L 399.606,399.607 L 399.606,4173.23 L 242.126,4173.23M 280.856,2257.79 L 281.051,2258.93 L 282.081,2260.99 L 283.822,2262.5 L 284.879,2262.97 L 287.165,2263.26 L 288.306,2263.07 L 289.388,2262.65 L 291.208,2261.24 L 292.349,2259.24 L 300.751,2234.03 L 340.982,2234.03 L 349.858,2260.3 L 351.368,2262.04 L 353.429,2263.07 L 354.57,2263.26 L 356.856,2262.97 L 358.858,2261.83 L 360.271,2260.01 L 360.879,2257.79 L 360.591,2255.5 L 326.469,2153.14 L 325.36,2151.18 L 323.596,2149.77 L 321.433,2149.13 L 319.188,2149.35 L 317.187,2150.39 L 315.724,2152.11 L 315.264,2153.14 L 281.144,2255.5 L 280.856,2257.79M 2231.99,367.609 L 2232.11,368.761 L 2232.99,370.889 L 2234.62,372.519 L 2236.75,373.401 L 2296.39,373.514 L 2297.54,373.401 L 2299.67,372.519 L 2301.3,370.889 L 2302.18,368.761 L 2302.18,366.456 L 2301.3,364.328 L 2299.67,362.698 L 2297.54,361.816 L 2273.05,361.703 L 2273.05,265.245 L 2272.6,262.984 L 2271.32,261.067 L 2270.42,260.333 L 2268.29,259.452 L 2267.14,259.339 L 2264.88,259.79 L 2262.96,261.073 L 2253.04,275.751 L 2234.36,289.768 L 2233.5,290.55 L 2232.33,292.533 L 2232.05,293.657 L 2232.18,295.958 L 2232.57,297.046 L 2233.96,298.89 L 2235.94,300.063 L 2237.06,300.339 L 2239.36,300.213 L 2241.44,299.217 L 2261.24,284.326 L 2261.24,361.703 L 2237.9,361.703 L 2235.64,362.153 L 2234.62,362.698 L 2232.99,364.328 L 2232.11,366.456 L 2231.99,367.609 z " style="fill-opacity:1.000000;fill:rgb(205,186,171);stroke:rgb(0,0,0);stroke-width:2"/></g>
<g fill-rule="evenodd"><path d="M 299.964,6140.76 L 299.964,6097.92 L 326.39,6097.92 L 336.897,6104.93 L 336.897,6127.85 L 324.007,6136.58 L 322.725,6138.49 L 322.274,6140.76 L 299.964,6140.76 z " style="fill-opacity:1.000000;fill:rgb(242,251,227);stroke:rgb(0,0,0);stroke-width:2"/></g>
<g fill-rule="evenodd"><path d="M 304.688,2222.22 L 320.866,2173.68 L 337.045,2222.22 L 304.688,2222.22 z " style="fill-opacity:1.000000;fill:rgb(70,124,194);stroke:rgb(0,0,0);stroke-width:2"/></g>
<g fill-rule="evenodd"><path d="M 2694.72,9777.72 L 2694.72,3714.72 L 14505.7,3714.72 L 14505.7,9777.72 L 2694.72,9777.72 z " style="fill-opacity:1.000000;fill:rgb(84,248,27);stroke:rgb(0,0,0);stroke-width:2"/></g>
<g fill-rule="evenodd"><path d="M 4185.04,15203.3 L 4185.04,15045.8 L 8110.23,15045.8 L 8110.23,15203.3 L 4185.04,15203.3M 6164.24,15170.2 L 6164.24,15172.5 L 6165.12,15174.6 L 6166.75,15176.2 L 6167.77,15176.8 L 6170.03,15177.2 L 6233.4,15177.2 L 6234.55,15177.1 L 6236.68,15176.2 L 6238.31,15174.6 L 6238.85,15173.6 L 6239.3,15171.3 L 6239.19,15170.2 L 6238.31,15168 L 6236.68,15166.4 L 6234.55,15165.5 L 6184.29,15165.4 L 6232.7,15117 L 6234.12,15114.7 L 6239,15100.1 L 6239.25,15099 L 6239.13,15096.8 L 6234.25,15077.3 L 6233.35,15075.3 L 6231.8,15073.8 L 6216.16,15063.5 L 6213.9,15063.1 L 6188.38,15063.2 L 6186.25,15064 L 6171.63,15073.8 L 6170,15075.4 L 6169.45,15076.4 L 6169,15078.7 L 6169.11,15079.9 L 6169.99,15082 L 6171.62,15083.6 L 6172.64,15084.2 L 6174.9,15084.6 L 6177.16,15084.2 L 6178.18,15083.6 L 6191.32,15074.9 L 6212.11,15074.9 L 6223.35,15082.4 L 6227.25,15098 L 6223.36,15109.6 L 6165.12,15168 L 6164.24,15170.2 z " style="fill-opacity:1.000000;fill:rgb(232,231,141);stroke:rgb(0,0,0);stroke-width:2"/></g>
<g fill-rule="evenodd"><path d="M 4185.04,399.607 L 4185.04,242.127 L 8110.23,242.127 L 8110.23,399.607 L 4185.04,399.607M 6164.24,366.457 L 6164.24,368.761 L 6165.12,370.889 L 6166.75,372.519 L 6167.77,373.065 L 6170.03,373.514 L 6233.4,373.514 L 6234.55,373.401 L 6236.68,372.519 L 6238.31,370.889 L 6238.85,369.868 L 6239.3,367.609 L 6239.19,366.456 L 6238.31,364.328 L 6236.68,362.698 L 6234.55,361.816 L 6184.29,361.703 L 6232.7,313.29 L 6234.12,310.983 L 6239,296.361 L 6239.25,295.275 L 6239.13,293.06 L 6234.25,273.562 L 6233.35,271.593 L 6231.8,270.081 L 6216.16,259.787 L 6213.9,259.339 L 6188.38,259.452 L 6186.25,260.331 L 6171.63,270.081 L 6170,271.709 L 6169.45,272.729 L 6169,274.989 L 6169.45,277.249 L 6169.99,278.27 L 6171.62,279.901 L 6173.75,280.785 L 6174.9,280.9 L 6177.16,280.453 L 6178.18,279.908 L 6191.32,271.15 L 6212.11,271.15 L 6223.35,278.642 L 6227.25,294.256 L 6223.36,305.924 L 6165.12,364.328 L 6164.24,366.457 z " style="fill-opacity:1.000000;fill:rgb(118,90,46);stroke:rgb(0,0,0);stroke-width:2"/></g>
<g fill-rule="evenodd"><path d="M 8122.05,15203.3 L 8122.05,15045.8 L 12047.2,15045.8 L 12047.2,15203.3 L 8122.05,15203.3M 10101.1,15069 L 10101.2,15070.1 L 10102.1,15072.2 L 10103.8,15073.9 L 10105.9,15074.8 L 10157.4,15074.9 L 10131.8,15104.1 L 10130.7,15106 L 10130.4,15108.2 L 10130.5,15109.3 L 10131.5,15111.4 L 10132.2,15112.2 L 10134.1,15113.4 L 10136.3,15113.9 L 10149.1,15113.9 L 10159.6,15120.9 L 10159.6,15158.4 L 10149.1,15165.4 L 10123.4,15165.4 L 10110.3,15156.7 L 10109.3,15156.1 L 10107,15155.7 L 10104.8,15156.1 L 10102.9,15157.4 L 10101.6,15159.3 L 10101.1,15161.6 L 10101.6,15163.8 L 10102.9,15165.8 L 10119.4,15176.8 L 10121.7,15177.2 L 10152.1,15177.1 L 10154.2,15176.2 L 10168.8,15166.5 L 10169.7,15165.8 L 10171,15163.8 L 10171.4,15161.6 L 10171.4,15117.7 L 10171,15115.4 L 10169.7,15113.5 L 10168.8,15112.8 L 10154.2,15103 L 10152.1,15102.2 L 10149.3,15102 L 10174.8,15072.8 L 10175.5,15071.9 L 10176.2,15069.8 L 10176.1,15067.6 L 10175.8,15066.5 L 10174.5,15064.7 L 10173.6,15064 L 10171.5,15063.2 L 10170.4,15063.1 L 10107,15063.1 L 10104.8,15063.5 L 10103.8,15064.1 L 10102.1,15065.7 L 10101.2,15067.8 L 10101.1,15069 z " style="fill-opacity:1.000000;fill:rgb(99,51,159);stroke:rgb(0,0,0);stroke-width:2"/></g>
<g fill-rule="evenodd"><path d="M 8122.05,399.607 L 8122.05,242.127 L 12047.2,242.127 L 12047.2,399.607 L 8122.05,399.607M 10101.1,265.245 L 10101.2,266.397 L 10102.1,268.525 L 10103.8,270.155 L 10105.9,271.037 L 10157.4,271.15 L 10131.8,300.352 L 10130.7,302.287 L 10130.4,304.503 L 10130.5,305.617 L 10131.5,307.656 L 10132.2,308.508 L 10134.1,309.721 L 10136.3,310.146 L 10149.1,310.146 L 10159.6,317.149 L 10159.6,354.698 L 10149.1,361.703 L 10123.4,361.703 L 10110.3,352.945 L 10109.3,352.4 L 10107,351.953 L 10104.8,352.405 L 10102.9,353.687 L 10101.6,355.604 L 10101.1,357.864 L 10101.6,360.124 L 10102.9,362.038 L 10119.4,373.066 L 10121.7,373.514 L 10152.1,373.401 L 10154.2,372.522 L 10168.8,362.772 L 10169.7,362.038 L 10171,360.121 L 10171.4,357.859 L 10171.4,313.989 L 10171.3,312.835 L 10170.4,310.705 L 10168.8,309.075 L 10154.2,299.327 L 10152.1,298.448 L 10149.3,298.335 L 10174.8,269.133 L 10175.5,268.22 L 10176.2,266.106 L 10176.1,263.868 L 10175.8,262.804 L 10174.5,260.977 L 10173.6,260.28 L 10172.6,259.764 L 10170.4,259.339 L 10107,259.339 L 10104.8,259.789 L 10103.8,260.334 L 10102.1,261.964 L 10101.2,264.092 L 10101.1,265.245 z " style="fill-opacity:1.000000;fill:rgb(201,154,102);stroke:rgb(0,0,0);stroke-width:2"/></g>
<g fill-rule="evenodd"><path d="M 12059.1,15203.3 L 12059.1,15045.8 L 13386,15045.8 L 13386.4,15048.1 L 13387.7,15050 L 13389.6,15051.3 L 13391.9,15051.7 L 13394.2,15051.3 L 13396.1,15050 L 13397.4,15048.1 L 13397.8,15045.8 L 15984.3,15045.8 L 15984.3,15203.3 L 12059.1,15203.3M 14043.1,15136.4 L 14043.2,15138.6 L 14044.1,15140.7 L 14045.7,15142.2 L 14047.8,15143 L 14048.9,15143.1 L 14091.8,15143.1 L 14091.9,15172.5 L 14092.8,15174.6 L 14094.4,15176.2 L 14096.5,15177.1 L 14097.7,15177.2 L 14098.8,15177.1 L 14100.9,15176.2 L 14102.6,15174.6 L 14103.5,15172.5 L 14103.6,15143.1 L 14112.3,15143.1 L 14114.5,15142.7 L 14115.6,15142.1 L 14117.2,15140.5 L 14118.1,15138.4 L 14118.2,15137.2 L 14118.1,15136 L 14117.2,15133.9 L 14115.6,15132.3 L 14114.5,15131.7 L 14112.3,15131.3 L 14103.6,15131.3 L 14103.6,15103.1 L 14103.1,15100.8 L 14101.8,15098.9 L 14100.9,15098.2 L 14098.8,15097.3 L 14096.5,15097.3 L 14094.4,15098.2 L 14092.8,15099.8 L 14092.2,15100.8 L 14091.8,15103.1 L 14091.8,15131.3 L 14057.1,15131.3 L 14079.2,15064.8 L 14079.2,15063.7 L 14078.6,15061.4 L 14077.2,15059.6 L 14076.2,15059 L 14074,15058.2 L 14071.7,15058.4 L 14070.7,15058.8 L 14068.8,15060.2 L 14067.7,15062.2 L 14043.3,15135.3 L 14043.1,15136.4 z " style="fill-opacity:1.000000;fill:rgb(50,13,183);stroke:rgb(0,0,0);stroke-width:2"/></g>
<g fill-rule="evenodd"><path d="M 12059.1,399.607 L 12059.1,242.127 L 15984.3,242.127 L 15984.3,399.607 L 12059.1,399.607M 14043.1,332.706 L 14043.2,334.925 L 14044.1,336.94 L 14045.7,338.466 L 14047.8,339.287 L 14048.9,339.392 L 14091.8,339.392 L 14091.9,368.761 L 14092.8,370.889 L 14094.4,372.519 L 14096.5,373.401 L 14097.7,373.514 L 14098.8,373.401 L 14100.9,372.519 L 14102.6,370.889 L 14103.5,368.761 L 14103.6,339.392 L 14112.3,339.392 L 14114.5,338.943 L 14115.6,338.397 L 14117.2,336.767 L 14118.1,334.639 L 14118.2,333.487 L 14118.1,332.334 L 14117.2,330.206 L 14115.6,328.576 L 14114.5,328.031 L 14112.3,327.581 L 14103.6,327.581 L 14103.6,299.367 L 14103.1,297.107 L 14101.8,295.191 L 14100.9,294.456 L 14098.8,293.574 L 14096.5,293.574 L 14094.4,294.456 L 14092.8,296.086 L 14092.2,297.107 L 14091.8,299.367 L 14091.8,327.581 L 14057.1,327.581 L 14079.2,261.109 L 14079.2,259.952 L 14078.6,257.73 L 14077.2,255.909 L 14076.2,255.24 L 14074,254.511 L 14071.7,254.675 L 14069.7,255.705 L 14068.2,257.446 L 14067.7,258.503 L 14043.3,331.619 L 14043.1,332.706 z " style="fill-opacity:1.000000;fill:rgb(49,88,163);stroke:rgb(0,0,0);stroke-width:2"/></g>
<g fill-rule="evenodd"><path d="M 13720.3,14086.1 L 13720.3,14069.5 L 13725.9,14058.2 L 13737.1,14052.6 L 13759.6,14052.6 L 13770.9,14058.2 L 13776.5,14080.7 L 13726.1,14090.8 L 13725.2,14088.7 L 13723.5,14087.1 L 13721.4,14086.2 L 13720.3,14086.1 z " style="fill-opacity:1.000000;fill:rgb(90,37,93);stroke:rgb(0,0,0);stroke-width:2"/></g>
<g fill-rule="evenodd"><path d="M 13720.3,13873.5 L 13720.3,13856.9 L 13725.9,13845.6 L 13737.1,13840 L 13759.6,13840 L 13770.9,13845.6 L 13776.5,13868.1 L 13726.1,13878.2 L 13725.2,13876.1 L 13723.5,13874.5 L 13721.4,13873.6 L 13720.3,13873.5 z " style="fill-opacity:1.000000;fill:rgb(5,23,88);stroke:rgb(0,0,0);stroke-width:2"/></g>
<g fill-rule="evenodd"><path d="M 13765.3,14668.8 L 13765.3,14652.2 L 13770.9,14640.9 L 13782.1,14635.3 L 13804.6,14635.3 L 13815.9,14640.9 L 13821.5,14663.4 L 13771,14673.5 L 13770.2,14671.4 L 13768.5,14669.8 L 13766.4,14668.9 L 13765.3,14668.8 z " style="fill-opacity:1.000000;fill:rgb(233,94,212);stroke:rgb(0,0,0);stroke-width:2"/></g>
<g fill-rule="evenodd"><path d="M 13793.4,14917.6 L 13799,14895.1 L 13810.2,14889.5 L 13838.4,14889.5 L 13844.3,14886.5 L 13845.7,14888.3 L 13848.3,14889.6 L 13840,14927.1 L 13835.7,14929.2 L 13833.9,14930.6 L 13832.8,14932.6 L 13832.5,14934.5 L 13810.2,14934.5 L 13799,14928.9 L 13793.4,14917.6 z " style="fill-opacity:1.000000;fill:rgb(171,178,205);stroke:rgb(0,0,0);stroke-width:2"/></g>
<g fill-rule="evenodd"><path d="M 13821.5,13873.5 L 13821.5,13856.9 L 13827.1,13845.6 L 13838.4,13840 L 13860.9,13840 L 13872.1,13845.6 L 13877.7,13868.1 L 13827.3,13878.2 L 13826.4,13876.1 L 13824.8,13874.5 L 13822.6,13873.6 L 13821.5,13873.5 z " style="fill-opacity:1.000000;fill:rgb(198,155,180);stroke:rgb(0,0,0);stroke-width:2"/></g>
<g fill-rule="evenodd"><path d="M 13892.6,14394 L 13898.2,14349.5 L 13923.5,14327 L 13967.6,14334.5 L 13902.8,14397.7 L 13897.2,14395.2 L 13894.3,14394.2 L 13892.6,14394 z " style="fill-opacity:1.000000;fill:rgb(84,17,14);stroke:rgb(0,0,0);stroke-width:2"/></g>
<g fill-rule="evenodd"><path d="M 14243.3,14069.2 L 14243.3,14013.3 L 14288.3,14013.3 L 14299.6,14018.9 L 14310.8,14035.8 L 14310.8,14052.6 L 14299.6,14069.5 L 14288.3,14075.1 L 14249.2,14075.1 L 14248.8,14072.9 L 14247.5,14070.9 L 14245.6,14069.7 L 14243.3,14069.2 z " style="fill-opacity:1.000000;fill:rgb(130,116,65);stroke:rgb(0,0,0);stroke-width:2"/></g>
<g fill-rule="evenodd"><path d="M 14265.8,14934.5 L 14265.8,14816.4 L 14293.9,14816.4 L 14310.8,14822 L 14322.1,14833.3 L 14327.7,14844.5 L 14333.3,14867 L 14333.3,14883.9 L 14327.7,14906.4 L 14322.1,14917.6 L 14310.8,14928.9 L 14293.9,14934.5 L 14265.8,14934.5 z " style="fill-opacity:1.000000;fill:rgb(33,61,220);stroke:rgb(0,0,0);stroke-width:2"/></g>
<g fill-rule="evenodd"><path d="M 14462.7,14131.4 L 14462.7,14064.2 L 14463.8,14064 L 14465.9,14063.2 L 14467.6,14061.5 L 14468.5,14059.4 L 14468.6,14055.3 L 14473.9,14052.6 L 14496.4,14052.6 L 14507.7,14058.2 L 14518.9,14075.1 L 14518.9,14108.9 L 14507.7,14125.7 L 14496.4,14131.4 L 14462.7,14131.4 z " style="fill-opacity:1.000000;fill:rgb(135,112,233);stroke:rgb(0,0,0);stroke-width:2"/></g>
<g fill-rule="evenodd"><path d="M 14682,14912 L 14682,14889.5 L 14687.6,14878.3 L 14699.2,14870.6 L 14702.3,14872.5 L 14703.4,14872.8 L 14705.7,14872.8 L 14707.8,14871.9 L 14708.7,14871.2 L 14710,14869.3 L 14710.4,14867 L 14727,14867 L 14732.9,14870 L 14732.4,14871.9 L 14732.6,14874.2 L 14733,14875.3 L 14734.4,14877.1 L 14735.3,14877.8 L 14737.5,14878.5 L 14739.8,14878.3 L 14741.5,14877.5 L 14749.5,14889.5 L 14749.5,14912 L 14738.3,14928.9 L 14727,14934.5 L 14704.5,14934.5 L 14687.6,14923.3 L 14682,14912 z " style="fill-opacity:1.000000;fill:rgb(62,161,65);stroke:rgb(0,0,0);stroke-width:2"/></g>
<g fill-rule="evenodd"><path d="M 14850.7,14889.5 L 14850.7,14861.4 L 14856.4,14838.9 L 14862,14827.7 L 14878.9,14816.4 L 14901.4,14822 L 14912.6,14838.9 L 14918.2,14861.4 L 14918.2,14889.5 L 14912.6,14912 L 14901.4,14928.9 L 14878.9,14934.5 L 14862,14923.3 L 14856.4,14912 L 14850.7,14889.5 z " style="fill-opacity:1.000000;fill:rgb(225,252,103);stroke:rgb(0,0,0);stroke-width:2"/></g>
<g fill-rule="evenodd"><path d="M 14873.2,14114.5 L 14878.9,14092 L 14890.1,14086.4 L 14918.2,14086.4 L 14924.2,14083.4 L 14925.5,14085.1 L 14928.2,14086.5 L 14919.9,14123.9 L 14915.6,14126.1 L 14913.8,14127.5 L 14912.6,14129.5 L 14912.4,14131.4 L 14890.1,14131.4 L 14878.9,14125.7 L 14873.2,14114.5 z " style="fill-opacity:1.000000;fill:rgb(62,1,126);stroke:rgb(0,0,0);stroke-width:2"/></g>
<g fill-rule="evenodd"><path d="M 15182.6,14119.8 L 15182.6,14058.2 L 15193.8,14052.6 L 15216.3,14052.6 L 15227.6,14058.2 L 15238.8,14075.1 L 15238.8,14108.9 L 15227.6,14125.7 L 15216.3,14131.4 L 15193.8,14131.4 L 15188.5,14128.7 L 15188.4,14124.6 L 15187.5,14122.5 L 15185.9,14120.8 L 15183.7,14119.9 L 15182.6,14119.8 z " style="fill-opacity:1.000000;fill:rgb(151,234,220);stroke:rgb(0,0,0);stroke-width:2"/></g>
<g fill-rule="evenodd"><path d="M 15238.8,14714 L 15238.8,14595.9 L 15266.9,14595.9 L 15283.8,14601.6 L 15295.1,14612.8 L 15300.7,14624.1 L 15306.3,14646.5 L 15306.3,14663.4 L 15300.7,14685.9 L 15295.1,14697.2 L 15283.8,14708.4 L 15266.9,14714 L 15238.8,14714 z " style="fill-opacity:1.000000;fill:rgb(107,150,143);stroke:rgb(0,0,0);stroke-width:2"/></g>
<g fill-rule="evenodd"><path d="M 15351.3,14697.2 L 15356.9,14674.7 L 15368.2,14669 L 15396.3,14669 L 15402.3,14666.1 L 15403.6,14667.8 L 15406.3,14669.2 L 15398,14706.6 L 15393.7,14708.8 L 15391.8,14710.2 L 15390.7,14712.2 L 15390.4,14714 L 15368.2,14714 L 15356.9,14708.4 L 15351.3,14697.2 z " style="fill-opacity:1.000000;fill:rgb(56,92,42);stroke:rgb(0,0,0);stroke-width:2"/></g>
<g fill-rule="evenodd"><path d="M 15390.7,14131.4 L 15390.7,14064.2 L 15391.8,14064 L 15394,14063.2 L 15395.6,14061.5 L 15396.5,14059.4 L 15396.6,14055.3 L 15401.9,14052.6 L 15424.4,14052.6 L 15435.7,14058.2 L 15446.9,14075.1 L 15446.9,14108.9 L 15435.7,14125.7 L 15424.4,14131.4 L 15390.7,14131.4 z " style="fill-opacity:1.000000;fill:rgb(236,176,59);stroke:rgb(0,0,0);stroke-width:2"/></g>
<g fill-rule="evenodd"><path d="M 15525.7,14668.8 L 15525.7,14652.2 L 15531.3,14640.9 L 15542.5,14635.3 L 15565,14635.3 L 15576.3,14640.9 L 15581.9,14663.4 L 15531.4,14673.5 L 15530.6,14671.4 L 15528.9,14669.8 L 15526.8,14668.9 L 15525.7,14668.8 z " style="fill-opacity:1.000000;fill:rgb(251,50,175);stroke:rgb(0,0,0);stroke-width:2"/></g>
<g fill-rule="evenodd"><path d="M 15996.1,15203.3 L 15996.1,15045.8 L 19921.3,15045.8 L 19921.3,15203.3 L 15996.1,15203.3M 17980.1,15117.1 L 17980.2,15119.3 L 17981.2,15121.3 L 17982.9,15122.8 L 17985,15123.5 L 17986.1,15123.6 L 17988.2,15123.1 L 18002.3,15113.9 L 18023.1,15113.9 L 18033.6,15120.9 L 18033.6,15158.4 L 18023.1,15165.4 L 18002.3,15165.4 L 17988.2,15156.1 L 17985.9,15155.7 L 17984.8,15155.8 L 17982.6,15156.7 L 17981,15158.3 L 17980.1,15160.4 L 17980.1,15162.7 L 17981,15164.9 L 17981.8,15165.8 L 17998.3,15176.8 L 18000.6,15177.2 L 18026.1,15177.1 L 18028.2,15176.2 L 18042.8,15166.5 L 18044.5,15164.9 L 18045,15163.8 L 18045.5,15161.6 L 18045.5,15117.7 L 18045,15115.4 L 18043.7,15113.5 L 18042.8,15112.8 L 18028.2,15103 L 18026.1,15102.2 L 17999.4,15102.2 L 17997.3,15103 L 17993,15105.9 L 17996.1,15074.9 L 18040.7,15074.8 L 18042.8,15073.9 L 18043.7,15073.1 L 18044.5,15072.2 L 18045.3,15070.1 L 18045.3,15067.8 L 18044.5,15065.7 L 18043.7,15064.8 L 18041.8,15063.5 L 18039.5,15063.1 L 17990.8,15063.1 L 17988.4,15063.6 L 17987.3,15064.2 L 17985.7,15066 L 17985.2,15067.2 L 17980.1,15117.1 z " style="fill-opacity:1.000000;fill:rgb(60,84,236);stroke:rgb(0,0,0);stroke-width:2"/></g>
<g fill-rule="evenodd"><path d="M 15996.1,399.607 L 15996.1,242.127 L 19921.3,242.127 L 19921.3,399.607 L 15996.1,399.607M 17980.1,313.401 L 17980.2,315.602 L 17981.2,317.577 L 17982.9,319.05 L 17985,319.814 L 17987.2,319.762 L 17988.2,319.428 L 18002.3,310.146 L 18023.1,310.146 L 18033.6,317.149 L 18033.6,354.698 L 18023.1,361.703 L 18002.3,361.703 L 17988.2,352.4 L 17985.9,351.953 L 17984.8,352.068 L 17982.6,352.952 L 17981,354.583 L 17980.1,356.712 L 17980.1,359.017 L 17981,361.144 L 17981.8,362.039 L 17998.3,373.066 L 18000.6,373.514 L 18026.1,373.401 L 18028.2,372.522 L 18042.8,362.772 L 18044.5,361.142 L 18045,360.121 L 18045.5,357.859 L 18045.5,313.989 L 18045.3,312.835 L 18044.5,310.705 L 18042.8,309.075 L 18028.2,299.327 L 18026.1,298.448 L 17999.4,298.448 L 17997.3,299.327 L 17993,302.146 L 17996.1,271.15 L 18040.7,271.037 L 18042.8,270.155 L 18043.7,269.42 L 18044.5,268.525 L 18045.3,266.397 L 18045.3,264.092 L 18044.5,261.964 L 18043.7,261.069 L 18041.8,259.789 L 18039.5,259.339 L 17990.8,259.339 L 17988.4,259.853 L 17987.3,260.474 L 17985.7,262.31 L 17985.2,263.444 L 17980.1,313.401 z " style="fill-opacity:1.000000;fill:rgb(24,219,92);stroke:rgb(0,0,0);stroke-width:2"/></g>
<g fill-rule="evenodd"><path d="M 19933.1,15203.3 L 19933.1,15045.8 L 20000.2,15045.8 L 20000.6,15048.1 L 20001.9,15050 L 20003.8,15051.3 L 20006.1,15051.7 L 20008.3,15051.3 L 20010.3,15050 L 20011.5,15048.1 L 20012,15045.8 L 21895.8,15045.8 L 21895.8,14776.2 L 21898.1,14775.7 L 21900,14774.4 L 21901.3,14772.5 L 21901.7,14770.3 L 21901.3,14768 L 21900,14766.1 L 21898.1,14764.8 L 21895.8,14764.3 L 21895.8,14539.9 L 21898.1,14539.5 L 21900,14538.2 L 21901.3,14536.3 L 21901.7,14534 L 21901.3,14531.8 L 21900,14529.9 L 21898.1,14528.6 L 21895.8,14528.1 L 21895.8,14225 L 21898.1,14224.5 L 21900,14223.2 L 21901.3,14221.3 L 21901.7,14219.1 L 21901.3,14216.8 L 21900,14214.9 L 21898.1,14213.6 L 21895.8,14213.2 L 21895.8,13752.5 L 21898.1,13752.1 L 21900,13750.8 L 21901.3,13748.9 L 21901.7,13746.6 L 21901.3,13744.4 L 21900,13742.5 L 21898.1,13741.2 L 21895.8,13740.7 L 21895.8,12532.1 L 21898.1,12531.6 L 21900,12530.3 L 21901.3,12528.4 L 21901.7,12526.2 L 21901.3,12523.9 L 21900,12522 L 21898.1,12520.7 L 21895.8,12520.3 L 21895.8,12059.1 L 22053.3,12059.1 L 22053.3,15203.3 L 19933.1,15203.3M 21917.1,15113.7 L 21917.9,15115.9 L 21919.4,15117.6 L 21921.5,15118.6 L 21922.9,15118.7 L 21922.9,15151.8 L 21932.7,15166.4 L 21961.9,15171.3 L 21976.6,15161.6 L 21976.6,15117.7 L 21961.9,15108 L 21942.4,15108 L 21929.4,15111.2 L 21933.3,15095.8 L 21941.8,15083 L 21954,15074.9 L 21971.7,15074.9 L 21973.9,15074.4 L 21975,15073.9 L 21976.6,15072.2 L 21977.5,15070.1 L 21977.5,15067.8 L 21976.6,15065.7 L 21975.9,15064.8 L 21973.9,15063.5 L 21971.7,15063.1 L 21952.2,15063.1 L 21949.9,15063.5 L 21933.4,15074.5 L 21922.4,15090.9 L 21917.2,15111.4 L 21917.1,15113.7M 21947.8,14068.4 L 21972.1,14068.4 L 21986.8,14063.5 L 21996.5,14053.8 L 22006.3,14024.5 L 22006.3,14009.9 L 21996.5,13980.7 L 21986.8,13970.9 L 21972.1,13966 L 21947.8,13966 L 21947.8,14068.4 z " style="fill-opacity:1.000000;fill:rgb(2,26,254);stroke:rgb(0,0,0);stroke-width:2"/></g>
<g fill-rule="evenodd"><path d="M 19933.1,399.607 L 19933.1,242.127 L 22053.3,242.127 L 22053.3,4173.23 L 21895.8,4173.23 L 21895.8,399.607 L 19933.1,399.607M 21917.1,309.984 L 21917.9,312.153 L 21919.4,313.86 L 21921.5,314.844 L 21922.9,314.999 L 21922.9,348.111 L 21932.7,362.733 L 21961.9,367.609 L 21976.6,357.859 L 21976.6,313.989 L 21961.9,304.241 L 21942.4,304.241 L 21929.4,307.491 L 21933.3,292.041 L 21941.8,279.253 L 21954,271.15 L 21971.7,271.15 L 21973.9,270.701 L 21975,270.155 L 21976.6,268.525 L 21977.5,266.397 L 21977.5,264.092 L 21976.6,261.964 L 21975.9,261.069 L 21973.9,259.789 L 21971.7,259.339 L 21952.2,259.339 L 21949.9,259.787 L 21933.4,270.819 L 21922.4,287.228 L 21917.2,307.682 L 21917.1,309.984M 21934.6,2257.79 L 21935.2,2260.01 L 21936.6,2261.83 L 21938.6,2262.97 L 21940.9,2263.26 L 21943.1,2262.65 L 21944.9,2261.24 L 21945.6,2260.3 L 21954.5,2234.03 L 21994.7,2234.03 L 22003.1,2259.24 L 22004.2,2261.24 L 22005.1,2262.04 L 22007.1,2263.07 L 22009.4,2263.23 L 22011.6,2262.5 L 22012.6,2261.83 L 22013.4,2260.99 L 22014.4,2258.93 L 22014.6,2257.79 L 22014.3,2255.5 L 21980.2,2153.14 L 21979.1,2151.18 L 21977.3,2149.77 L 21976.3,2149.35 L 21974,2149.13 L 21971.9,2149.77 L 21970.1,2151.18 L 21969,2153.14 L 21934.9,2255.5 L 21934.6,2257.79 z " style="fill-opacity:1.000000;fill:rgb(67,251,250);stroke:rgb(0,0,0);stroke-width:2"/></g>
<g fill-rule="evenodd"><path d="M 20207.2,14645.4 L 20207.2,14595.3 L 20252.2,14595.3 L 20274.7,14617.8 L 20263.5,14651.6 L 20248,14654.7 L 20245,14650.4 L 20243.5,14648.7 L 20241.7,14647.2 L 20239.6,14646.2 L 20237.4,14645.6 L 20235.1,14645.4 L 20232.8,14645.7 L 20230.6,14646.4 L 20228.6,14647.5 L 20226.8,14649 L 20225.4,14650.8 L 20224.3,14652.9 L 20223.7,14655.1 L 20223.6,14657.2 L 20219,14657.2 L 20218.8,14654.9 L 20218.1,14652.7 L 20217,14650.6 L 20215.6,14648.8 L 20213.8,14647.4 L 20211.7,14646.3 L 20209.5,14645.6 L 20207.2,14645.4 z " style="fill-opacity:1.000000;fill:rgb(170,58,251);stroke:rgb(0,0,0);stroke-width:2"/></g>
<g fill-rule="evenodd"><path d="M 20319.7,14684.7 L 20319.7,14651.6 L 20336.6,14634.7 L 20370.3,14640.3 L 20327.6,14687.8 L 20324.2,14685.6 L 20322,14685 L 20319.7,14684.7 z " style="fill-opacity:1.000000;fill:rgb(41,209,230);stroke:rgb(0,0,0);stroke-width:2"/></g>
<g fill-rule="evenodd"><path d="M 21895.8,12047.2 L 21895.8,8122.05 L 22053.3,8122.05 L 22053.3,12047.2 L 21895.8,12047.2M 21937.2,10071.5 L 21937.2,10088.9 L 21942.4,10109.6 L 21957.7,10130.1 L 21959.4,10131.6 L 21960.5,10132.1 L 21975.2,10137 L 21977.2,10137.3 L 22002.5,10132.3 L 22003.7,10132 L 22005.6,10130.7 L 22006.8,10128.8 L 22007.3,10126.5 L 22006.8,10124.2 L 22005.6,10122.3 L 22004.7,10121.6 L 22002.5,10120.7 L 22000.2,10120.7 L 21977.4,10125.3 L 21966,10121.5 L 21953.2,10104.4 L 21948.8,10086.8 L 21948.8,10073.6 L 21953.2,10056 L 21966,10038.9 L 21977.4,10035.1 L 22000.2,10039.7 L 22002.5,10039.7 L 22004.7,10038.8 L 22006.3,10037.2 L 22006.8,10036.2 L 22007.3,10033.9 L 22006.8,10031.6 L 22006.3,10030.6 L 22004.7,10029 L 22003.7,10028.4 L 21977.2,10023.1 L 21975.2,10023.4 L 21960.5,10028.3 L 21958.5,10029.5 L 21957.7,10030.4 L 21942.4,10050.9 L 21937.2,10071.5 z " style="fill-opacity:1.000000;fill:rgb(5,60,124);stroke:rgb(0,0,0);stroke-width:2"/></g>
<g fill-rule="evenodd"><path d="M 21895.8,8110.24 L 21895.8,4185.04 L 22053.3,4185.04 L 22053.3,8110.24 L 21895.8,8110.24M 21941.9,6140.76 L 21942.3,6143.02 L 21943.6,6144.94 L 21945.5,6146.22 L 21947.8,6146.67 L 21947.8,6194.38 L 21986.8,6194.38 L 22001.4,6184.63 L 22006.3,6160.26 L 21996.5,6145.63 L 21989,6143.13 L 22000.7,6135.19 L 22001.4,6134.3 L 22002.3,6132.17 L 22002.4,6101.77 L 22002,6099.5 L 22000.7,6097.59 L 21985.2,6087.1 L 21983,6086.22 L 21947.8,6086.11 L 21946.6,6086.22 L 21944.5,6087.11 L 21942.9,6088.74 L 21942,6090.86 L 21941.9,6092.02 L 21941.9,6140.76 z " style="fill-opacity:1.000000;fill:rgb(148,117,216);stroke:rgb(0,0,0);stroke-width:2"/></g>
<g fill-rule="evenodd"><path d="M 21953.7,6140.76 L 21953.7,6097.92 L 21980.1,6097.92 L 21990.6,6104.93 L 21990.6,6127.85 L 21977.7,6136.58 L 21976.4,6138.49 L 21976,6140.76 L 21953.7,6140.76 z " style="fill-opacity:1.000000;fill:rgb(190,97,137);stroke:rgb(0,0,0);stroke-width:2"/></g>
<g fill-rule="evenodd"><path d="M 21958.4,2222.22 L 21974.6,2173.68 L 21990.8,2222.22 L 21958.4,2222.22 z " style="fill-opacity:1.000000;fill:rgb(249,92,187);stroke:rgb(0,0,0);stroke-width:2"/></g>
</svg>
