<?xml version="1.0" standalone="no"?>
<!DOCTYPE svg PUBLIC "-//W3C//DTD SVG 1.1//EN"
"http://www.w3.org/Graphics/SVG/1.1/DTD/svg11.dtd">
<svg width="590.362" height="314.457" viewBox="0 0 12299.2 6551.18" version="1.1"
xmlns="http://www.w3.org/2000/svg"
xmlns:xlink="http://www.w3.org/1999/xlink">
<g fill-rule="evenodd"><path d="M 631.024,5724.09 L 632.915,5704.89 L 638.516,5686.43 L 647.611,5669.41 L 659.852,5654.5 L 674.767,5642.26 L 691.783,5633.16 L 710.247,5627.56 L 729.449,5625.67 L 748.651,5627.56 L 767.115,5633.16 L 784.131,5642.26 L 799.046,5654.5 L 811.286,5669.41 L 820.382,5686.43 L 825.983,5704.89 L 827.874,5724.09 L 825.983,5743.3 L 820.382,5761.76 L 811.286,5778.78 L 799.046,5793.69 L 784.131,5805.93 L 767.115,5815.03 L 748.651,5820.63 L 729.449,5822.52 L 710.247,5820.63 L 691.783,5815.03 L 674.767,5805.93 L 659.852,5793.69 L 647.611,5778.78 L 638.516,5761.76 L 632.915,5743.3 L 631.024,5724.09 z " style="fill-opacity:1.000000;fill:rgb(103,198,105);stroke:rgb(0,0,0);stroke-width:2"/></g>
<g fill-rule="evenodd"><path d="M 951.024,5751.02 L 951.024,5617.17 L 1147.87,5617.17 L 1147.87,5751.02 L 951.024,5751.02 z " style="fill-opacity:1.000000;fill:rgb(115,81,255);stroke:rgb(0,0,0);stroke-width:2"/></g>
<g fill-rule="evenodd"><path d="M 951.024,5484.09 L 952.31,5471.04 L 956.118,5458.48 L 962.303,5446.91 L 970.627,5436.77 L 980.769,5428.44 L 992.34,5422.26 L 1004.9,5418.45 L 1017.95,5417.17 L 1080.94,5417.17 L 1094,5418.45 L 1106.56,5422.26 L 1118.13,5428.44 L 1128.27,5436.77 L 1136.59,5446.91 L 1142.78,5458.48 L 1146.59,5471.04 L 1147.87,5484.09 L 1146.59,5497.15 L 1142.78,5509.71 L 1136.59,5521.28 L 1128.27,5531.42 L 1118.13,5539.74 L 1106.56,5545.93 L 1094,5549.74 L 1080.94,5551.02 L 1017.95,5551.02 L 1004.9,5549.74 L 992.34,5545.93 L 980.769,5539.74 L 970.627,5531.42 L 962.303,5521.28 L 956.118,5509.71 L 952.31,5497.15 L 951.024,5484.09 z " style="fill-opacity:1.000000;fill:rgb(74,236,41);stroke:rgb(0,0,0);stroke-width:2"/></g>
<g fill-rule="evenodd"><path d="M 951.024,5284.09 L 952.31,5271.04 L 956.118,5258.48 L 962.303,5246.91 L 970.627,5236.77 L 980.769,5228.44 L 992.34,5222.26 L 1004.9,5218.45 L 1017.95,5217.17 L 1080.94,5217.17 L 1094,5218.45 L 1106.56,5222.26 L 1118.13,5228.44 L 1128.27,5236.77 L 1136.59,5246.91 L 1142.78,5258.48 L 1146.59,5271.04 L 1147.87,5284.09 L 1146.59,5297.15 L 1142.78,5309.71 L 1136.59,5321.28 L 1128.27,5331.42 L 1118.13,5339.74 L 1106.56,5345.93 L 1094,5349.74 L 1080.94,5351.02 L 1017.95,5351.02 L 1004.9,5349.74 L 992.34,5345.93 L 980.769,5339.74 L 970.627,5331.42 L 962.303,5321.28 L 956.118,5309.71 L 952.31,5297.15 L 951.024,5284.09 z " style="fill-opacity:1.000000;fill:rgb(205,186,171);stroke:rgb(0,0,0);stroke-width:2"/></g>
<g fill-rule="evenodd"><path d="M 951.024,3894.09 L 952.915,3874.89 L 958.516,3856.43 L 967.611,3839.41 L 979.852,3824.5 L 994.767,3812.26 L 1011.78,3803.16 L 1030.25,3797.56 L 1049.45,3795.67 L 1068.65,3797.56 L 1087.11,3803.16 L 1104.13,3812.26 L 1119.05,3824.5 L 1131.29,3839.41 L 1140.38,3856.43 L 1145.98,3874.89 L 1147.87,3894.09 L 1145.98,3913.3 L 1140.38,3931.76 L 1131.29,3948.78 L 1119.05,3963.69 L 1104.13,3975.93 L 1087.11,3985.03 L 1068.65,3990.63 L 1049.45,3992.52 L 1030.25,3990.63 L 1011.78,3985.03 L 994.767,3975.93 L 979.852,3963.69 L 967.611,3948.78 L 958.516,3931.76 L 952.915,3913.3 L 951.024,3894.09 z " style="fill-opacity:1.000000;fill:rgb(242,251,227);stroke:rgb(0,0,0);stroke-width:2"/></g>
<g fill-rule="evenodd"><path d="M 951.024,3711.02 L 951.024,3577.17 L 1147.87,3577.17 L 1147.87,3711.02 L 951.024,3711.02 z " style="fill-opacity:1.000000;fill:rgb(70,124,194);stroke:rgb(0,0,0);stroke-width:2"/></g>
<g fill-rule="evenodd"><path d="M 951.024,3444.09 L 952.31,3431.04 L 956.118,3418.48 L 962.303,3406.91 L 970.627,3396.77 L 980.769,3388.44 L 992.34,3382.26 L 1004.9,3378.45 L 1017.95,3377.17 L 1080.94,3377.17 L 1094,3378.45 L 1106.56,3382.26 L 1118.13,3388.44 L 1128.27,3396.77 L 1136.59,3406.91 L 1142.78,3418.48 L 1146.59,3431.04 L 1147.87,3444.09 L 1146.59,3457.15 L 1142.78,3469.71 L 1136.59,3481.28 L 1128.27,3491.42 L 1118.13,3499.74 L 1106.56,3505.93 L 1094,3509.74 L 1080.94,3511.02 L 1017.95,3511.02 L 1004.9,3509.74 L 992.34,3505.93 L 980.769,3499.74 L 970.627,3491.42 L 962.303,3481.28 L 956.118,3469.71 L 952.31,3457.15 L 951.024,3444.09 z " style="fill-opacity:1.000000;fill:rgb(84,248,27);stroke:rgb(0,0,0);stroke-width:2"/></g>
<g fill-rule="evenodd"><path d="M 951.024,3244.09 L 952.31,3231.04 L 956.118,3218.48 L 962.303,3206.91 L 970.627,3196.77 L 980.769,3188.44 L 992.34,3182.26 L 1004.9,3178.45 L 1017.95,3177.17 L 1080.94,3177.17 L 1094,3178.45 L 1106.56,3182.26 L 1118.13,3188.44 L 1128.27,3196.77 L 1136.59,3206.91 L 1142.78,3218.48 L 1146.59,3231.04 L 1147.87,3244.09 L 1146.59,3257.15 L 1142.78,3269.71 L 1136.59,3281.28 L 1128.27,3291.42 L 1118.13,3299.74 L 1106.56,3305.93 L 1094,3309.74 L 1080.94,3311.02 L 1017.95,3311.02 L 1004.9,3309.74 L 992.34,3305.93 L 980.769,3299.74 L 970.627,3291.42 L 962.303,3281.28 L 956.118,3269.71 L 952.31,3257.15 L 951.024,3244.09 z " style="fill-opacity:1.000000;fill:rgb(232,231,141);stroke:rgb(0,0,0);stroke-width:2"/></g>
<g fill-rule="evenodd"><path d="M 951.024,3044.09 L 952.31,3031.04 L 956.118,3018.48 L 962.303,3006.91 L 970.627,2996.77 L 980.769,2988.44 L 992.34,2982.26 L 1004.9,2978.45 L 1017.95,2977.17 L 1080.94,2977.17 L 1094,2978.45 L 1106.56,2982.26 L 1118.13,2988.44 L 1128.27,2996.77 L 1136.59,3006.91 L 1142.78,3018.48 L 1146.59,3031.04 L 1147.87,3044.09 L 1146.59,3057.15 L 1142.78,3069.71 L 1136.59,3081.28 L 1128.27,3091.42 L 1118.13,3099.74 L 1106.56,3105.93 L 1094,3109.74 L 1080.94,3111.02 L 1017.95,3111.02 L 1004.9,3109.74 L 992.34,3105.93 L 980.769,3099.74 L 970.627,3091.42 L 962.303,3081.28 L 956.118,3069.71 L 952.31,3057.15 L 951.024,3044.09 z " style="fill-opacity:1.000000;fill:rgb(118,90,46);stroke:rgb(0,0,0);stroke-width:2"/></g>
<g fill-rule="evenodd"><path d="M 951.024,1421.02 L 951.024,1287.17 L 1147.87,1287.17 L 1147.87,1421.02 L 951.024,1421.02 z " style="fill-opacity:1.000000;fill:rgb(99,51,159);stroke:rgb(0,0,0);stroke-width:2"/></g>
<g fill-rule="evenodd"><path d="M 951.024,1154.09 L 952.31,1141.04 L 956.118,1128.48 L 962.303,1116.91 L 970.627,1106.77 L 980.769,1098.44 L 992.34,1092.26 L 1004.9,1088.45 L 1017.95,1087.17 L 1080.94,1087.17 L 1094,1088.45 L 1106.56,1092.26 L 1118.13,1098.44 L 1128.27,1106.77 L 1136.59,1116.91 L 1142.78,1128.48 L 1146.59,1141.04 L 1147.87,1154.09 L 1146.59,1167.15 L 1142.78,1179.71 L 1136.59,1191.28 L 1128.27,1201.42 L 1118.13,1209.74 L 1106.56,1215.93 L 1094,1219.74 L 1080.94,1221.02 L 1017.95,1221.02 L 1004.9,1219.74 L 992.34,1215.93 L 980.769,1209.74 L 970.627,1201.42 L 962.303,1191.28 L 956.118,1179.71 L 952.31,1167.15 L 951.024,1154.09 z " style="fill-opacity:1.000000;fill:rgb(201,154,102);stroke:rgb(0,0,0);stroke-width:2"/></g>
<g fill-rule="evenodd"><path d="M 951.024,954.094 L 952.31,941.037 L 956.118,928.482 L 962.303,916.911 L 970.627,906.768 L 980.769,898.445 L 992.34,892.26 L 1004.9,888.451 L 1017.95,887.165 L 1080.94,887.165 L 1094,888.451 L 1106.56,892.26 L 1118.13,898.445 L 1128.27,906.768 L 1136.59,916.911 L 1142.78,928.482 L 1146.59,941.037 L 1147.87,954.094 L 1146.59,967.152 L 1142.78,979.707 L 1136.59,991.278 L 1128.27,1001.42 L 1118.13,1009.74 L 1106.56,1015.93 L 1094,1019.74 L 1080.94,1021.02 L 1017.95,1021.02 L 1004.9,1019.74 L 992.34,1015.93 L 980.769,1009.74 L 970.627,1001.42 L 962.303,991.278 L 956.118,979.707 L 952.31,967.152 L 951.024,954.094 z " style="fill-opacity:1.000000;fill:rgb(50,13,183);stroke:rgb(0,0,0);stroke-width:2"/></g>
<g fill-rule="evenodd"><path d="M 951.024,754.094 L 952.31,741.037 L 956.118,728.482 L 962.303,716.911 L 970.627,706.768 L 980.769,698.445 L 992.34,692.26 L 1004.9,688.451 L 1017.95,687.165 L 1080.94,687.165 L 1094,688.451 L 1106.56,692.26 L 1118.13,698.445 L 1128.27,706.768 L 1136.59,716.911 L 1142.78,728.482 L 1146.59,741.037 L 1147.87,754.094 L 1146.59,767.152 L 1142.78,779.707 L 1136.59,791.278 L 1128.27,801.421 L 1118.13,809.744 L 1106.56,815.929 L 1094,819.738 L 1080.94,821.024 L 1017.95,821.024 L 1004.9,819.738 L 992.34,815.929 L 980.769,809.744 L 970.627,801.421 L 962.303,791.278 L 956.118,779.707 L 952.31,767.152 L 951.024,754.094 z " style="fill-opacity:1.000000;fill:rgb(49,88,163);stroke:rgb(0,0,0);stroke-width:2"/></g>
<g fill-rule="evenodd"><path d="M 971.024,4601.02 L 971.024,4467.17 L 1167.87,4467.17 L 1167.87,4601.02 L 971.024,4601.02 z " style="fill-opacity:1.000000;fill:rgb(90,37,93);stroke:rgb(0,0,0);stroke-width:2"/></g>
<g fill-rule="evenodd"><path d="M 971.024,4334.09 L 972.31,4321.04 L 976.118,4308.48 L 982.303,4296.91 L 990.627,4286.77 L 1000.77,4278.44 L 1012.34,4272.26 L 1024.9,4268.45 L 1037.95,4267.17 L 1100.94,4267.17 L 1114,4268.45 L 1126.56,4272.26 L 1138.13,4278.44 L 1148.27,4286.77 L 1156.59,4296.91 L 1162.78,4308.48 L 1166.59,4321.04 L 1167.87,4334.09 L 1166.59,4347.15 L 1162.78,4359.71 L 1156.59,4371.28 L 1148.27,4381.42 L 1138.13,4389.74 L 1126.56,4395.93 L 1114,4399.74 L 1100.94,4401.02 L 1037.95,4401.02 L 1024.9,4399.74 L 1012.34,4395.93 L 1000.77,4389.74 L 990.627,4381.42 L 982.303,4371.28 L 976.118,4359.71 L 972.31,4347.15 L 971.024,4334.09 z " style="fill-opacity:1.000000;fill:rgb(5,23,88);stroke:rgb(0,0,0);stroke-width:2"/></g>
<g fill-rule="evenodd"><path d="M 1051.34,2244.09 L 1053.61,2221.05 L 1060.33,2198.9 L 1071.24,2178.48 L 1085.93,2160.58 L 1103.83,2145.89 L 1124.25,2134.97 L 1146.41,2128.25 L 1169.45,2125.98 L 1192.49,2128.25 L 1214.65,2134.97 L 1235.07,2145.89 L 1252.97,2160.58 L 1267.65,2178.48 L 1278.57,2198.9 L 1285.29,2221.05 L 1287.56,2244.09 L 1285.29,2267.14 L 1278.57,2289.29 L 1267.65,2309.71 L 1252.97,2327.61 L 1235.07,2342.3 L 1214.65,2353.21 L 1192.49,2359.94 L 1169.45,2362.2 L 1146.41,2359.94 L 1124.25,2353.21 L 1103.83,2342.3 L 1085.93,2327.61 L 1071.24,2309.71 L 1060.33,2289.29 L 1053.61,2267.14 L 1051.34,2244.09 z " style="fill-opacity:1.000000;fill:rgb(233,94,212);stroke:rgb(0,0,0);stroke-width:2"/></g>
<g fill-rule="evenodd"><path d="M 1071.02,2544.09 L 1072.91,2524.89 L 1078.52,2506.43 L 1087.61,2489.41 L 1099.85,2474.5 L 1114.77,2462.26 L 1131.78,2453.16 L 1150.25,2447.56 L 1169.45,2445.67 L 1188.65,2447.56 L 1207.11,2453.16 L 1224.13,2462.26 L 1239.05,2474.5 L 1251.29,2489.41 L 1260.38,2506.43 L 1265.98,2524.89 L 1267.87,2544.09 L 1265.98,2563.3 L 1260.38,2581.76 L 1251.29,2598.78 L 1239.05,2613.69 L 1224.13,2625.93 L 1207.11,2635.03 L 1188.65,2640.63 L 1169.45,2642.52 L 1150.25,2640.63 L 1131.78,2635.03 L 1114.77,2625.93 L 1099.85,2613.69 L 1087.61,2598.78 L 1078.52,2581.76 L 1072.91,2563.3 L 1071.02,2544.09 z " style="fill-opacity:1.000000;fill:rgb(171,178,205);stroke:rgb(0,0,0);stroke-width:2"/></g>
<g fill-rule="evenodd"><path d="M 1271.02,5751.02 L 1271.02,5617.17 L 1467.87,5617.17 L 1467.87,5751.02 L 1271.02,5751.02 z " style="fill-opacity:1.000000;fill:rgb(198,155,180);stroke:rgb(0,0,0);stroke-width:2"/></g>
<g fill-rule="evenodd"><path d="M 1271.02,5484.09 L 1272.31,5471.04 L 1276.12,5458.48 L 1282.3,5446.91 L 1290.63,5436.77 L 1300.77,5428.44 L 1312.34,5422.26 L 1324.9,5418.45 L 1337.95,5417.17 L 1400.94,5417.17 L 1414,5418.45 L 1426.56,5422.26 L 1438.13,5428.44 L 1448.27,5436.77 L 1456.59,5446.91 L 1462.78,5458.48 L 1466.59,5471.04 L 1467.87,5484.09 L 1466.59,5497.15 L 1462.78,5509.71 L 1456.59,5521.28 L 1448.27,5531.42 L 1438.13,5539.74 L 1426.56,5545.93 L 1414,5549.74 L 1400.94,5551.02 L 1337.95,5551.02 L 1324.9,5549.74 L 1312.34,5545.93 L 1300.77,5539.74 L 1290.63,5531.42 L 1282.3,5521.28 L 1276.12,5509.71 L 1272.31,5497.15 L 1271.02,5484.09 z " style="fill-opacity:1.000000;fill:rgb(84,17,14);stroke:rgb(0,0,0);stroke-width:2"/></g>
<g fill-rule="evenodd"><path d="M 1271.02,5284.09 L 1272.31,5271.04 L 1276.12,5258.48 L 1282.3,5246.91 L 1290.63,5236.77 L 1300.77,5228.44 L 1312.34,5222.26 L 1324.9,5218.45 L 1337.95,5217.17 L 1400.94,5217.17 L 1414,5218.45 L 1426.56,5222.26 L 1438.13,5228.44 L 1448.27,5236.77 L 1456.59,5246.91 L 1462.78,5258.48 L 1466.59,5271.04 L 1467.87,5284.09 L 1466.59,5297.15 L 1462.78,5309.71 L 1456.59,5321.28 L 1448.27,5331.42 L 1438.13,5339.74 L 1426.56,5345.93 L 1414,5349.74 L 1400.94,5351.02 L 1337.95,5351.02 L 1324.9,5349.74 L 1312.34,5345.93 L 1300.77,5339.74 L 1290.63,5331.42 L 1282.3,5321.28 L 1276.12,5309.71 L 1272.31,5297.15 L 1271.02,5284.09 z " style="fill-opacity:1.000000;fill:rgb(130,116,65);stroke:rgb(0,0,0);stroke-width:2"/></g>
<g fill-rule="evenodd"><path d="M 1362.52,2935.59 L 1362.52,2872.6 L 1363.81,2859.54 L 1367.61,2846.99 L 1373.8,2835.41 L 1382.12,2825.27 L 1392.26,2816.95 L 1403.84,2810.76 L 1416.39,2806.96 L 1429.45,2805.67 L 1442.51,2806.96 L 1455.06,2810.76 L 1466.63,2816.95 L 1476.77,2825.27 L 1485.1,2835.41 L 1491.28,2846.99 L 1495.09,2859.54 L 1496.38,2872.6 L 1496.38,2935.59 L 1495.09,2948.65 L 1491.28,2961.2 L 1485.1,2972.77 L 1476.77,2982.92 L 1466.63,2991.24 L 1455.06,2997.43 L 1442.51,3001.23 L 1429.45,3002.52 L 1416.39,3001.23 L 1403.84,2997.43 L 1392.26,2991.24 L 1382.12,2982.92 L 1373.8,2972.77 L 1367.61,2961.2 L 1363.81,2948.65 L 1362.52,2935.59 z " style="fill-opacity:1.000000;fill:rgb(33,61,220);stroke:rgb(0,0,0);stroke-width:2"/></g>
<g fill-rule="evenodd"><path d="M 1362.52,595.591 L 1362.52,532.598 L 1363.81,519.541 L 1367.61,506.986 L 1373.8,495.415 L 1382.12,485.272 L 1392.26,476.949 L 1403.84,470.764 L 1416.39,466.955 L 1429.45,465.669 L 1442.51,466.955 L 1455.06,470.764 L 1466.63,476.949 L 1476.77,485.272 L 1485.1,495.415 L 1491.28,506.986 L 1495.09,519.541 L 1496.38,532.598 L 1496.38,595.591 L 1495.09,608.648 L 1491.28,621.203 L 1485.1,632.774 L 1476.77,642.917 L 1466.63,651.24 L 1455.06,657.425 L 1442.51,661.234 L 1429.45,662.52 L 1416.39,661.234 L 1403.84,657.425 L 1392.26,651.24 L 1382.12,642.917 L 1373.8,632.774 L 1367.61,621.203 L 1363.81,608.648 L 1362.52,595.591 z " style="fill-opacity:1.000000;fill:rgb(135,112,233);stroke:rgb(0,0,0);stroke-width:2"/></g>
<g fill-rule="evenodd"><path d="M 1367.24,3930.87 L 1367.24,3867.87 L 1368.53,3854.82 L 1372.34,3842.26 L 1378.52,3830.69 L 1386.85,3820.55 L 1396.99,3812.22 L 1408.56,3806.04 L 1421.12,3802.23 L 1434.17,3800.94 L 1447.23,3802.23 L 1459.79,3806.04 L 1471.36,3812.22 L 1481.5,3820.55 L 1489.82,3830.69 L 1496.01,3842.26 L 1499.82,3854.82 L 1501.1,3867.87 L 1501.1,3930.87 L 1499.82,3943.92 L 1496.01,3956.48 L 1489.82,3968.05 L 1481.5,3978.19 L 1471.36,3986.52 L 1459.79,3992.7 L 1447.23,3996.51 L 1434.17,3997.8 L 1421.12,3996.51 L 1408.56,3992.7 L 1396.99,3986.52 L 1386.85,3978.19 L 1378.52,3968.05 L 1372.34,3956.48 L 1368.53,3943.92 L 1367.24,3930.87 z " style="fill-opacity:1.000000;fill:rgb(62,161,65);stroke:rgb(0,0,0);stroke-width:2"/></g>
<g fill-rule="evenodd"><path d="M 1367.24,1657.8 L 1367.24,1460.94 L 1501.1,1460.94 L 1501.1,1657.8 L 1367.24,1657.8 z " style="fill-opacity:1.000000;fill:rgb(225,252,103);stroke:rgb(0,0,0);stroke-width:2"/></g>
<g fill-rule="evenodd"><path d="M 1482.52,2575.59 L 1482.52,2512.6 L 1483.81,2499.54 L 1487.61,2486.99 L 1493.8,2475.41 L 1502.12,2465.27 L 1512.26,2456.95 L 1523.84,2450.76 L 1536.39,2446.96 L 1549.45,2445.67 L 1562.51,2446.96 L 1575.06,2450.76 L 1586.63,2456.95 L 1596.77,2465.27 L 1605.1,2475.41 L 1611.28,2486.99 L 1615.09,2499.54 L 1616.38,2512.6 L 1616.38,2575.59 L 1615.09,2588.65 L 1611.28,2601.2 L 1605.1,2612.77 L 1596.77,2622.92 L 1586.63,2631.24 L 1575.06,2637.43 L 1562.51,2641.23 L 1549.45,2642.52 L 1536.39,2641.23 L 1523.84,2637.43 L 1512.26,2631.24 L 1502.12,2622.92 L 1493.8,2612.77 L 1487.61,2601.2 L 1483.81,2588.65 L 1482.52,2575.59 z " style="fill-opacity:1.000000;fill:rgb(62,1,126);stroke:rgb(0,0,0);stroke-width:2"/></g>
<g fill-rule="evenodd"><path d="M 1482.52,2275.59 L 1482.52,2212.6 L 1483.81,2199.54 L 1487.61,2186.99 L 1493.8,2175.41 L 1502.12,2165.27 L 1512.26,2156.95 L 1523.84,2150.76 L 1536.39,2146.96 L 1549.45,2145.67 L 1562.51,2146.96 L 1575.06,2150.76 L 1586.63,2156.95 L 1596.77,2165.27 L 1605.1,2175.41 L 1611.28,2186.99 L 1615.09,2199.54 L 1616.38,2212.6 L 1616.38,2275.59 L 1615.09,2288.65 L 1611.28,2301.2 L 1605.1,2312.77 L 1596.77,2322.92 L 1586.63,2331.24 L 1575.06,2337.43 L 1562.51,2341.23 L 1549.45,2342.52 L 1536.39,2341.23 L 1523.84,2337.43 L 1512.26,2331.24 L 1502.12,2322.92 L 1493.8,2312.77 L 1487.61,2301.2 L 1483.81,2288.65 L 1482.52,2275.59 z " style="fill-opacity:1.000000;fill:rgb(151,234,220);stroke:rgb(0,0,0);stroke-width:2"/></g>
<g fill-rule="evenodd"><path d="M 1482.52,1975.59 L 1482.52,1912.6 L 1483.81,1899.54 L 1487.61,1886.99 L 1493.8,1875.41 L 1502.12,1865.27 L 1512.26,1856.95 L 1523.84,1850.76 L 1536.39,1846.96 L 1549.45,1845.67 L 1562.51,1846.96 L 1575.06,1850.76 L 1586.63,1856.95 L 1596.77,1865.27 L 1605.1,1875.41 L 1611.28,1886.99 L 1615.09,1899.54 L 1616.38,1912.6 L 1616.38,1975.59 L 1615.09,1988.65 L 1611.28,2001.2 L 1605.1,2012.77 L 1596.77,2022.92 L 1586.63,2031.24 L 1575.06,2037.43 L 1562.51,2041.23 L 1549.45,2042.52 L 1536.39,2041.23 L 1523.84,2037.43 L 1512.26,2031.24 L 1502.12,2022.92 L 1493.8,2012.77 L 1487.61,2001.2 L 1483.81,1988.65 L 1482.52,1975.59 z " style="fill-opacity:1.000000;fill:rgb(107,150,143);stroke:rgb(0,0,0);stroke-width:2"/></g>
<g fill-rule="evenodd"><path d="M 1562.52,2935.59 L 1562.52,2872.6 L 1563.81,2859.54 L 1567.61,2846.99 L 1573.8,2835.41 L 1582.12,2825.27 L 1592.26,2816.95 L 1603.84,2810.76 L 1616.39,2806.96 L 1629.45,2805.67 L 1642.51,2806.96 L 1655.06,2810.76 L 1666.63,2816.95 L 1676.77,2825.27 L 1685.1,2835.41 L 1691.28,2846.99 L 1695.09,2859.54 L 1696.38,2872.6 L 1696.38,2935.59 L 1695.09,2948.65 L 1691.28,2961.2 L 1685.1,2972.77 L 1676.77,2982.92 L 1666.63,2991.24 L 1655.06,2997.43 L 1642.51,3001.23 L 1629.45,3002.52 L 1616.39,3001.23 L 1603.84,2997.43 L 1592.26,2991.24 L 1582.12,2982.92 L 1573.8,2972.77 L 1567.61,2961.2 L 1563.81,2948.65 L 1562.52,2935.59 z " style="fill-opacity:1.000000;fill:rgb(56,92,42);stroke:rgb(0,0,0);stroke-width:2"/></g>
<g fill-rule="evenodd"><path d="M 1562.52,595.591 L 1562.52,532.598 L 1563.81,519.541 L 1567.61,506.986 L 1573.8,495.415 L 1582.12,485.272 L 1592.26,476.949 L 1603.84,470.764 L 1616.39,466.955 L 1629.45,465.669 L 1642.51,466.955 L 1655.06,470.764 L 1666.63,476.949 L 1676.77,485.272 L 1685.1,495.415 L 1691.28,506.986 L 1695.09,519.541 L 1696.38,532.598 L 1696.38,595.591 L 1695.09,608.648 L 1691.28,621.203 L 1685.1,632.774 L 1676.77,642.917 L 1666.63,651.24 L 1655.06,657.425 L 1642.51,661.234 L 1629.45,662.52 L 1616.39,661.234 L 1603.84,657.425 L 1592.26,651.24 L 1582.12,642.917 L 1573.8,632.774 L 1567.61,621.203 L 1563.81,608.648 L 1562.52,595.591 z " style="fill-opacity:1.000000;fill:rgb(236,176,59);stroke:rgb(0,0,0);stroke-width:2"/></g>
<g fill-rule="evenodd"><path d="M 1567.24,3930.87 L 1567.24,3867.87 L 1568.53,3854.82 L 1572.34,3842.26 L 1578.52,3830.69 L 1586.85,3820.55 L 1596.99,3812.22 L 1608.56,3806.04 L 1621.12,3802.23 L 1634.17,3800.94 L 1647.23,3802.23 L 1659.79,3806.04 L 1671.36,3812.22 L 1681.5,3820.55 L 1689.82,3830.69 L 1696.01,3842.26 L 1699.82,3854.82 L 1701.1,3867.87 L 1701.1,3930.87 L 1699.82,3943.92 L 1696.01,3956.48 L 1689.82,3968.05 L 1681.5,3978.19 L 1671.36,3986.52 L 1659.79,3992.7 L 1647.23,3996.51 L 1634.17,3997.8 L 1621.12,3996.51 L 1608.56,3992.7 L 1596.99,3986.52 L 1586.85,3978.19 L 1578.52,3968.05 L 1572.34,3956.48 L 1568.53,3943.92 L 1567.24,3930.87 z " style="fill-opacity:1.000000;fill:rgb(251,50,175);stroke:rgb(0,0,0);stroke-width:2"/></g>
<g fill-rule="evenodd"><path d="M 1567.24,1590.87 L 1567.24,1527.87 L 1568.53,1514.82 L 1572.34,1502.26 L 1578.52,1490.69 L 1586.85,1480.55 L 1596.99,1472.22 L 1608.56,1466.04 L 1621.12,1462.23 L 1634.17,1460.94 L 1647.23,1462.23 L 1659.79,1466.04 L 1671.36,1472.22 L 1681.5,1480.55 L 1689.82,1490.69 L 1696.01,1502.26 L 1699.82,1514.82 L 1701.1,1527.87 L 1701.1,1590.87 L 1699.82,1603.92 L 1696.01,1616.48 L 1689.82,1628.05 L 1681.5,1638.19 L 1671.36,1646.52 L 1659.79,1652.7 L 1647.23,1656.51 L 1634.17,1657.8 L 1621.12,1656.51 L 1608.56,1652.7 L 1596.99,1646.52 L 1586.85,1638.19 L 1578.52,1628.05 L 1572.34,1616.48 L 1568.53,1603.92 L 1567.24,1590.87 z " style="fill-opacity:1.000000;fill:rgb(60,84,236);stroke:rgb(0,0,0);stroke-width:2"/></g>
<g fill-rule="evenodd"><path d="M 1591.02,5751.02 L 1591.02,5617.17 L 1787.87,5617.17 L 1787.87,5751.02 L 1591.02,5751.02 z " style="fill-opacity:1.000000;fill:rgb(24,219,92);stroke:rgb(0,0,0);stroke-width:2"/></g>
<g fill-rule="evenodd"><path d="M 1591.02,5484.09 L 1592.31,5471.04 L 1596.12,5458.48 L 1602.3,5446.91 L 1610.63,5436.77 L 1620.77,5428.44 L 1632.34,5422.26 L 1644.9,5418.45 L 1657.95,5417.17 L 1720.94,5417.17 L 1734,5418.45 L 1746.56,5422.26 L 1758.13,5428.44 L 1768.27,5436.77 L 1776.59,5446.91 L 1782.78,5458.48 L 1786.59,5471.04 L 1787.87,5484.09 L 1786.59,5497.15 L 1782.78,5509.71 L 1776.59,5521.28 L 1768.27,5531.42 L 1758.13,5539.74 L 1746.56,5545.93 L 1734,5549.74 L 1720.94,5551.02 L 1657.95,5551.02 L 1644.9,5549.74 L 1632.34,5545.93 L 1620.77,5539.74 L 1610.63,5531.42 L 1602.3,5521.28 L 1596.12,5509.71 L 1592.31,5497.15 L 1591.02,5484.09 z " style="fill-opacity:1.000000;fill:rgb(2,26,254);stroke:rgb(0,0,0);stroke-width:2"/></g>
<g fill-rule="evenodd"><path d="M 1591.02,5284.09 L 1592.31,5271.04 L 1596.12,5258.48 L 1602.3,5246.91 L 1610.63,5236.77 L 1620.77,5228.44 L 1632.34,5222.26 L 1644.9,5218.45 L 1657.95,5217.17 L 1720.94,5217.17 L 1734,5218.45 L 1746.56,5222.26 L 1758.13,5228.44 L 1768.27,5236.77 L 1776.59,5246.91 L 1782.78,5258.48 L 1786.59,5271.04 L 1787.87,5284.09 L 1786.59,5297.15 L 1782.78,5309.71 L 1776.59,5321.28 L 1768.27,5331.42 L 1758.13,5339.74 L 1746.56,5345.93 L 1734,5349.74 L 1720.94,5351.02 L 1657.95,5351.02 L 1644.9,5349.74 L 1632.34,5345.93 L 1620.77,5339.74 L 1610.63,5331.42 L 1602.3,5321.28 L 1596.12,5309.71 L 1592.31,5297.15 L 1591.02,5284.09 z " style="fill-opacity:1.000000;fill:rgb(67,251,250);stroke:rgb(0,0,0);stroke-width:2"/></g>
<g fill-rule="evenodd"><path d="M 1682.52,2575.59 L 1682.52,2512.6 L 1683.81,2499.54 L 1687.61,2486.99 L 1693.8,2475.41 L 1702.12,2465.27 L 1712.26,2456.95 L 1723.84,2450.76 L 1736.39,2446.96 L 1749.45,2445.67 L 1762.51,2446.96 L 1775.06,2450.76 L 1786.63,2456.95 L 1796.77,2465.27 L 1805.1,2475.41 L 1811.28,2486.99 L 1815.09,2499.54 L 1816.38,2512.6 L 1816.38,2575.59 L 1815.09,2588.65 L 1811.28,2601.2 L 1805.1,2612.77 L 1796.77,2622.92 L 1786.63,2631.24 L 1775.06,2637.43 L 1762.51,2641.23 L 1749.45,2642.52 L 1736.39,2641.23 L 1723.84,2637.43 L 1712.26,2631.24 L 1702.12,2622.92 L 1693.8,2612.77 L 1687.61,2601.2 L 1683.81,2588.65 L 1682.52,2575.59 z " style="fill-opacity:1.000000;fill:rgb(170,58,251);stroke:rgb(0,0,0);stroke-width:2"/></g>
<g fill-rule="evenodd"><path d="M 1682.52,2275.59 L 1682.52,2212.6 L 1683.81,2199.54 L 1687.61,2186.99 L 1693.8,2175.41 L 1702.12,2165.27 L 1712.26,2156.95 L 1723.84,2150.76 L 1736.39,2146.96 L 1749.45,2145.67 L 1762.51,2146.96 L 1775.06,2150.76 L 1786.63,2156.95 L 1796.77,2165.27 L 1805.1,2175.41 L 1811.28,2186.99 L 1815.09,2199.54 L 1816.38,2212.6 L 1816.38,2275.59 L 1815.09,2288.65 L 1811.28,2301.2 L 1805.1,2312.77 L 1796.77,2322.92 L 1786.63,2331.24 L 1775.06,2337.43 L 1762.51,2341.23 L 1749.45,2342.52 L 1736.39,2341.23 L 1723.84,2337.43 L 1712.26,2331.24 L 1702.12,2322.92 L 1693.8,2312.77 L 1687.61,2301.2 L 1683.81,2288.65 L 1682.52,2275.59 z " style="fill-opacity:1.000000;fill:rgb(41,209,230);stroke:rgb(0,0,0);stroke-width:2"/></g>
<g fill-rule="evenodd"><path d="M 1682.52,1975.59 L 1682.52,1912.6 L 1683.81,1899.54 L 1687.61,1886.99 L 1693.8,1875.41 L 1702.12,1865.27 L 1712.26,1856.95 L 1723.84,1850.76 L 1736.39,1846.96 L 1749.45,1845.67 L 1762.51,1846.96 L 1775.06,1850.76 L 1786.63,1856.95 L 1796.77,1865.27 L 1805.1,1875.41 L 1811.28,1886.99 L 1815.09,1899.54 L 1816.38,1912.6 L 1816.38,1975.59 L 1815.09,1988.65 L 1811.28,2001.2 L 1805.1,2012.77 L 1796.77,2022.92 L 1786.63,2031.24 L 1775.06,2037.43 L 1762.51,2041.23 L 1749.45,2042.52 L 1736.39,2041.23 L 1723.84,2037.43 L 1712.26,2031.24 L 1702.12,2022.92 L 1693.8,2012.77 L 1687.61,2001.2 L 1683.81,1988.65 L 1682.52,1975.59 z " style="fill-opacity:1.000000;fill:rgb(5,60,124);stroke:rgb(0,0,0);stroke-width:2"/></g>
<g fill-rule="evenodd"><path d="M 1762.52,2935.59 L 1762.52,2872.6 L 1763.81,2859.54 L 1767.61,2846.99 L 1773.8,2835.41 L 1782.12,2825.27 L 1792.26,2816.95 L 1803.84,2810.76 L 1816.39,2806.96 L 1829.45,2805.67 L 1842.51,2806.96 L 1855.06,2810.76 L 1866.63,2816.95 L 1876.77,2825.27 L 1885.1,2835.41 L 1891.28,2846.99 L 1895.09,2859.54 L 1896.38,2872.6 L 1896.38,2935.59 L 1895.09,2948.65 L 1891.28,2961.2 L 1885.1,2972.77 L 1876.77,2982.92 L 1866.63,2991.24 L 1855.06,2997.43 L 1842.51,3001.23 L 1829.45,3002.52 L 1816.39,3001.23 L 1803.84,2997.43 L 1792.26,2991.24 L 1782.12,2982.92 L 1773.8,2972.77 L 1767.61,2961.2 L 1763.81,2948.65 L 1762.52,2935.59 z " style="fill-opacity:1.000000;fill:rgb(148,117,216);stroke:rgb(0,0,0);stroke-width:2"/></g>
<g fill-rule="evenodd"><path d="M 1762.52,595.591 L 1762.52,532.598 L 1763.81,519.541 L 1767.61,506.986 L 1773.8,495.415 L 1782.12,485.272 L 1792.26,476.949 L 1803.84,470.764 L 1816.39,466.955 L 1829.45,465.669 L 1842.51,466.955 L 1855.06,470.764 L 1866.63,476.949 L 1876.77,485.272 L 1885.1,495.415 L 1891.28,506.986 L 1895.09,519.541 L 1896.38,532.598 L 1896.38,595.591 L 1895.09,608.648 L 1891.28,621.203 L 1885.1,632.774 L 1876.77,642.917 L 1866.63,651.24 L 1855.06,657.425 L 1842.51,661.234 L 1829.45,662.52 L 1816.39,661.234 L 1803.84,657.425 L 1792.26,651.24 L 1782.12,642.917 L 1773.8,632.774 L 1767.61,621.203 L 1763.81,608.648 L 1762.52,595.591 z " style="fill-opacity:1.000000;fill:rgb(190,97,137);stroke:rgb(0,0,0);stroke-width:2"/></g>
<g fill-rule="evenodd"><path d="M 1767.24,3930.87 L 1767.24,3867.87 L 1768.53,3854.82 L 1772.34,3842.26 L 1778.52,3830.69 L 1786.85,3820.55 L 1796.99,3812.22 L 1808.56,3806.04 L 1821.12,3802.23 L 1834.17,3800.94 L 1847.23,3802.23 L 1859.79,3806.04 L 1871.36,3812.22 L 1881.5,3820.55 L 1889.82,3830.69 L 1896.01,3842.26 L 1899.82,3854.82 L 1901.1,3867.87 L 1901.1,3930.87 L 1899.82,3943.92 L 1896.01,3956.48 L 1889.82,3968.05 L 1881.5,3978.19 L 1871.36,3986.52 L 1859.79,3992.7 L 1847.23,3996.51 L 1834.17,3997.8 L 1821.12,3996.51 L 1808.56,3992.7 L 1796.99,3986.52 L 1786.85,3978.19 L 1778.52,3968.05 L 1772.34,3956.48 L 1768.53,3943.92 L 1767.24,3930.87 z " style="fill-opacity:1.000000;fill:rgb(249,92,187);stroke:rgb(0,0,0);stroke-width:2"/></g>
<g fill-rule="evenodd"><path d="M 1767.24,1590.87 L 1767.24,1527.87 L 1768.53,1514.82 L 1772.34,1502.26 L 1778.52,1490.69 L 1786.85,1480.55 L 1796.99,1472.22 L 1808.56,1466.04 L 1821.12,1462.23 L 1834.17,1460.94 L 1847.23,1462.23 L 1859.79,1466.04 L 1871.36,1472.22 L 1881.5,1480.55 L 1889.82,1490.69 L 1896.01,1502.26 L 1899.82,1514.82 L 1901.1,1527.87 L 1901.1,1590.87 L 1899.82,1603.92 L 1896.01,1616.48 L 1889.82,1628.05 L 1881.5,1638.19 L 1871.36,1646.52 L 1859.79,1652.7 L 1847.23,1656.51 L 1834.17,1657.8 L 1821.12,1656.51 L 1808.56,1652.7 L 1796.99,1646.52 L 1786.85,1638.19 L 1778.52,1628.05 L 1772.34,1616.48 L 1768.53,1603.92 L 1767.24,1590.87 z " style="fill-opacity:1.000000;fill:rgb(168,153,15);stroke:rgb(0,0,0);stroke-width:2"/></g>
<g fill-rule="evenodd"><path d="M 1771.02,4601.02 L 1771.02,4467.17 L 1967.87,4467.17 L 1967.87,4601.02 L 1771.02,4601.02 z " style="fill-opacity:1.000000;fill:rgb(149,177,235);stroke:rgb(0,0,0);stroke-width:2"/></g>
<g fill-rule="evenodd"><path d="M 1771.02,4334.09 L 1772.31,4321.04 L 1776.12,4308.48 L 1782.3,4296.91 L 1790.63,4286.77 L 1800.77,4278.44 L 1812.34,4272.26 L 1824.9,4268.45 L 1837.95,4267.17 L 1900.94,4267.17 L 1914,4268.45 L 1926.56,4272.26 L 1938.13,4278.44 L 1948.27,4286.77 L 1956.59,4296.91 L 1962.78,4308.48 L 1966.59,4321.04 L 1967.87,4334.09 L 1966.59,4347.15 L 1962.78,4359.71 L 1956.59,4371.28 L 1948.27,4381.42 L 1938.13,4389.74 L 1926.56,4395.93 L 1914,4399.74 L 1900.94,4401.02 L 1837.95,4401.02 L 1824.9,4399.74 L 1812.34,4395.93 L 1800.77,4389.74 L 1790.63,4381.42 L 1782.3,4371.28 L 1776.12,4359.71 L 1772.31,4347.15 L 1771.02,4334.09 z " style="fill-opacity:1.000000;fill:rgb(241,179,5);stroke:rgb(0,0,0);stroke-width:2"/></g>
<g fill-rule="evenodd"><path d="M 1882.52,2642.52 L 1882.52,2445.67 L 2016.38,2445.67 L 2016.38,2642.52 L 1882.52,2642.52 z " style="fill-opacity:1.000000;fill:rgb(239,247,0);stroke:rgb(0,0,0);stroke-width:2"/></g>
<g fill-rule="evenodd"><path d="M 1882.52,2342.52 L 1882.52,2145.67 L 2016.38,2145.67 L 2016.38,2342.52 L 1882.52,2342.52 z " style="fill-opacity:1.000000;fill:rgb(233,161,58);stroke:rgb(0,0,0);stroke-width:2"/></g>
<g fill-rule="evenodd"><path d="M 1882.52,2042.52 L 1882.52,1845.67 L 2016.38,1845.67 L 2016.38,2042.52 L 1882.52,2042.52 z " style="fill-opacity:1.000000;fill:rgb(229,202,11);stroke:rgb(0,0,0);stroke-width:2"/></g>
<g fill-rule="evenodd"><path d="M 1911.02,5751.02 L 1911.02,5617.17 L 2107.87,5617.17 L 2107.87,5751.02 L 1911.02,5751.02 z " style="fill-opacity:1.000000;fill:rgb(203,208,72);stroke:rgb(0,0,0);stroke-width:2"/></g>
<g fill-rule="evenodd"><path d="M 1911.02,5484.09 L 1912.31,5471.04 L 1916.12,5458.48 L 1922.3,5446.91 L 1930.63,5436.77 L 1940.77,5428.44 L 1952.34,5422.26 L 1964.9,5418.45 L 1977.95,5417.17 L 2040.94,5417.17 L 2054,5418.45 L 2066.56,5422.26 L 2078.13,5428.44 L 2088.27,5436.77 L 2096.59,5446.91 L 2102.78,5458.48 L 2106.59,5471.04 L 2107.87,5484.09 L 2106.59,5497.15 L 2102.78,5509.71 L 2096.59,5521.28 L 2088.27,5531.42 L 2078.13,5539.74 L 2066.56,5545.93 L 2054,5549.74 L 2040.94,5551.02 L 1977.95,5551.02 L 1964.9,5549.74 L 1952.34,5545.93 L 1940.77,5539.74 L 1930.63,5531.42 L 1922.3,5521.28 L 1916.12,5509.71 L 1912.31,5497.15 L 1911.02,5484.09 z " style="fill-opacity:1.000000;fill:rgb(71,100,189);stroke:rgb(0,0,0);stroke-width:2"/></g>
<g fill-rule="evenodd"><path d="M 1911.02,5284.09 L 1912.31,5271.04 L 1916.12,5258.48 L 1922.3,5246.91 L 1930.63,5236.77 L 1940.77,5228.44 L 1952.34,5222.26 L 1964.9,5218.45 L 1977.95,5217.17 L 2040.94,5217.17 L 2054,5218.45 L 2066.56,5222.26 L 2078.13,5228.44 L 2088.27,5236.77 L 2096.59,5246.91 L 2102.78,5258.48 L 2106.59,5271.04 L 2107.87,5284.09 L 2106.59,5297.15 L 2102.78,5309.71 L 2096.59,5321.28 L 2088.27,5331.42 L 2078.13,5339.74 L 2066.56,5345.93 L 2054,5349.74 L 2040.94,5351.02 L 1977.95,5351.02 L 1964.9,5349.74 L 1952.34,5345.93 L 1940.77,5339.74 L 1930.63,5331.42 L 1922.3,5321.28 L 1916.12,5309.71 L 1912.31,5297.15 L 1911.02,5284.09 z " style="fill-opacity:1.000000;fill:rgb(31,35,30);stroke:rgb(0,0,0);stroke-width:2"/></g>
<g fill-rule="evenodd"><path d="M 1962.52,2935.59 L 1962.52,2872.6 L 1963.81,2859.54 L 1967.61,2846.99 L 1973.8,2835.41 L 1982.12,2825.27 L 1992.26,2816.95 L 2003.84,2810.76 L 2016.39,2806.96 L 2029.45,2805.67 L 2042.51,2806.96 L 2055.06,2810.76 L 2066.63,2816.95 L 2076.77,2825.27 L 2085.1,2835.41 L 2091.28,2846.99 L 2095.09,2859.54 L 2096.38,2872.6 L 2096.38,2935.59 L 2095.09,2948.65 L 2091.28,2961.2 L 2085.1,2972.77 L 2076.77,2982.92 L 2066.63,2991.24 L 2055.06,2997.43 L 2042.51,3001.23 L 2029.45,3002.52 L 2016.39,3001.23 L 2003.84,2997.43 L 1992.26,2991.24 L 1982.12,2982.92 L 1973.8,2972.77 L 1967.61,2961.2 L 1963.81,2948.65 L 1962.52,2935.59 z " style="fill-opacity:1.000000;fill:rgb(168,28,123);stroke:rgb(0,0,0);stroke-width:2"/></g>
<g fill-rule="evenodd"><path d="M 1962.52,595.591 L 1962.52,532.598 L 1963.81,519.541 L 1967.61,506.986 L 1973.8,495.415 L 1982.12,485.272 L 1992.26,476.949 L 2003.84,470.764 L 2016.39,466.955 L 2029.45,465.669 L 2042.51,466.955 L 2055.06,470.764 L 2066.63,476.949 L 2076.77,485.272 L 2085.1,495.415 L 2091.28,506.986 L 2095.09,519.541 L 2096.38,532.598 L 2096.38,595.591 L 2095.09,608.648 L 2091.28,621.203 L 2085.1,632.774 L 2076.77,642.917 L 2066.63,651.24 L 2055.06,657.425 L 2042.51,661.234 L 2029.45,662.52 L 2016.39,661.234 L 2003.84,657.425 L 1992.26,651.24 L 1982.12,642.917 L 1973.8,632.774 L 1967.61,621.203 L 1963.81,608.648 L 1962.52,595.591 z " style="fill-opacity:1.000000;fill:rgb(100,197,20);stroke:rgb(0,0,0);stroke-width:2"/></g>
<g fill-rule="evenodd"><path d="M 1967.24,3930.87 L 1967.24,3867.87 L 1968.53,3854.82 L 1972.34,3842.26 L 1978.52,3830.69 L 1986.85,3820.55 L 1996.99,3812.22 L 2008.56,3806.04 L 2021.12,3802.23 L 2034.17,3800.94 L 2047.23,3802.23 L 2059.79,3806.04 L 2071.36,3812.22 L 2081.5,3820.55 L 2089.82,3830.69 L 2096.01,3842.26 L 2099.82,3854.82 L 2101.1,3867.87 L 2101.1,3930.87 L 2099.82,3943.92 L 2096.01,3956.48 L 2089.82,3968.05 L 2081.5,3978.19 L 2071.36,3986.52 L 2059.79,3992.7 L 2047.23,3996.51 L 2034.17,3997.8 L 2021.12,3996.51 L 2008.56,3992.7 L 1996.99,3986.52 L 1986.85,3978.19 L 1978.52,3968.05 L 1972.34,3956.48 L 1968.53,3943.92 L 1967.24,3930.87 z " style="fill-opacity:1.000000;fill:rgb(115,90,197);stroke:rgb(0,0,0);stroke-width:2"/></g>
<g fill-rule="evenodd"><path d="M 1967.24,1590.87 L 1967.24,1527.87 L 1968.53,1514.82 L 1972.34,1502.26 L 1978.52,1490.69 L 1986.85,1480.55 L 1996.99,1472.22 L 2008.56,1466.04 L 2021.12,1462.23 L 2034.17,1460.94 L 2047.23,1462.23 L 2059.79,1466.04 L 2071.36,1472.22 L 2081.5,1480.55 L 2089.82,1490.69 L 2096.01,1502.26 L 2099.82,1514.82 L 2101.1,1527.87 L 2101.1,1590.87 L 2099.82,1603.92 L 2096.01,1616.48 L 2089.82,1628.05 L 2081.5,1638.19 L 2071.36,1646.52 L 2059.79,1652.7 L 2047.23,1656.51 L 2034.17,1657.8 L 2021.12,1656.51 L 2008.56,1652.7 L 1996.99,1646.52 L 1986.85,1638.19 L 1978.52,1628.05 L 1972.34,1616.48 L 1968.53,1603.92 L 1967.24,1590.87 z " style="fill-opacity:1.000000;fill:rgb(94,75,121);stroke:rgb(0,0,0);stroke-width:2"/></g>
<g fill-rule="evenodd"><path d="M 2162.52,2935.59 L 2162.52,2872.6 L 2163.81,2859.54 L 2167.61,2846.99 L 2173.8,2835.41 L 2182.12,2825.27 L 2192.26,2816.95 L 2203.84,2810.76 L 2216.39,2806.96 L 2229.45,2805.67 L 2242.51,2806.96 L 2255.06,2810.76 L 2266.63,2816.95 L 2276.77,2825.27 L 2285.1,2835.41 L 2291.28,2846.99 L 2295.09,2859.54 L 2296.38,2872.6 L 2296.38,2935.59 L 2295.09,2948.65 L 2291.28,2961.2 L 2285.1,2972.77 L 2276.77,2982.92 L 2266.63,2991.24 L 2255.06,2997.43 L 2242.51,3001.23 L 2229.45,3002.52 L 2216.39,3001.23 L 2203.84,2997.43 L 2192.26,2991.24 L 2182.12,2982.92 L 2173.8,2972.77 L 2167.61,2961.2 L 2163.81,2948.65 L 2162.52,2935.59 z " style="fill-opacity:1.000000;fill:rgb(99,59,112);stroke:rgb(0,0,0);stroke-width:2"/></g>
<g fill-rule="evenodd"><path d="M 2162.52,595.591 L 2162.52,532.598 L 2163.81,519.541 L 2167.61,506.986 L 2173.8,495.415 L 2182.12,485.272 L 2192.26,476.949 L 2203.84,470.764 L 2216.39,466.955 L 2229.45,465.669 L 2242.51,466.955 L 2255.06,470.764 L 2266.63,476.949 L 2276.77,485.272 L 2285.1,495.415 L 2291.28,506.986 L 2295.09,519.541 L 2296.38,532.598 L 2296.38,595.591 L 2295.09,608.648 L 2291.28,621.203 L 2285.1,632.774 L 2276.77,642.917 L 2266.63,651.24 L 2255.06,657.425 L 2242.51,661.234 L 2229.45,662.52 L 2216.39,661.234 L 2203.84,657.425 L 2192.26,651.24 L 2182.12,642.917 L 2173.8,632.774 L 2167.61,621.203 L 2163.81,608.648 L 2162.52,595.591 z " style="fill-opacity:1.000000;fill:rgb(100,36,17);stroke:rgb(0,0,0);stroke-width:2"/></g>
<g fill-rule="evenodd"><path d="M 2167.24,3930.87 L 2167.24,3867.87 L 2168.53,3854.82 L 2172.34,3842.26 L 2178.52,3830.69 L 2186.85,3820.55 L 2196.99,3812.22 L 2208.56,3806.04 L 2221.12,3802.23 L 2234.17,3800.94 L 2247.23,3802.23 L 2259.79,3806.04 L 2271.36,3812.22 L 2281.5,3820.55 L 2289.82,3830.69 L 2296.01,3842.26 L 2299.82,3854.82 L 2301.1,3867.87 L 2301.1,3930.87 L 2299.82,3943.92 L 2296.01,3956.48 L 2289.82,3968.05 L 2281.5,3978.19 L 2271.36,3986.52 L 2259.79,3992.7 L 2247.23,3996.51 L 2234.17,3997.8 L 2221.12,3996.51 L 2208.56,3992.7 L 2196.99,3986.52 L 2186.85,3978.19 L 2178.52,3968.05 L 2172.34,3956.48 L 2168.53,3943.92 L 2167.24,3930.87 z " style="fill-opacity:1.000000;fill:rgb(158,9,220);stroke:rgb(0,0,0);stroke-width:2"/></g>
<g fill-rule="evenodd"><path d="M 2167.24,1590.87 L 2167.24,1527.87 L 2168.53,1514.82 L 2172.34,1502.26 L 2178.52,1490.69 L 2186.85,1480.55 L 2196.99,1472.22 L 2208.56,1466.04 L 2221.12,1462.23 L 2234.17,1460.94 L 2247.23,1462.23 L 2259.79,1466.04 L 2271.36,1472.22 L 2281.5,1480.55 L 2289.82,1490.69 L 2296.01,1502.26 L 2299.82,1514.82 L 2301.1,1527.87 L 2301.1,1590.87 L 2299.82,1603.92 L 2296.01,1616.48 L 2289.82,1628.05 L 2281.5,1638.19 L 2271.36,1646.52 L 2259.79,1652.7 L 2247.23,1656.51 L 2234.17,1657.8 L 2221.12,1656.51 L 2208.56,1652.7 L 2196.99,1646.52 L 2186.85,1638.19 L 2178.52,1628.05 L 2172.34,1616.48 L 2168.53,1603.92 L 2167.24,1590.87 z " style="fill-opacity:1.000000;fill:rgb(170,212,172);stroke:rgb(0,0,0);stroke-width:2"/></g>
<g fill-rule="evenodd"><path d="M 2231.02,5751.02 L 2231.02,5617.17 L 2427.87,5617.17 L 2427.87,5751.02 L 2231.02,5751.02 z " style="fill-opacity:1.000000;fill:rgb(242,27,16);stroke:rgb(0,0,0);stroke-width:2"/></g>
<g fill-rule="evenodd"><path d="M 2231.02,5484.09 L 2232.31,5471.04 L 2236.12,5458.48 L 2242.3,5446.91 L 2250.63,5436.77 L 2260.77,5428.44 L 2272.34,5422.26 L 2284.9,5418.45 L 2297.95,5417.17 L 2360.94,5417.17 L 2374,5418.45 L 2386.56,5422.26 L 2398.13,5428.44 L 2408.27,5436.77 L 2416.59,5446.91 L 2422.78,5458.48 L 2426.59,5471.04 L 2427.87,5484.09 L 2426.59,5497.15 L 2422.78,5509.71 L 2416.59,5521.28 L 2408.27,5531.42 L 2398.13,5539.74 L 2386.56,5545.93 L 2374,5549.74 L 2360.94,5551.02 L 2297.95,5551.02 L 2284.9,5549.74 L 2272.34,5545.93 L 2260.77,5539.74 L 2250.63,5531.42 L 2242.3,5521.28 L 2236.12,5509.71 L 2232.31,5497.15 L 2231.02,5484.09 z " style="fill-opacity:1.000000;fill:rgb(175,59,51);stroke:rgb(0,0,0);stroke-width:2"/></g>
<g fill-rule="evenodd"><path d="M 2231.02,5284.09 L 2232.31,5271.04 L 2236.12,5258.48 L 2242.3,5246.91 L 2250.63,5236.77 L 2260.77,5228.44 L 2272.34,5222.26 L 2284.9,5218.45 L 2297.95,5217.17 L 2360.94,5217.17 L 2374,5218.45 L 2386.56,5222.26 L 2398.13,5228.44 L 2408.27,5236.77 L 2416.59,5246.91 L 2422.78,5258.48 L 2426.59,5271.04 L 2427.87,5284.09 L 2426.59,5297.15 L 2422.78,5309.71 L 2416.59,5321.28 L 2408.27,5331.42 L 2398.13,5339.74 L 2386.56,5345.93 L 2374,5349.74 L 2360.94,5351.02 L 2297.95,5351.02 L 2284.9,5349.74 L 2272.34,5345.93 L 2260.77,5339.74 L 2250.63,5331.42 L 2242.3,5321.28 L 2236.12,5309.71 L 2232.31,5297.15 L 2231.02,5284.09 z " style="fill-opacity:1.000000;fill:rgb(205,227,80);stroke:rgb(0,0,0);stroke-width:2"/></g>
<g fill-rule="evenodd"><path d="M 2232.83,2644.09 L 2232.83,2447.24 L 2366.69,2447.24 L 2366.69,2644.09 L 2232.83,2644.09 z " style="fill-opacity:1.000000;fill:rgb(72,71,21);stroke:rgb(0,0,0);stroke-width:2"/></g>
<g fill-rule="evenodd"><path d="M 2232.83,2340.16 L 2232.83,2143.31 L 2366.69,2143.31 L 2366.69,2340.16 L 2232.83,2340.16 z " style="fill-opacity:1.000000;fill:rgb(92,187,111);stroke:rgb(0,0,0);stroke-width:2"/></g>
<g fill-rule="evenodd"><path d="M 2232.83,2025.2 L 2232.83,1828.35 L 2366.69,1828.35 L 2366.69,2025.2 L 2232.83,2025.2 z " style="fill-opacity:1.000000;fill:rgb(34,25,186);stroke:rgb(0,0,0);stroke-width:2"/></g>
<g fill-rule="evenodd"><path d="M 2362.52,2935.59 L 2362.52,2872.6 L 2363.81,2859.54 L 2367.61,2846.99 L 2373.8,2835.41 L 2382.12,2825.27 L 2392.26,2816.95 L 2403.84,2810.76 L 2416.39,2806.96 L 2429.45,2805.67 L 2442.51,2806.96 L 2455.06,2810.76 L 2466.63,2816.95 L 2476.77,2825.27 L 2485.1,2835.41 L 2491.28,2846.99 L 2495.09,2859.54 L 2496.38,2872.6 L 2496.38,2935.59 L 2495.09,2948.65 L 2491.28,2961.2 L 2485.1,2972.77 L 2476.77,2982.92 L 2466.63,2991.24 L 2455.06,2997.43 L 2442.51,3001.23 L 2429.45,3002.52 L 2416.39,3001.23 L 2403.84,2997.43 L 2392.26,2991.24 L 2382.12,2982.92 L 2373.8,2972.77 L 2367.61,2961.2 L 2363.81,2948.65 L 2362.52,2935.59 z " style="fill-opacity:1.000000;fill:rgb(155,125,245);stroke:rgb(0,0,0);stroke-width:2"/></g>
<g fill-rule="evenodd"><path d="M 2362.52,595.591 L 2362.52,532.598 L 2363.81,519.541 L 2367.61,506.986 L 2373.8,495.415 L 2382.12,485.272 L 2392.26,476.949 L 2403.84,470.764 L 2416.39,466.955 L 2429.45,465.669 L 2442.51,466.955 L 2455.06,470.764 L 2466.63,476.949 L 2476.77,485.272 L 2485.1,495.415 L 2491.28,506.986 L 2495.09,519.541 L 2496.38,532.598 L 2496.38,595.591 L 2495.09,608.648 L 2491.28,621.203 L 2485.1,632.774 L 2476.77,642.917 L 2466.63,651.24 L 2455.06,657.425 L 2442.51,661.234 L 2429.45,662.52 L 2416.39,661.234 L 2403.84,657.425 L 2392.26,651.24 L 2382.12,642.917 L 2373.8,632.774 L 2367.61,621.203 L 2363.81,608.648 L 2362.52,595.591 z " style="fill-opacity:1.000000;fill:rgb(11,225,26);stroke:rgb(0,0,0);stroke-width:2"/></g>
<g fill-rule="evenodd"><path d="M 2367.24,3930.87 L 2367.24,3867.87 L 2368.53,3854.82 L 2372.34,3842.26 L 2378.52,3830.69 L 2386.85,3820.55 L 2396.99,3812.22 L 2408.56,3806.04 L 2421.12,3802.23 L 2434.17,3800.94 L 2447.23,3802.23 L 2459.79,3806.04 L 2471.36,3812.22 L 2481.5,3820.55 L 2489.82,3830.69 L 2496.01,3842.26 L 2499.82,3854.82 L 2501.1,3867.87 L 2501.1,3930.87 L 2499.82,3943.92 L 2496.01,3956.48 L 2489.82,3968.05 L 2481.5,3978.19 L 2471.36,3986.52 L 2459.79,3992.7 L 2447.23,3996.51 L 2434.17,3997.8 L 2421.12,3996.51 L 2408.56,3992.7 L 2396.99,3986.52 L 2386.85,3978.19 L 2378.52,3968.05 L 2372.34,3956.48 L 2368.53,3943.92 L 2367.24,3930.87 z " style="fill-opacity:1.000000;fill:rgb(28,127,35);stroke:rgb(0,0,0);stroke-width:2"/></g>
<g fill-rule="evenodd"><path d="M 2367.24,1590.87 L 2367.24,1527.87 L 2368.53,1514.82 L 2372.34,1502.26 L 2378.52,1490.69 L 2386.85,1480.55 L 2396.99,1472.22 L 2408.56,1466.04 L 2421.12,1462.23 L 2434.17,1460.94 L 2447.23,1462.23 L 2459.79,1466.04 L 2471.36,1472.22 L 2481.5,1480.55 L 2489.82,1490.69 L 2496.01,1502.26 L 2499.82,1514.82 L 2501.1,1527.87 L 2501.1,1590.87 L 2499.82,1603.92 L 2496.01,1616.48 L 2489.82,1628.05 L 2481.5,1638.19 L 2471.36,1646.52 L 2459.79,1652.7 L 2447.23,1656.51 L 2434.17,1657.8 L 2421.12,1656.51 L 2408.56,1652.7 L 2396.99,1646.52 L 2386.85,1638.19 L 2378.52,1628.05 L 2372.34,1616.48 L 2368.53,1603.92 L 2367.24,1590.87 z " style="fill-opacity:1.000000;fill:rgb(248,41,248);stroke:rgb(0,0,0);stroke-width:2"/></g>
<g fill-rule="evenodd"><path d="M 2432.83,2577.17 L 2432.83,2514.17 L 2434.12,2501.12 L 2437.93,2488.56 L 2444.11,2476.99 L 2452.44,2466.85 L 2462.58,2458.52 L 2474.15,2452.34 L 2486.71,2448.53 L 2499.76,2447.24 L 2512.82,2448.53 L 2525.38,2452.34 L 2536.95,2458.52 L 2547.09,2466.85 L 2555.41,2476.99 L 2561.6,2488.56 L 2565.41,2501.12 L 2566.69,2514.17 L 2566.69,2577.17 L 2565.41,2590.22 L 2561.6,2602.78 L 2555.41,2614.35 L 2547.09,2624.49 L 2536.95,2632.81 L 2525.38,2639 L 2512.82,2642.81 L 2499.76,2644.09 L 2486.71,2642.81 L 2474.15,2639 L 2462.58,2632.81 L 2452.44,2624.49 L 2444.11,2614.35 L 2437.93,2602.78 L 2434.12,2590.22 L 2432.83,2577.17 z " style="fill-opacity:1.000000;fill:rgb(164,27,19);stroke:rgb(0,0,0);stroke-width:2"/></g>
<g fill-rule="evenodd"><path d="M 2432.83,2273.23 L 2432.83,2210.24 L 2434.12,2197.18 L 2437.93,2184.62 L 2444.11,2173.05 L 2452.44,2162.91 L 2462.58,2154.59 L 2474.15,2148.4 L 2486.71,2144.59 L 2499.76,2143.31 L 2512.82,2144.59 L 2525.38,2148.4 L 2536.95,2154.59 L 2547.09,2162.91 L 2555.41,2173.05 L 2561.6,2184.62 L 2565.41,2197.18 L 2566.69,2210.24 L 2566.69,2273.23 L 2565.41,2286.29 L 2561.6,2298.84 L 2555.41,2310.41 L 2547.09,2320.55 L 2536.95,2328.88 L 2525.38,2335.06 L 2512.82,2338.87 L 2499.76,2340.16 L 2486.71,2338.87 L 2474.15,2335.06 L 2462.58,2328.88 L 2452.44,2320.55 L 2444.11,2310.41 L 2437.93,2298.84 L 2434.12,2286.29 L 2432.83,2273.23 z " style="fill-opacity:1.000000;fill:rgb(181,202,78);stroke:rgb(0,0,0);stroke-width:2"/></g>
<g fill-rule="evenodd"><path d="M 2432.83,1958.27 L 2432.83,1895.28 L 2434.12,1882.22 L 2437.93,1869.66 L 2444.11,1858.09 L 2452.44,1847.95 L 2462.58,1839.63 L 2474.15,1833.44 L 2486.71,1829.63 L 2499.76,1828.35 L 2512.82,1829.63 L 2525.38,1833.44 L 2536.95,1839.63 L 2547.09,1847.95 L 2555.41,1858.09 L 2561.6,1869.66 L 2565.41,1882.22 L 2566.69,1895.28 L 2566.69,1958.27 L 2565.41,1971.32 L 2561.6,1983.88 L 2555.41,1995.45 L 2547.09,2005.59 L 2536.95,2013.92 L 2525.38,2020.1 L 2512.82,2023.91 L 2499.76,2025.2 L 2486.71,2023.91 L 2474.15,2020.1 L 2462.58,2013.92 L 2452.44,2005.59 L 2444.11,1995.45 L 2437.93,1983.88 L 2434.12,1971.32 L 2432.83,1958.27 z " style="fill-opacity:1.000000;fill:rgb(232,152,50);stroke:rgb(0,0,0);stroke-width:2"/></g>
<g fill-rule="evenodd"><path d="M 2551.02,5751.02 L 2551.02,5617.17 L 2747.87,5617.17 L 2747.87,5751.02 L 2551.02,5751.02 z " style="fill-opacity:1.000000;fill:rgb(56,224,121);stroke:rgb(0,0,0);stroke-width:2"/></g>
<g fill-rule="evenodd"><path d="M 2551.02,5484.09 L 2552.31,5471.04 L 2556.12,5458.48 L 2562.3,5446.91 L 2570.63,5436.77 L 2580.77,5428.44 L 2592.34,5422.26 L 2604.9,5418.45 L 2617.95,5417.17 L 2680.94,5417.17 L 2694,5418.45 L 2706.56,5422.26 L 2718.13,5428.44 L 2728.27,5436.77 L 2736.59,5446.91 L 2742.78,5458.48 L 2746.59,5471.04 L 2747.87,5484.09 L 2746.59,5497.15 L 2742.78,5509.71 L 2736.59,5521.28 L 2728.27,5531.42 L 2718.13,5539.74 L 2706.56,5545.93 L 2694,5549.74 L 2680.94,5551.02 L 2617.95,5551.02 L 2604.9,5549.74 L 2592.34,5545.93 L 2580.77,5539.74 L 2570.63,5531.42 L 2562.3,5521.28 L 2556.12,5509.71 L 2552.31,5497.15 L 2551.02,5484.09 z " style="fill-opacity:1.000000;fill:rgb(77,61,52);stroke:rgb(0,0,0);stroke-width:2"/></g>
<g fill-rule="evenodd"><path d="M 2551.02,5284.09 L 2552.31,5271.04 L 2556.12,5258.48 L 2562.3,5246.91 L 2570.63,5236.77 L 2580.77,5228.44 L 2592.34,5222.26 L 2604.9,5218.45 L 2617.95,5217.17 L 2680.94,5217.17 L 2694,5218.45 L 2706.56,5222.26 L 2718.13,5228.44 L 2728.27,5236.77 L 2736.59,5246.91 L 2742.78,5258.48 L 2746.59,5271.04 L 2747.87,5284.09 L 2746.59,5297.15 L 2742.78,5309.71 L 2736.59,5321.28 L 2728.27,5331.42 L 2718.13,5339.74 L 2706.56,5345.93 L 2694,5349.74 L 2680.94,5351.02 L 2617.95,5351.02 L 2604.9,5349.74 L 2592.34,5345.93 L 2580.77,5339.74 L 2570.63,5331.42 L 2562.3,5321.28 L 2556.12,5309.71 L 2552.31,5297.15 L 2551.02,5284.09 z " style="fill-opacity:1.000000;fill:rgb(188,95,78);stroke:rgb(0,0,0);stroke-width:2"/></g>
<g fill-rule="evenodd"><path d="M 2551.02,3524.09 L 2552.91,3504.89 L 2558.52,3486.43 L 2567.61,3469.41 L 2579.85,3454.5 L 2594.77,3442.26 L 2611.78,3433.16 L 2630.25,3427.56 L 2649.45,3425.67 L 2668.65,3427.56 L 2687.11,3433.16 L 2704.13,3442.26 L 2719.05,3454.5 L 2731.29,3469.41 L 2740.38,3486.43 L 2745.98,3504.89 L 2747.87,3524.09 L 2745.98,3543.3 L 2740.38,3561.76 L 2731.29,3578.78 L 2719.05,3593.69 L 2704.13,3605.93 L 2687.11,3615.03 L 2668.65,3620.63 L 2649.45,3622.52 L 2630.25,3620.63 L 2611.78,3615.03 L 2594.77,3605.93 L 2579.85,3593.69 L 2567.61,3578.78 L 2558.52,3561.76 L 2552.91,3543.3 L 2551.02,3524.09 z " style="fill-opacity:1.000000;fill:rgb(119,250,203);stroke:rgb(0,0,0);stroke-width:2"/></g>
<g fill-rule="evenodd"><path d="M 2562.52,2935.59 L 2562.52,2872.6 L 2563.81,2859.54 L 2567.61,2846.99 L 2573.8,2835.41 L 2582.12,2825.27 L 2592.26,2816.95 L 2603.84,2810.76 L 2616.39,2806.96 L 2629.45,2805.67 L 2642.51,2806.96 L 2655.06,2810.76 L 2666.63,2816.95 L 2676.77,2825.27 L 2685.1,2835.41 L 2691.28,2846.99 L 2695.09,2859.54 L 2696.38,2872.6 L 2696.38,2935.59 L 2695.09,2948.65 L 2691.28,2961.2 L 2685.1,2972.77 L 2676.77,2982.92 L 2666.63,2991.24 L 2655.06,2997.43 L 2642.51,3001.23 L 2629.45,3002.52 L 2616.39,3001.23 L 2603.84,2997.43 L 2592.26,2991.24 L 2582.12,2982.92 L 2573.8,2972.77 L 2567.61,2961.2 L 2563.81,2948.65 L 2562.52,2935.59 z " style="fill-opacity:1.000000;fill:rgb(108,5,172);stroke:rgb(0,0,0);stroke-width:2"/></g>
<g fill-rule="evenodd"><path d="M 2562.52,595.591 L 2562.52,532.598 L 2563.81,519.541 L 2567.61,506.986 L 2573.8,495.415 L 2582.12,485.272 L 2592.26,476.949 L 2603.84,470.764 L 2616.39,466.955 L 2629.45,465.669 L 2642.51,466.955 L 2655.06,470.764 L 2666.63,476.949 L 2676.77,485.272 L 2685.1,495.415 L 2691.28,506.986 L 2695.09,519.541 L 2696.38,532.598 L 2696.38,595.591 L 2695.09,608.648 L 2691.28,621.203 L 2685.1,632.774 L 2676.77,642.917 L 2666.63,651.24 L 2655.06,657.425 L 2642.51,661.234 L 2629.45,662.52 L 2616.39,661.234 L 2603.84,657.425 L 2592.26,651.24 L 2582.12,642.917 L 2573.8,632.774 L 2567.61,621.203 L 2563.81,608.648 L 2562.52,595.591 z " style="fill-opacity:1.000000;fill:rgb(134,33,43);stroke:rgb(0,0,0);stroke-width:2"/></g>
<g fill-rule="evenodd"><path d="M 2567.24,3930.87 L 2567.24,3867.87 L 2568.53,3854.82 L 2572.34,3842.26 L 2578.52,3830.69 L 2586.85,3820.55 L 2596.99,3812.22 L 2608.56,3806.04 L 2621.12,3802.23 L 2634.17,3800.94 L 2647.23,3802.23 L 2659.79,3806.04 L 2671.36,3812.22 L 2681.5,3820.55 L 2689.82,3830.69 L 2696.01,3842.26 L 2699.82,3854.82 L 2701.1,3867.87 L 2701.1,3930.87 L 2699.82,3943.92 L 2696.01,3956.48 L 2689.82,3968.05 L 2681.5,3978.19 L 2671.36,3986.52 L 2659.79,3992.7 L 2647.23,3996.51 L 2634.17,3997.8 L 2621.12,3996.51 L 2608.56,3992.7 L 2596.99,3986.52 L 2586.85,3978.19 L 2578.52,3968.05 L 2572.34,3956.48 L 2568.53,3943.92 L 2567.24,3930.87 z " style="fill-opacity:1.000000;fill:rgb(170,26,85);stroke:rgb(0,0,0);stroke-width:2"/></g>
<g fill-rule="evenodd"><path d="M 2567.24,1590.87 L 2567.24,1527.87 L 2568.53,1514.82 L 2572.34,1502.26 L 2578.52,1490.69 L 2586.85,1480.55 L 2596.99,1472.22 L 2608.56,1466.04 L 2621.12,1462.23 L 2634.17,1460.94 L 2647.23,1462.23 L 2659.79,1466.04 L 2671.36,1472.22 L 2681.5,1480.55 L 2689.82,1490.69 L 2696.01,1502.26 L 2699.82,1514.82 L 2701.1,1527.87 L 2701.1,1590.87 L 2699.82,1603.92 L 2696.01,1616.48 L 2689.82,1628.05 L 2681.5,1638.19 L 2671.36,1646.52 L 2659.79,1652.7 L 2647.23,1656.51 L 2634.17,1657.8 L 2621.12,1656.51 L 2608.56,1652.7 L 2596.99,1646.52 L 2586.85,1638.19 L 2578.52,1628.05 L 2572.34,1616.48 L 2568.53,1603.92 L 2567.24,1590.87 z " style="fill-opacity:1.000000;fill:rgb(162,190,112);stroke:rgb(0,0,0);stroke-width:2"/></g>
<g fill-rule="evenodd"><path d="M 2581.02,914.094 L 2582.91,894.893 L 2588.52,876.429 L 2597.61,859.412 L 2609.85,844.497 L 2624.77,832.257 L 2641.78,823.161 L 2660.25,817.561 L 2679.45,815.669 L 2698.65,817.561 L 2717.11,823.161 L 2734.13,832.257 L 2749.05,844.497 L 2761.29,859.412 L 2770.38,876.429 L 2775.98,894.893 L 2777.87,914.094 L 2775.98,933.296 L 2770.38,951.76 L 2761.29,968.777 L 2749.05,983.692 L 2734.13,995.932 L 2717.11,1005.03 L 2698.65,1010.63 L 2679.45,1012.52 L 2660.25,1010.63 L 2641.78,1005.03 L 2624.77,995.932 L 2609.85,983.692 L 2597.61,968.777 L 2588.52,951.76 L 2582.91,933.296 L 2581.02,914.094 z " style="fill-opacity:1.000000;fill:rgb(181,115,59);stroke:rgb(0,0,0);stroke-width:2"/></g>
<g fill-rule="evenodd"><path d="M 2632.83,2577.17 L 2632.83,2514.17 L 2634.12,2501.12 L 2637.93,2488.56 L 2644.11,2476.99 L 2652.44,2466.85 L 2662.58,2458.52 L 2674.15,2452.34 L 2686.71,2448.53 L 2699.76,2447.24 L 2712.82,2448.53 L 2725.38,2452.34 L 2736.95,2458.52 L 2747.09,2466.85 L 2755.41,2476.99 L 2761.6,2488.56 L 2765.41,2501.12 L 2766.69,2514.17 L 2766.69,2577.17 L 2765.41,2590.22 L 2761.6,2602.78 L 2755.41,2614.35 L 2747.09,2624.49 L 2736.95,2632.81 L 2725.38,2639 L 2712.82,2642.81 L 2699.76,2644.09 L 2686.71,2642.81 L 2674.15,2639 L 2662.58,2632.81 L 2652.44,2624.49 L 2644.11,2614.35 L 2637.93,2602.78 L 2634.12,2590.22 L 2632.83,2577.17 z " style="fill-opacity:1.000000;fill:rgb(4,92,211);stroke:rgb(0,0,0);stroke-width:2"/></g>
<g fill-rule="evenodd"><path d="M 2632.83,2273.23 L 2632.83,2210.24 L 2634.12,2197.18 L 2637.93,2184.62 L 2644.11,2173.05 L 2652.44,2162.91 L 2662.58,2154.59 L 2674.15,2148.4 L 2686.71,2144.59 L 2699.76,2143.31 L 2712.82,2144.59 L 2725.38,2148.4 L 2736.95,2154.59 L 2747.09,2162.91 L 2755.41,2173.05 L 2761.6,2184.62 L 2765.41,2197.18 L 2766.69,2210.24 L 2766.69,2273.23 L 2765.41,2286.29 L 2761.6,2298.84 L 2755.41,2310.41 L 2747.09,2320.55 L 2736.95,2328.88 L 2725.38,2335.06 L 2712.82,2338.87 L 2699.76,2340.16 L 2686.71,2338.87 L 2674.15,2335.06 L 2662.58,2328.88 L 2652.44,2320.55 L 2644.11,2310.41 L 2637.93,2298.84 L 2634.12,2286.29 L 2632.83,2273.23 z " style="fill-opacity:1.000000;fill:rgb(54,148,179);stroke:rgb(0,0,0);stroke-width:2"/></g>
<g fill-rule="evenodd"><path d="M 2632.83,1958.27 L 2632.83,1895.28 L 2634.12,1882.22 L 2637.93,1869.66 L 2644.11,1858.09 L 2652.44,1847.95 L 2662.58,1839.63 L 2674.15,1833.44 L 2686.71,1829.63 L 2699.76,1828.35 L 2712.82,1829.63 L 2725.38,1833.44 L 2736.95,1839.63 L 2747.09,1847.95 L 2755.41,1858.09 L 2761.6,1869.66 L 2765.41,1882.22 L 2766.69,1895.28 L 2766.69,1958.27 L 2765.41,1971.32 L 2761.6,1983.88 L 2755.41,1995.45 L 2747.09,2005.59 L 2736.95,2013.92 L 2725.38,2020.1 L 2712.82,2023.91 L 2699.76,2025.2 L 2686.71,2023.91 L 2674.15,2020.1 L 2662.58,2013.92 L 2652.44,2005.59 L 2644.11,1995.45 L 2637.93,1983.88 L 2634.12,1971.32 L 2632.83,1958.27 z " style="fill-opacity:1.000000;fill:rgb(175,226,240);stroke:rgb(0,0,0);stroke-width:2"/></g>
<g fill-rule="evenodd"><path d="M 2762.52,3002.52 L 2762.52,2805.67 L 2896.38,2805.67 L 2896.38,3002.52 L 2762.52,3002.52 z " style="fill-opacity:1.000000;fill:rgb(228,158,79);stroke:rgb(0,0,0);stroke-width:2"/></g>
<g fill-rule="evenodd"><path d="M 2762.52,595.591 L 2762.52,532.598 L 2763.81,519.541 L 2767.61,506.986 L 2773.8,495.415 L 2782.12,485.272 L 2792.26,476.949 L 2803.84,470.764 L 2816.39,466.955 L 2829.45,465.669 L 2842.51,466.955 L 2855.06,470.764 L 2866.63,476.949 L 2876.77,485.272 L 2885.1,495.415 L 2891.28,506.986 L 2895.09,519.541 L 2896.38,532.598 L 2896.38,595.591 L 2895.09,608.648 L 2891.28,621.203 L 2885.1,632.774 L 2876.77,642.917 L 2866.63,651.24 L 2855.06,657.425 L 2842.51,661.234 L 2829.45,662.52 L 2816.39,661.234 L 2803.84,657.425 L 2792.26,651.24 L 2782.12,642.917 L 2773.8,632.774 L 2767.61,621.203 L 2763.81,608.648 L 2762.52,595.591 z " style="fill-opacity:1.000000;fill:rgb(50,21,73);stroke:rgb(0,0,0);stroke-width:2"/></g>
<g fill-rule="evenodd"><path d="M 2767.24,3930.87 L 2767.24,3867.87 L 2768.53,3854.82 L 2772.34,3842.26 L 2778.52,3830.69 L 2786.85,3820.55 L 2796.99,3812.22 L 2808.56,3806.04 L 2821.12,3802.23 L 2834.17,3800.94 L 2847.23,3802.23 L 2859.79,3806.04 L 2871.36,3812.22 L 2881.5,3820.55 L 2889.82,3830.69 L 2896.01,3842.26 L 2899.82,3854.82 L 2901.1,3867.87 L 2901.1,3930.87 L 2899.82,3943.92 L 2896.01,3956.48 L 2889.82,3968.05 L 2881.5,3978.19 L 2871.36,3986.52 L 2859.79,3992.7 L 2847.23,3996.51 L 2834.17,3997.8 L 2821.12,3996.51 L 2808.56,3992.7 L 2796.99,3986.52 L 2786.85,3978.19 L 2778.52,3968.05 L 2772.34,3956.48 L 2768.53,3943.92 L 2767.24,3930.87 z " style="fill-opacity:1.000000;fill:rgb(253,130,78);stroke:rgb(0,0,0);stroke-width:2"/></g>
<g fill-rule="evenodd"><path d="M 2767.24,1590.87 L 2767.24,1527.87 L 2768.53,1514.82 L 2772.34,1502.26 L 2778.52,1490.69 L 2786.85,1480.55 L 2796.99,1472.22 L 2808.56,1466.04 L 2821.12,1462.23 L 2834.17,1460.94 L 2847.23,1462.23 L 2859.79,1466.04 L 2871.36,1472.22 L 2881.5,1480.55 L 2889.82,1490.69 L 2896.01,1502.26 L 2899.82,1514.82 L 2901.1,1527.87 L 2901.1,1590.87 L 2899.82,1603.92 L 2896.01,1616.48 L 2889.82,1628.05 L 2881.5,1638.19 L 2871.36,1646.52 L 2859.79,1652.7 L 2847.23,1656.51 L 2834.17,1657.8 L 2821.12,1656.51 L 2808.56,1652.7 L 2796.99,1646.52 L 2786.85,1638.19 L 2778.52,1628.05 L 2772.34,1616.48 L 2768.53,1603.92 L 2767.24,1590.87 z " style="fill-opacity:1.000000;fill:rgb(169,8,112);stroke:rgb(0,0,0);stroke-width:2"/></g>
<g fill-rule="evenodd"><path d="M 2871.02,5751.02 L 2871.02,5617.17 L 3067.87,5617.17 L 3067.87,5751.02 L 2871.02,5751.02 z " style="fill-opacity:1.000000;fill:rgb(212,178,138);stroke:rgb(0,0,0);stroke-width:2"/></g>
<g fill-rule="evenodd"><path d="M 2871.02,5484.09 L 2872.31,5471.04 L 2876.12,5458.48 L 2882.3,5446.91 L 2890.63,5436.77 L 2900.77,5428.44 L 2912.34,5422.26 L 2924.9,5418.45 L 2937.95,5417.17 L 3000.94,5417.17 L 3014,5418.45 L 3026.56,5422.26 L 3038.13,5428.44 L 3048.27,5436.77 L 3056.59,5446.91 L 3062.78,5458.48 L 3066.59,5471.04 L 3067.87,5484.09 L 3066.59,5497.15 L 3062.78,5509.71 L 3056.59,5521.28 L 3048.27,5531.42 L 3038.13,5539.74 L 3026.56,5545.93 L 3014,5549.74 L 3000.94,5551.02 L 2937.95,5551.02 L 2924.9,5549.74 L 2912.34,5545.93 L 2900.77,5539.74 L 2890.63,5531.42 L 2882.3,5521.28 L 2876.12,5509.71 L 2872.31,5497.15 L 2871.02,5484.09 z " style="fill-opacity:1.000000;fill:rgb(41,84,72);stroke:rgb(0,0,0);stroke-width:2"/></g>
<g fill-rule="evenodd"><path d="M 2871.02,5284.09 L 2872.31,5271.04 L 2876.12,5258.48 L 2882.3,5246.91 L 2890.63,5236.77 L 2900.77,5228.44 L 2912.34,5222.26 L 2924.9,5218.45 L 2937.95,5217.17 L 3000.94,5217.17 L 3014,5218.45 L 3026.56,5222.26 L 3038.13,5228.44 L 3048.27,5236.77 L 3056.59,5246.91 L 3062.78,5258.48 L 3066.59,5271.04 L 3067.87,5284.09 L 3066.59,5297.15 L 3062.78,5309.71 L 3056.59,5321.28 L 3048.27,5331.42 L 3038.13,5339.74 L 3026.56,5345.93 L 3014,5349.74 L 3000.94,5351.02 L 2937.95,5351.02 L 2924.9,5349.74 L 2912.34,5345.93 L 2900.77,5339.74 L 2890.63,5331.42 L 2882.3,5321.28 L 2876.12,5309.71 L 2872.31,5297.15 L 2871.02,5284.09 z " style="fill-opacity:1.000000;fill:rgb(154,10,188);stroke:rgb(0,0,0);stroke-width:2"/></g>
<g fill-rule="evenodd"><path d="M 3191.02,5751.02 L 3191.02,5617.17 L 3387.87,5617.17 L 3387.87,5751.02 L 3191.02,5751.02 z " style="fill-opacity:1.000000;fill:rgb(213,14,24);stroke:rgb(0,0,0);stroke-width:2"/></g>
<g fill-rule="evenodd"><path d="M 3191.02,5484.09 L 3192.31,5471.04 L 3196.12,5458.48 L 3202.3,5446.91 L 3210.63,5436.77 L 3220.77,5428.44 L 3232.34,5422.26 L 3244.9,5418.45 L 3257.95,5417.17 L 3320.94,5417.17 L 3334,5418.45 L 3346.56,5422.26 L 3358.13,5428.44 L 3368.27,5436.77 L 3376.59,5446.91 L 3382.78,5458.48 L 3386.59,5471.04 L 3387.87,5484.09 L 3386.59,5497.15 L 3382.78,5509.71 L 3376.59,5521.28 L 3368.27,5531.42 L 3358.13,5539.74 L 3346.56,5545.93 L 3334,5549.74 L 3320.94,5551.02 L 3257.95,5551.02 L 3244.9,5549.74 L 3232.34,5545.93 L 3220.77,5539.74 L 3210.63,5531.42 L 3202.3,5521.28 L 3196.12,5509.71 L 3192.31,5497.15 L 3191.02,5484.09 z " style="fill-opacity:1.000000;fill:rgb(168,68,172);stroke:rgb(0,0,0);stroke-width:2"/></g>
<g fill-rule="evenodd"><path d="M 3191.02,5284.09 L 3192.31,5271.04 L 3196.12,5258.48 L 3202.3,5246.91 L 3210.63,5236.77 L 3220.77,5228.44 L 3232.34,5222.26 L 3244.9,5218.45 L 3257.95,5217.17 L 3320.94,5217.17 L 3334,5218.45 L 3346.56,5222.26 L 3358.13,5228.44 L 3368.27,5236.77 L 3376.59,5246.91 L 3382.78,5258.48 L 3386.59,5271.04 L 3387.87,5284.09 L 3386.59,5297.15 L 3382.78,5309.71 L 3376.59,5321.28 L 3368.27,5331.42 L 3358.13,5339.74 L 3346.56,5345.93 L 3334,5349.74 L 3320.94,5351.02 L 3257.95,5351.02 L 3244.9,5349.74 L 3232.34,5345.93 L 3220.77,5339.74 L 3210.63,5331.42 L 3202.3,5321.28 L 3196.12,5309.71 L 3192.31,5297.15 L 3191.02,5284.09 z " style="fill-opacity:1.000000;fill:rgb(91,243,142);stroke:rgb(0,0,0);stroke-width:2"/></g>
<g fill-rule="evenodd"><path d="M 3714.49,4491.02 L 3714.49,4357.17 L 3990.08,4357.17 L 3990.08,4367.51 L 3991.83,4368.44 L 4001.97,4376.77 L 4010.3,4386.91 L 4016.48,4398.48 L 4020.29,4411.04 L 4021.57,4424.09 L 4020.29,4437.15 L 4016.48,4449.71 L 4010.3,4461.28 L 4001.97,4471.42 L 3991.83,4479.74 L 3990.08,4480.68 L 3990.08,4491.02 L 3714.49,4491.02 z " style="fill-opacity:1.000000;fill:rgb(76,215,45);stroke:rgb(0,0,0);stroke-width:2"/></g>
<g fill-rule="evenodd"><path d="M 3714.49,4291.02 L 3714.49,4157.17 L 3990.08,4157.17 L 3990.08,4167.51 L 3991.83,4168.44 L 4001.97,4176.77 L 4010.3,4186.91 L 4016.48,4198.48 L 4020.29,4211.04 L 4021.57,4224.09 L 4020.29,4237.15 L 4016.48,4249.71 L 4010.3,4261.28 L 4001.97,4271.42 L 3991.83,4279.74 L 3990.08,4280.68 L 3990.08,4291.02 L 3714.49,4291.02 z " style="fill-opacity:1.000000;fill:rgb(155,9,66);stroke:rgb(0,0,0);stroke-width:2"/></g>
<g fill-rule="evenodd"><path d="M 3714.49,4091.02 L 3714.49,3957.17 L 4021.57,3957.17 L 4021.57,4091.02 L 3714.49,4091.02 z " style="fill-opacity:1.000000;fill:rgb(229,6,196);stroke:rgb(0,0,0);stroke-width:2"/></g>
<g fill-rule="evenodd"><path d="M 3714.49,3891.02 L 3714.49,3757.17 L 3990.08,3757.17 L 3990.08,3767.51 L 3991.83,3768.44 L 4001.97,3776.77 L 4010.3,3786.91 L 4016.48,3798.48 L 4020.29,3811.04 L 4021.57,3824.09 L 4020.29,3837.15 L 4016.48,3849.71 L 4010.3,3861.28 L 4001.97,3871.42 L 3991.83,3879.74 L 3990.08,3880.68 L 3990.08,3891.02 L 3714.49,3891.02 z " style="fill-opacity:1.000000;fill:rgb(51,175,205);stroke:rgb(0,0,0);stroke-width:2"/></g>
<g fill-rule="evenodd"><path d="M 3714.49,3691.02 L 3714.49,3557.17 L 3990.08,3557.17 L 3990.08,3567.51 L 3991.83,3568.44 L 4001.97,3576.77 L 4010.3,3586.91 L 4016.48,3598.48 L 4020.29,3611.04 L 4021.57,3624.09 L 4020.29,3637.15 L 4016.48,3649.71 L 4010.3,3661.28 L 4001.97,3671.42 L 3991.83,3679.74 L 3990.08,3680.68 L 3990.08,3691.02 L 3714.49,3691.02 z " style="fill-opacity:1.000000;fill:rgb(163,132,127);stroke:rgb(0,0,0);stroke-width:2"/></g>
<g fill-rule="evenodd"><path d="M 3714.49,3491.02 L 3714.49,3357.17 L 3990.08,3357.17 L 3990.08,3367.51 L 3991.83,3368.44 L 4001.97,3376.77 L 4010.3,3386.91 L 4016.48,3398.48 L 4020.29,3411.04 L 4021.57,3424.09 L 4020.29,3437.15 L 4016.48,3449.71 L 4010.3,3461.28 L 4001.97,3471.42 L 3991.83,3479.74 L 3990.08,3480.68 L 3990.08,3491.02 L 3714.49,3491.02 z " style="fill-opacity:1.000000;fill:rgb(45,173,212);stroke:rgb(0,0,0);stroke-width:2"/></g>
<g fill-rule="evenodd"><path d="M 3714.49,3291.02 L 3714.49,3157.17 L 3990.08,3157.17 L 3990.08,3167.51 L 3991.83,3168.44 L 4001.97,3176.77 L 4010.3,3186.91 L 4016.48,3198.48 L 4020.29,3211.04 L 4021.57,3224.09 L 4020.29,3237.15 L 4016.48,3249.71 L 4010.3,3261.28 L 4001.97,3271.42 L 3991.83,3279.74 L 3990.08,3280.68 L 3990.08,3291.02 L 3714.49,3291.02 z " style="fill-opacity:1.000000;fill:rgb(118,71,222);stroke:rgb(0,0,0);stroke-width:2"/></g>
<g fill-rule="evenodd"><path d="M 3714.49,3091.02 L 3714.49,2957.17 L 4021.57,2957.17 L 4021.57,3091.02 L 3714.49,3091.02 z " style="fill-opacity:1.000000;fill:rgb(50,28,236);stroke:rgb(0,0,0);stroke-width:2"/></g>
<g fill-rule="evenodd"><path d="M 3714.49,2891.02 L 3714.49,2757.17 L 3990.08,2757.17 L 3990.08,2767.51 L 3991.83,2768.44 L 4001.97,2776.77 L 4010.3,2786.91 L 4016.48,2798.48 L 4020.29,2811.04 L 4021.57,2824.09 L 4020.29,2837.15 L 4016.48,2849.71 L 4010.3,2861.28 L 4001.97,2871.42 L 3991.83,2879.74 L 3990.08,2880.68 L 3990.08,2891.02 L 3714.49,2891.02 z " style="fill-opacity:1.000000;fill:rgb(74,196,48);stroke:rgb(0,0,0);stroke-width:2"/></g>
<g fill-rule="evenodd"><path d="M 3714.49,2691.02 L 3714.49,2557.17 L 3990.08,2557.17 L 3990.08,2567.51 L 3991.83,2568.44 L 4001.97,2576.77 L 4010.3,2586.91 L 4016.48,2598.48 L 4020.29,2611.04 L 4021.57,2624.09 L 4020.29,2637.15 L 4016.48,2649.71 L 4010.3,2661.28 L 4001.97,2671.42 L 3991.83,2679.74 L 3990.08,2680.68 L 3990.08,2691.02 L 3714.49,2691.02 z " style="fill-opacity:1.000000;fill:rgb(246,32,35);stroke:rgb(0,0,0);stroke-width:2"/></g>
<g fill-rule="evenodd"><path d="M 3714.49,2491.02 L 3714.49,2357.17 L 3990.08,2357.17 L 3990.08,2367.51 L 3991.83,2368.44 L 4001.97,2376.77 L 4010.3,2386.91 L 4016.48,2398.48 L 4020.29,2411.04 L 4021.57,2424.09 L 4020.29,2437.15 L 4016.48,2449.71 L 4010.3,2461.28 L 4001.97,2471.42 L 3991.83,2479.74 L 3990.08,2480.68 L 3990.08,2491.02 L 3714.49,2491.02 z " style="fill-opacity:1.000000;fill:rgb(133,108,251);stroke:rgb(0,0,0);stroke-width:2"/></g>
<g fill-rule="evenodd"><path d="M 3714.49,2291.02 L 3714.49,2157.17 L 3990.08,2157.17 L 3990.08,2167.51 L 3991.83,2168.44 L 4001.97,2176.77 L 4010.3,2186.91 L 4016.48,2198.48 L 4020.29,2211.04 L 4021.57,2224.09 L 4020.29,2237.15 L 4016.48,2249.71 L 4010.3,2261.28 L 4001.97,2271.42 L 3991.83,2279.74 L 3990.08,2280.68 L 3990.08,2291.02 L 3714.49,2291.02 z " style="fill-opacity:1.000000;fill:rgb(178,7,4);stroke:rgb(0,0,0);stroke-width:2"/></g>
<g fill-rule="evenodd"><path d="M 3714.49,2091.02 L 3714.49,1957.17 L 4021.57,1957.17 L 4021.57,2091.02 L 3714.49,2091.02 z " style="fill-opacity:1.000000;fill:rgb(244,236,11);stroke:rgb(0,0,0);stroke-width:2"/></g>
<g fill-rule="evenodd"><path d="M 3714.49,1891.02 L 3714.49,1757.17 L 3990.08,1757.17 L 3990.08,1767.51 L 3991.83,1768.44 L 4001.97,1776.77 L 4010.3,1786.91 L 4016.48,1798.48 L 4020.29,1811.04 L 4021.57,1824.09 L 4020.29,1837.15 L 4016.48,1849.71 L 4010.3,1861.28 L 4001.97,1871.42 L 3991.83,1879.74 L 3990.08,1880.68 L 3990.08,1891.02 L 3714.49,1891.02 z " style="fill-opacity:1.000000;fill:rgb(185,32,186);stroke:rgb(0,0,0);stroke-width:2"/></g>
<g fill-rule="evenodd"><path d="M 3714.49,1691.02 L 3714.49,1557.17 L 3990.08,1557.17 L 3990.08,1567.51 L 3991.83,1568.44 L 4001.97,1576.77 L 4010.3,1586.91 L 4016.48,1598.48 L 4020.29,1611.04 L 4021.57,1624.09 L 4020.29,1637.15 L 4016.48,1649.71 L 4010.3,1661.28 L 4001.97,1671.42 L 3991.83,1679.74 L 3990.08,1680.68 L 3990.08,1691.02 L 3714.49,1691.02 z " style="fill-opacity:1.000000;fill:rgb(134,195,62);stroke:rgb(0,0,0);stroke-width:2"/></g>
<g fill-rule="evenodd"><path d="M 3714.49,1491.02 L 3714.49,1357.17 L 3990.08,1357.17 L 3990.08,1367.51 L 3991.83,1368.44 L 4001.97,1376.77 L 4010.3,1386.91 L 4016.48,1398.48 L 4020.29,1411.04 L 4021.57,1424.09 L 4020.29,1437.15 L 4016.48,1449.71 L 4010.3,1461.28 L 4001.97,1471.42 L 3991.83,1479.74 L 3990.08,1480.68 L 3990.08,1491.02 L 3714.49,1491.02 z " style="fill-opacity:1.000000;fill:rgb(5,241,236);stroke:rgb(0,0,0);stroke-width:2"/></g>
<g fill-rule="evenodd"><path d="M 3714.49,1291.02 L 3714.49,1157.17 L 3990.08,1157.17 L 3990.08,1167.51 L 3991.83,1168.44 L 4001.97,1176.77 L 4010.3,1186.91 L 4016.48,1198.48 L 4020.29,1211.04 L 4021.57,1224.09 L 4020.29,1237.15 L 4016.48,1249.71 L 4010.3,1261.28 L 4001.97,1271.42 L 3991.83,1279.74 L 3990.08,1280.68 L 3990.08,1291.02 L 3714.49,1291.02 z " style="fill-opacity:1.000000;fill:rgb(217,103,51);stroke:rgb(0,0,0);stroke-width:2"/></g>
<g fill-rule="evenodd"><path d="M 3714.49,1091.02 L 3714.49,957.165 L 4021.57,957.165 L 4021.57,1091.02 L 3714.49,1091.02 z " style="fill-opacity:1.000000;fill:rgb(183,153,80);stroke:rgb(0,0,0);stroke-width:2"/></g>
<g fill-rule="evenodd"><path d="M 3714.49,891.024 L 3714.49,757.165 L 3990.08,757.165 L 3990.08,767.509 L 3991.83,768.445 L 4001.97,776.768 L 4010.3,786.911 L 4016.48,798.482 L 4020.29,811.037 L 4021.57,824.094 L 4020.29,837.152 L 4016.48,849.707 L 4010.3,861.278 L 4001.97,871.421 L 3991.83,879.744 L 3990.08,880.68 L 3990.08,891.024 L 3714.49,891.024 z " style="fill-opacity:1.000000;fill:rgb(163,227,20);stroke:rgb(0,0,0);stroke-width:2"/></g>
<g fill-rule="evenodd"><path d="M 3714.49,691.024 L 3714.49,557.165 L 3990.08,557.165 L 3990.08,567.509 L 3991.83,568.445 L 4001.97,576.768 L 4010.3,586.911 L 4016.48,598.482 L 4020.29,611.037 L 4021.57,624.094 L 4020.29,637.152 L 4016.48,649.707 L 4010.3,661.278 L 4001.97,671.421 L 3991.83,679.744 L 3990.08,680.68 L 3990.08,691.024 L 3714.49,691.024 z " style="fill-opacity:1.000000;fill:rgb(211,217,52);stroke:rgb(0,0,0);stroke-width:2"/></g>
<g fill-rule="evenodd"><path d="M 4505.04,2524.09 L 4507.31,2501.05 L 4514.03,2478.9 L 4524.94,2458.48 L 4539.63,2440.58 L 4557.53,2425.89 L 4577.95,2414.97 L 4600.11,2408.25 L 4623.15,2405.98 L 4646.19,2408.25 L 4668.35,2414.97 L 4688.77,2425.89 L 4706.67,2440.58 L 4721.35,2458.48 L 4732.27,2478.9 L 4738.99,2501.05 L 4741.26,2524.09 L 4738.99,2547.14 L 4732.27,2569.29 L 4721.35,2589.71 L 4706.67,2607.61 L 4688.77,2622.3 L 4668.35,2633.21 L 4646.19,2639.94 L 4623.15,2642.2 L 4600.11,2639.94 L 4577.95,2633.21 L 4557.53,2622.3 L 4539.63,2607.61 L 4524.94,2589.71 L 4514.03,2569.29 L 4507.31,2547.14 L 4505.04,2524.09 z " style="fill-opacity:1.000000;fill:rgb(247,94,160);stroke:rgb(0,0,0);stroke-width:2"/></g>
<g fill-rule="evenodd"><path d="M 5224.72,4424.09 L 5226.01,4411.04 L 5229.82,4398.48 L 5236,4386.91 L 5244.33,4376.77 L 5254.47,4368.44 L 5256.22,4367.51 L 5256.22,4357.17 L 5531.81,4357.17 L 5531.81,4491.02 L 5256.22,4491.02 L 5256.22,4480.68 L 5254.47,4479.74 L 5244.33,4471.42 L 5236,4461.28 L 5229.82,4449.71 L 5226.01,4437.15 L 5224.72,4424.09 z " style="fill-opacity:1.000000;fill:rgb(242,16,168);stroke:rgb(0,0,0);stroke-width:2"/></g>
<g fill-rule="evenodd"><path d="M 5224.72,4224.09 L 5226.01,4211.04 L 5229.82,4198.48 L 5236,4186.91 L 5244.33,4176.77 L 5254.47,4168.44 L 5256.22,4167.51 L 5256.22,4157.17 L 5531.81,4157.17 L 5531.81,4291.02 L 5256.22,4291.02 L 5256.22,4280.68 L 5254.47,4279.74 L 5244.33,4271.42 L 5236,4261.28 L 5229.82,4249.71 L 5226.01,4237.15 L 5224.72,4224.09 z " style="fill-opacity:1.000000;fill:rgb(246,5,148);stroke:rgb(0,0,0);stroke-width:2"/></g>
<g fill-rule="evenodd"><path d="M 5224.72,4091.02 L 5224.72,3957.17 L 5531.81,3957.17 L 5531.81,4091.02 L 5224.72,4091.02 z " style="fill-opacity:1.000000;fill:rgb(1,190,180);stroke:rgb(0,0,0);stroke-width:2"/></g>
<g fill-rule="evenodd"><path d="M 5224.72,3824.09 L 5226.01,3811.04 L 5229.82,3798.48 L 5236,3786.91 L 5244.33,3776.77 L 5254.47,3768.44 L 5256.22,3767.51 L 5256.22,3757.17 L 5531.81,3757.17 L 5531.81,3891.02 L 5256.22,3891.02 L 5256.22,3880.68 L 5254.47,3879.74 L 5244.33,3871.42 L 5236,3861.28 L 5229.82,3849.71 L 5226.01,3837.15 L 5224.72,3824.09 z " style="fill-opacity:1.000000;fill:rgb(188,68,120);stroke:rgb(0,0,0);stroke-width:2"/></g>
<g fill-rule="evenodd"><path d="M 5224.72,3624.09 L 5226.01,3611.04 L 5229.82,3598.48 L 5236,3586.91 L 5244.33,3576.77 L 5254.47,3568.44 L 5256.22,3567.51 L 5256.22,3557.17 L 5531.81,3557.17 L 5531.81,3691.02 L 5256.22,3691.02 L 5256.22,3680.68 L 5254.47,3679.74 L 5244.33,3671.42 L 5236,3661.28 L 5229.82,3649.71 L 5226.01,3637.15 L 5224.72,3624.09 z " style="fill-opacity:1.000000;fill:rgb(250,73,105);stroke:rgb(0,0,0);stroke-width:2"/></g>
<g fill-rule="evenodd"><path d="M 5224.72,3424.09 L 5226.01,3411.04 L 5229.82,3398.48 L 5236,3386.91 L 5244.33,3376.77 L 5254.47,3368.44 L 5256.22,3367.51 L 5256.22,3357.17 L 5531.81,3357.17 L 5531.81,3491.02 L 5256.22,3491.02 L 5256.22,3480.68 L 5254.47,3479.74 L 5244.33,3471.42 L 5236,3461.28 L 5229.82,3449.71 L 5226.01,3437.15 L 5224.72,3424.09 z " style="fill-opacity:1.000000;fill:rgb(230,35,208);stroke:rgb(0,0,0);stroke-width:2"/></g>
<g fill-rule="evenodd"><path d="M 5224.72,3224.09 L 5226.01,3211.04 L 5229.82,3198.48 L 5236,3186.91 L 5244.33,3176.77 L 5254.47,3168.44 L 5256.22,3167.51 L 5256.22,3157.17 L 5531.81,3157.17 L 5531.81,3291.02 L 5256.22,3291.02 L 5256.22,3280.68 L 5254.47,3279.74 L 5244.33,3271.42 L 5236,3261.28 L 5229.82,3249.71 L 5226.01,3237.15 L 5224.72,3224.09 z " style="fill-opacity:1.000000;fill:rgb(26,218,105);stroke:rgb(0,0,0);stroke-width:2"/></g>
<g fill-rule="evenodd"><path d="M 5224.72,3091.02 L 5224.72,2957.17 L 5531.81,2957.17 L 5531.81,3091.02 L 5224.72,3091.02 z " style="fill-opacity:1.000000;fill:rgb(106,126,76);stroke:rgb(0,0,0);stroke-width:2"/></g>
<g fill-rule="evenodd"><path d="M 5224.72,2824.09 L 5226.01,2811.04 L 5229.82,2798.48 L 5236,2786.91 L 5244.33,2776.77 L 5254.47,2768.44 L 5256.22,2767.51 L 5256.22,2757.17 L 5531.81,2757.17 L 5531.81,2891.02 L 5256.22,2891.02 L 5256.22,2880.68 L 5254.47,2879.74 L 5244.33,2871.42 L 5236,2861.28 L 5229.82,2849.71 L 5226.01,2837.15 L 5224.72,2824.09 z " style="fill-opacity:1.000000;fill:rgb(126,81,37);stroke:rgb(0,0,0);stroke-width:2"/></g>
<g fill-rule="evenodd"><path d="M 5224.72,2624.09 L 5226.01,2611.04 L 5229.82,2598.48 L 5236,2586.91 L 5244.33,2576.77 L 5254.47,2568.44 L 5256.22,2567.51 L 5256.22,2557.17 L 5531.81,2557.17 L 5531.81,2691.02 L 5256.22,2691.02 L 5256.22,2680.68 L 5254.47,2679.74 L 5244.33,2671.42 L 5236,2661.28 L 5229.82,2649.71 L 5226.01,2637.15 L 5224.72,2624.09 z " style="fill-opacity:1.000000;fill:rgb(179,72,132);stroke:rgb(0,0,0);stroke-width:2"/></g>
<g fill-rule="evenodd"><path d="M 5224.72,2424.09 L 5226.01,2411.04 L 5229.82,2398.48 L 5236,2386.91 L 5244.33,2376.77 L 5254.47,2368.44 L 5256.22,2367.51 L 5256.22,2357.17 L 5531.81,2357.17 L 5531.81,2491.02 L 5256.22,2491.02 L 5256.22,2480.68 L 5254.47,2479.74 L 5244.33,2471.42 L 5236,2461.28 L 5229.82,2449.71 L 5226.01,2437.15 L 5224.72,2424.09 z " style="fill-opacity:1.000000;fill:rgb(83,58,148);stroke:rgb(0,0,0);stroke-width:2"/></g>
<g fill-rule="evenodd"><path d="M 5224.72,2224.09 L 5226.01,2211.04 L 5229.82,2198.48 L 5236,2186.91 L 5244.33,2176.77 L 5254.47,2168.44 L 5256.22,2167.51 L 5256.22,2157.17 L 5531.81,2157.17 L 5531.81,2291.02 L 5256.22,2291.02 L 5256.22,2280.68 L 5254.47,2279.74 L 5244.33,2271.42 L 5236,2261.28 L 5229.82,2249.71 L 5226.01,2237.15 L 5224.72,2224.09 z " style="fill-opacity:1.000000;fill:rgb(251,49,153);stroke:rgb(0,0,0);stroke-width:2"/></g>
<g fill-rule="evenodd"><path d="M 5224.72,2091.02 L 5224.72,1957.17 L 5531.81,1957.17 L 5531.81,2091.02 L 5224.72,2091.02 z " style="fill-opacity:1.000000;fill:rgb(144,50,87);stroke:rgb(0,0,0);stroke-width:2"/></g>
<g fill-rule="evenodd"><path d="M 5224.72,1824.09 L 5226.01,1811.04 L 5229.82,1798.48 L 5236,1786.91 L 5244.33,1776.77 L 5254.47,1768.44 L 5256.22,1767.51 L 5256.22,1757.17 L 5531.81,1757.17 L 5531.81,1891.02 L 5256.22,1891.02 L 5256.22,1880.68 L 5254.47,1879.74 L 5244.33,1871.42 L 5236,1861.28 L 5229.82,1849.71 L 5226.01,1837.15 L 5224.72,1824.09 z " style="fill-opacity:1.000000;fill:rgb(68,238,155);stroke:rgb(0,0,0);stroke-width:2"/></g>
<g fill-rule="evenodd"><path d="M 5224.72,1624.09 L 5226.01,1611.04 L 5229.82,1598.48 L 5236,1586.91 L 5244.33,1576.77 L 5254.47,1568.44 L 5256.22,1567.51 L 5256.22,1557.17 L 5531.81,1557.17 L 5531.81,1691.02 L 5256.22,1691.02 L 5256.22,1680.68 L 5254.47,1679.74 L 5244.33,1671.42 L 5236,1661.28 L 5229.82,1649.71 L 5226.01,1637.15 L 5224.72,1624.09 z " style="fill-opacity:1.000000;fill:rgb(188,233,229);stroke:rgb(0,0,0);stroke-width:2"/></g>
<g fill-rule="evenodd"><path d="M 5224.72,1424.09 L 5226.01,1411.04 L 5229.82,1398.48 L 5236,1386.91 L 5244.33,1376.77 L 5254.47,1368.44 L 5256.22,1367.51 L 5256.22,1357.17 L 5531.81,1357.17 L 5531.81,1491.02 L 5256.22,1491.02 L 5256.22,1480.68 L 5254.47,1479.74 L 5244.33,1471.42 L 5236,1461.28 L 5229.82,1449.71 L 5226.01,1437.15 L 5224.72,1424.09 z " style="fill-opacity:1.000000;fill:rgb(37,207,8);stroke:rgb(0,0,0);stroke-width:2"/></g>
<g fill-rule="evenodd"><path d="M 5224.72,1224.09 L 5226.01,1211.04 L 5229.82,1198.48 L 5236,1186.91 L 5244.33,1176.77 L 5254.47,1168.44 L 5256.22,1167.51 L 5256.22,1157.17 L 5531.81,1157.17 L 5531.81,1291.02 L 5256.22,1291.02 L 5256.22,1280.68 L 5254.47,1279.74 L 5244.33,1271.42 L 5236,1261.28 L 5229.82,1249.71 L 5226.01,1237.15 L 5224.72,1224.09 z " style="fill-opacity:1.000000;fill:rgb(245,233,226);stroke:rgb(0,0,0);stroke-width:2"/></g>
<g fill-rule="evenodd"><path d="M 5224.72,1091.02 L 5224.72,957.165 L 5531.81,957.165 L 5531.81,1091.02 L 5224.72,1091.02 z " style="fill-opacity:1.000000;fill:rgb(94,83,96);stroke:rgb(0,0,0);stroke-width:2"/></g>
<g fill-rule="evenodd"><path d="M 5224.72,824.094 L 5226.01,811.037 L 5229.82,798.482 L 5236,786.911 L 5244.33,776.768 L 5254.47,768.445 L 5256.22,767.509 L 5256.22,757.165 L 5531.81,757.165 L 5531.81,891.024 L 5256.22,891.024 L 5256.22,880.68 L 5254.47,879.744 L 5244.33,871.421 L 5236,861.278 L 5229.82,849.707 L 5226.01,837.152 L 5224.72,824.094 z " style="fill-opacity:1.000000;fill:rgb(170,210,178);stroke:rgb(0,0,0);stroke-width:2"/></g>
<g fill-rule="evenodd"><path d="M 5224.72,624.094 L 5226.01,611.037 L 5229.82,598.482 L 5236,586.911 L 5244.33,576.768 L 5254.47,568.445 L 5256.22,567.509 L 5256.22,557.165 L 5531.81,557.165 L 5531.81,691.024 L 5256.22,691.024 L 5256.22,680.68 L 5254.47,679.744 L 5244.33,671.421 L 5236,661.278 L 5229.82,649.707 L 5226.01,637.152 L 5224.72,624.094 z " style="fill-opacity:1.000000;fill:rgb(208,133,250);stroke:rgb(0,0,0);stroke-width:2"/></g>
<g fill-rule="evenodd"><path d="M 5811.02,1244.09 L 5812.91,1224.89 L 5818.52,1206.43 L 5827.61,1189.41 L 5839.85,1174.5 L 5854.77,1162.26 L 5871.78,1153.16 L 5890.25,1147.56 L 5909.45,1145.67 L 5928.65,1147.56 L 5947.11,1153.16 L 5964.13,1162.26 L 5979.05,1174.5 L 5991.29,1189.41 L 6000.38,1206.43 L 6005.98,1224.89 L 6007.87,1244.09 L 6005.98,1263.3 L 6000.38,1281.76 L 5991.29,1298.78 L 5979.05,1313.69 L 5964.13,1325.93 L 5947.11,1335.03 L 5928.65,1340.63 L 5909.45,1342.52 L 5890.25,1340.63 L 5871.78,1335.03 L 5854.77,1325.93 L 5839.85,1313.69 L 5827.61,1298.78 L 5818.52,1281.76 L 5812.91,1263.3 L 5811.02,1244.09 z " style="fill-opacity:1.000000;fill:rgb(84,216,53);stroke:rgb(0,0,0);stroke-width:2"/></g>
<g fill-rule="evenodd"><path d="M 5942.52,2122.52 L 5942.52,1925.67 L 6076.38,1925.67 L 6076.38,2122.52 L 5942.52,2122.52 z " style="fill-opacity:1.000000;fill:rgb(232,212,102);stroke:rgb(0,0,0);stroke-width:2"/></g>
<g fill-rule="evenodd"><path d="M 5942.52,1822.52 L 5942.52,1625.67 L 6076.38,1625.67 L 6076.38,1822.52 L 5942.52,1822.52 z " style="fill-opacity:1.000000;fill:rgb(130,100,152);stroke:rgb(0,0,0);stroke-width:2"/></g>
<g fill-rule="evenodd"><path d="M 6111.02,1244.09 L 6112.91,1224.89 L 6118.52,1206.43 L 6127.61,1189.41 L 6139.85,1174.5 L 6154.77,1162.26 L 6171.78,1153.16 L 6190.25,1147.56 L 6209.45,1145.67 L 6228.65,1147.56 L 6247.11,1153.16 L 6264.13,1162.26 L 6279.05,1174.5 L 6291.29,1189.41 L 6300.38,1206.43 L 6305.98,1224.89 L 6307.87,1244.09 L 6305.98,1263.3 L 6300.38,1281.76 L 6291.29,1298.78 L 6279.05,1313.69 L 6264.13,1325.93 L 6247.11,1335.03 L 6228.65,1340.63 L 6209.45,1342.52 L 6190.25,1340.63 L 6171.78,1335.03 L 6154.77,1325.93 L 6139.85,1313.69 L 6127.61,1298.78 L 6118.52,1281.76 L 6112.91,1263.3 L 6111.02,1244.09 z " style="fill-opacity:1.000000;fill:rgb(217,168,135);stroke:rgb(0,0,0);stroke-width:2"/></g>
<g fill-rule="evenodd"><path d="M 6142.52,2055.59 L 6142.52,1992.6 L 6143.81,1979.54 L 6147.61,1966.99 L 6153.8,1955.41 L 6162.12,1945.27 L 6172.26,1936.95 L 6183.84,1930.76 L 6196.39,1926.96 L 6209.45,1925.67 L 6222.51,1926.96 L 6235.06,1930.76 L 6246.63,1936.95 L 6256.77,1945.27 L 6265.1,1955.41 L 6271.28,1966.99 L 6275.09,1979.54 L 6276.38,1992.6 L 6276.38,2055.59 L 6275.09,2068.65 L 6271.28,2081.2 L 6265.1,2092.77 L 6256.77,2102.92 L 6246.63,2111.24 L 6235.06,2117.43 L 6222.51,2121.23 L 6209.45,2122.52 L 6196.39,2121.23 L 6183.84,2117.43 L 6172.26,2111.24 L 6162.12,2102.92 L 6153.8,2092.77 L 6147.61,2081.2 L 6143.81,2068.65 L 6142.52,2055.59 z " style="fill-opacity:1.000000;fill:rgb(117,101,112);stroke:rgb(0,0,0);stroke-width:2"/></g>
<g fill-rule="evenodd"><path d="M 6142.52,1755.59 L 6142.52,1692.6 L 6143.81,1679.54 L 6147.61,1666.99 L 6153.8,1655.41 L 6162.12,1645.27 L 6172.26,1636.95 L 6183.84,1630.76 L 6196.39,1626.96 L 6209.45,1625.67 L 6222.51,1626.96 L 6235.06,1630.76 L 6246.63,1636.95 L 6256.77,1645.27 L 6265.1,1655.41 L 6271.28,1666.99 L 6275.09,1679.54 L 6276.38,1692.6 L 6276.38,1755.59 L 6275.09,1768.65 L 6271.28,1781.2 L 6265.1,1792.77 L 6256.77,1802.92 L 6246.63,1811.24 L 6235.06,1817.43 L 6222.51,1821.23 L 6209.45,1822.52 L 6196.39,1821.23 L 6183.84,1817.43 L 6172.26,1811.24 L 6162.12,1802.92 L 6153.8,1792.77 L 6147.61,1781.2 L 6143.81,1768.65 L 6142.52,1755.59 z " style="fill-opacity:1.000000;fill:rgb(90,138,63);stroke:rgb(0,0,0);stroke-width:2"/></g>
<g fill-rule="evenodd"><path d="M 6142.52,855.591 L 6142.52,792.598 L 6143.81,779.541 L 6147.61,766.986 L 6153.8,755.415 L 6162.12,745.272 L 6172.26,736.949 L 6183.84,730.764 L 6196.39,726.955 L 6209.45,725.669 L 6222.51,726.955 L 6235.06,730.764 L 6246.63,736.949 L 6256.77,745.272 L 6265.1,755.415 L 6271.28,766.986 L 6275.09,779.541 L 6276.38,792.598 L 6276.38,855.591 L 6275.09,868.648 L 6271.28,881.203 L 6265.1,892.774 L 6256.77,902.917 L 6246.63,911.24 L 6235.06,917.425 L 6222.51,921.234 L 6209.45,922.52 L 6196.39,921.234 L 6183.84,917.425 L 6172.26,911.24 L 6162.12,902.917 L 6153.8,892.774 L 6147.61,881.203 L 6143.81,868.648 L 6142.52,855.591 z " style="fill-opacity:1.000000;fill:rgb(98,128,41);stroke:rgb(0,0,0);stroke-width:2"/></g>
<g fill-rule="evenodd"><path d="M 6342.52,2055.59 L 6342.52,1992.6 L 6343.81,1979.54 L 6347.61,1966.99 L 6353.8,1955.41 L 6362.12,1945.27 L 6372.26,1936.95 L 6383.84,1930.76 L 6396.39,1926.96 L 6409.45,1925.67 L 6422.51,1926.96 L 6435.06,1930.76 L 6446.63,1936.95 L 6456.77,1945.27 L 6465.1,1955.41 L 6471.28,1966.99 L 6475.09,1979.54 L 6476.38,1992.6 L 6476.38,2055.59 L 6475.09,2068.65 L 6471.28,2081.2 L 6465.1,2092.77 L 6456.77,2102.92 L 6446.63,2111.24 L 6435.06,2117.43 L 6422.51,2121.23 L 6409.45,2122.52 L 6396.39,2121.23 L 6383.84,2117.43 L 6372.26,2111.24 L 6362.12,2102.92 L 6353.8,2092.77 L 6347.61,2081.2 L 6343.81,2068.65 L 6342.52,2055.59 z " style="fill-opacity:1.000000;fill:rgb(68,222,124);stroke:rgb(0,0,0);stroke-width:2"/></g>
<g fill-rule="evenodd"><path d="M 6342.52,1755.59 L 6342.52,1692.6 L 6343.81,1679.54 L 6347.61,1666.99 L 6353.8,1655.41 L 6362.12,1645.27 L 6372.26,1636.95 L 6383.84,1630.76 L 6396.39,1626.96 L 6409.45,1625.67 L 6422.51,1626.96 L 6435.06,1630.76 L 6446.63,1636.95 L 6456.77,1645.27 L 6465.1,1655.41 L 6471.28,1666.99 L 6475.09,1679.54 L 6476.38,1692.6 L 6476.38,1755.59 L 6475.09,1768.65 L 6471.28,1781.2 L 6465.1,1792.77 L 6456.77,1802.92 L 6446.63,1811.24 L 6435.06,1817.43 L 6422.51,1821.23 L 6409.45,1822.52 L 6396.39,1821.23 L 6383.84,1817.43 L 6372.26,1811.24 L 6362.12,1802.92 L 6353.8,1792.77 L 6347.61,1781.2 L 6343.81,1768.65 L 6342.52,1755.59 z " style="fill-opacity:1.000000;fill:rgb(165,137,78);stroke:rgb(0,0,0);stroke-width:2"/></g>
<g fill-rule="evenodd"><path d="M 6342.52,922.52 L 6342.52,725.669 L 6476.38,725.669 L 6476.38,922.52 L 6342.52,922.52 z " style="fill-opacity:1.000000;fill:rgb(87,89,211);stroke:rgb(0,0,0);stroke-width:2"/></g>
<g fill-rule="evenodd"><path d="M 6451.34,1244.09 L 6453.61,1221.05 L 6460.33,1198.9 L 6471.24,1178.48 L 6485.93,1160.58 L 6503.83,1145.89 L 6524.25,1134.97 L 6546.41,1128.25 L 6569.45,1125.98 L 6592.49,1128.25 L 6614.65,1134.97 L 6635.07,1145.89 L 6652.97,1160.58 L 6667.65,1178.48 L 6678.57,1198.9 L 6685.29,1221.05 L 6687.56,1244.09 L 6685.29,1267.14 L 6678.57,1289.29 L 6667.65,1309.71 L 6652.97,1327.61 L 6635.07,1342.3 L 6614.65,1353.21 L 6592.49,1359.94 L 6569.45,1362.2 L 6546.41,1359.94 L 6524.25,1353.21 L 6503.83,1342.3 L 6485.93,1327.61 L 6471.24,1309.71 L 6460.33,1289.29 L 6453.61,1267.14 L 6451.34,1244.09 z " style="fill-opacity:1.000000;fill:rgb(81,173,172);stroke:rgb(0,0,0);stroke-width:2"/></g>
<g fill-rule="evenodd"><path d="M 7629.02,4861.02 L 7629.02,4727.17 L 7825.87,4727.17 L 7825.87,4861.02 L 7629.02,4861.02 z " style="fill-opacity:1.000000;fill:rgb(134,149,128);stroke:rgb(0,0,0);stroke-width:2"/></g>
<g fill-rule="evenodd"><path d="M 7629.02,4594.09 L 7630.31,4581.04 L 7634.12,4568.48 L 7640.3,4556.91 L 7648.63,4546.77 L 7658.77,4538.44 L 7670.34,4532.26 L 7682.9,4528.45 L 7695.95,4527.17 L 7758.94,4527.17 L 7772,4528.45 L 7784.56,4532.26 L 7796.13,4538.44 L 7806.27,4546.77 L 7814.59,4556.91 L 7820.78,4568.48 L 7824.59,4581.04 L 7825.87,4594.09 L 7824.59,4607.15 L 7820.78,4619.71 L 7814.59,4631.28 L 7806.27,4641.42 L 7796.13,4649.74 L 7784.56,4655.93 L 7772,4659.74 L 7758.94,4661.02 L 7695.95,4661.02 L 7682.9,4659.74 L 7670.34,4655.93 L 7658.77,4649.74 L 7648.63,4641.42 L 7640.3,4631.28 L 7634.12,4619.71 L 7630.31,4607.15 L 7629.02,4594.09 z " style="fill-opacity:1.000000;fill:rgb(236,23,228);stroke:rgb(0,0,0);stroke-width:2"/></g>
<g fill-rule="evenodd"><path d="M 7631.42,3531.42 L 7631.42,3397.56 L 7828.27,3397.56 L 7828.27,3531.42 L 7631.42,3531.42 z " style="fill-opacity:1.000000;fill:rgb(133,241,140);stroke:rgb(0,0,0);stroke-width:2"/></g>
<g fill-rule="evenodd"><path d="M 7631.42,3264.49 L 7632.7,3251.43 L 7636.51,3238.88 L 7642.7,3227.3 L 7651.02,3217.16 L 7661.16,3208.84 L 7672.73,3202.65 L 7685.29,3198.85 L 7698.35,3197.56 L 7761.34,3197.56 L 7774.4,3198.85 L 7786.95,3202.65 L 7798.52,3208.84 L 7808.66,3217.16 L 7816.99,3227.3 L 7823.17,3238.88 L 7826.98,3251.43 L 7828.27,3264.49 L 7826.98,3277.55 L 7823.17,3290.1 L 7816.99,3301.67 L 7808.66,3311.81 L 7798.52,3320.14 L 7786.95,3326.32 L 7774.4,3330.13 L 7761.34,3331.42 L 7698.35,3331.42 L 7685.29,3330.13 L 7672.73,3326.32 L 7661.16,3320.14 L 7651.02,3311.81 L 7642.7,3301.67 L 7636.51,3290.1 L 7632.7,3277.55 L 7631.42,3264.49 z " style="fill-opacity:1.000000;fill:rgb(12,102,241);stroke:rgb(0,0,0);stroke-width:2"/></g>
<g fill-rule="evenodd"><path d="M 8067.02,4794.09 L 8068.31,4781.04 L 8072.12,4768.48 L 8078.3,4756.91 L 8086.63,4746.77 L 8096.77,4738.44 L 8108.34,4732.26 L 8120.9,4728.45 L 8133.95,4727.17 L 8196.94,4727.17 L 8210,4728.45 L 8222.56,4732.26 L 8234.13,4738.44 L 8244.27,4746.77 L 8252.59,4756.91 L 8258.78,4768.48 L 8262.59,4781.04 L 8263.87,4794.09 L 8262.59,4807.15 L 8258.78,4819.71 L 8252.59,4831.28 L 8244.27,4841.42 L 8234.13,4849.74 L 8222.56,4855.93 L 8210,4859.74 L 8196.94,4861.02 L 8133.95,4861.02 L 8120.9,4859.74 L 8108.34,4855.93 L 8096.77,4849.74 L 8086.63,4841.42 L 8078.3,4831.28 L 8072.12,4819.71 L 8068.31,4807.15 L 8067.02,4794.09 z " style="fill-opacity:1.000000;fill:rgb(124,192,124);stroke:rgb(0,0,0);stroke-width:2"/></g>
<g fill-rule="evenodd"><path d="M 8067.02,4661.02 L 8067.02,4527.17 L 8263.87,4527.17 L 8263.87,4661.02 L 8067.02,4661.02 z " style="fill-opacity:1.000000;fill:rgb(187,34,252);stroke:rgb(0,0,0);stroke-width:2"/></g>
<g fill-rule="evenodd"><path d="M 8071.02,3464.09 L 8072.31,3451.04 L 8076.12,3438.48 L 8082.3,3426.91 L 8090.63,3416.77 L 8100.77,3408.44 L 8112.34,3402.26 L 8124.9,3398.45 L 8137.95,3397.17 L 8200.94,3397.17 L 8214,3398.45 L 8226.56,3402.26 L 8238.13,3408.44 L 8248.27,3416.77 L 8256.59,3426.91 L 8262.78,3438.48 L 8266.59,3451.04 L 8267.87,3464.09 L 8266.59,3477.15 L 8262.78,3489.71 L 8256.59,3501.28 L 8248.27,3511.42 L 8238.13,3519.74 L 8226.56,3525.93 L 8214,3529.74 L 8200.94,3531.02 L 8137.95,3531.02 L 8124.9,3529.74 L 8112.34,3525.93 L 8100.77,3519.74 L 8090.63,3511.42 L 8082.3,3501.28 L 8076.12,3489.71 L 8072.31,3477.15 L 8071.02,3464.09 z " style="fill-opacity:1.000000;fill:rgb(228,102,218);stroke:rgb(0,0,0);stroke-width:2"/></g>
<g fill-rule="evenodd"><path d="M 8071.02,3331.02 L 8071.02,3197.17 L 8267.87,3197.17 L 8267.87,3331.02 L 8071.02,3331.02 z " style="fill-opacity:1.000000;fill:rgb(97,11,99);stroke:rgb(0,0,0);stroke-width:2"/></g>
<g fill-rule="evenodd"><path d="M 8105.51,2477.48 L 8105.51,2337.32 L 8262.99,2337.32 L 8262.99,2477.48 L 8105.51,2477.48 z " style="fill-opacity:1.000000;fill:rgb(175,98,188);stroke:rgb(0,0,0);stroke-width:2"/></g>
<g fill-rule="evenodd"><path d="M 8105.51,2277.48 L 8105.51,2137.32 L 8262.99,2137.32 L 8262.99,2277.48 L 8105.51,2277.48 z " style="fill-opacity:1.000000;fill:rgb(131,180,105);stroke:rgb(0,0,0);stroke-width:2"/></g>
<g fill-rule="evenodd"><path d="M 8105.51,2077.48 L 8105.51,1937.32 L 8262.99,1937.32 L 8262.99,2077.48 L 8105.51,2077.48 z " style="fill-opacity:1.000000;fill:rgb(47,58,255);stroke:rgb(0,0,0);stroke-width:2"/></g>
<g fill-rule="evenodd"><path d="M 8855.91,2477.48 L 8855.91,2337.32 L 9013.39,2337.32 L 9013.39,2477.48 L 8855.91,2477.48 z " style="fill-opacity:1.000000;fill:rgb(175,39,22);stroke:rgb(0,0,0);stroke-width:2"/></g>
<g fill-rule="evenodd"><path d="M 8855.91,2277.48 L 8855.91,2137.32 L 9013.39,2137.32 L 9013.39,2277.48 L 8855.91,2277.48 z " style="fill-opacity:1.000000;fill:rgb(147,172,7);stroke:rgb(0,0,0);stroke-width:2"/></g>
<g fill-rule="evenodd"><path d="M 8855.91,2077.48 L 8855.91,1937.32 L 9013.39,1937.32 L 9013.39,2077.48 L 8855.91,2077.48 z " style="fill-opacity:1.000000;fill:rgb(31,184,109);stroke:rgb(0,0,0);stroke-width:2"/></g>
<g fill-rule="evenodd"><path d="M 9722.36,1336.54 L 9722.36,1163.31 L 9723.88,1147.95 L 9728.36,1133.17 L 9735.63,1119.56 L 9745.42,1107.63 L 9757.36,1097.84 L 9770.97,1090.56 L 9785.74,1086.08 L 9801.1,1084.57 L 9816.46,1086.08 L 9831.23,1090.56 L 9844.85,1097.84 L 9856.78,1107.63 L 9866.57,1119.56 L 9873.85,1133.17 L 9878.33,1147.95 L 9879.84,1163.31 L 9879.84,1336.54 L 9878.33,1351.9 L 9873.85,1366.67 L 9866.57,1380.28 L 9856.78,1392.21 L 9844.85,1402.01 L 9831.23,1409.28 L 9816.46,1413.76 L 9801.1,1415.28 L 9785.74,1413.76 L 9770.97,1409.28 L 9757.36,1402.01 L 9745.42,1392.21 L 9735.63,1380.28 L 9728.36,1366.67 L 9723.88,1351.9 L 9722.36,1336.54 z " style="fill-opacity:1.000000;fill:rgb(17,52,45);stroke:rgb(0,0,0);stroke-width:2"/></g>
<g fill-rule="evenodd"><path d="M 9916.95,5414.8 L 9919.22,5391.76 L 9925.94,5369.6 L 9936.86,5349.18 L 9951.55,5331.29 L 9969.44,5316.6 L 9989.86,5305.68 L 10012,5298.96 L 10035.1,5296.69 L 10058.1,5298.96 L 10080.3,5305.68 L 10100.7,5316.6 L 10118.6,5331.29 L 10133.3,5349.18 L 10144.2,5369.6 L 10150.9,5391.76 L 10153.2,5414.8 L 10150.9,5437.85 L 10144.2,5460 L 10133.3,5480.42 L 10118.6,5498.32 L 10100.7,5513.01 L 10080.3,5523.92 L 10058.1,5530.64 L 10035.1,5532.91 L 10012,5530.64 L 9989.86,5523.92 L 9969.44,5513.01 L 9951.55,5498.32 L 9936.86,5480.42 L 9925.94,5460 L 9919.22,5437.85 L 9916.95,5414.8 z " style="fill-opacity:1.000000;fill:rgb(141,239,79);stroke:rgb(0,0,0);stroke-width:2"/></g>
<g fill-rule="evenodd"><path d="M 9916.95,2265.2 L 9919.22,2242.15 L 9925.94,2220 L 9936.86,2199.58 L 9951.55,2181.68 L 9969.44,2166.99 L 9989.86,2156.08 L 10012,2149.36 L 10035.1,2147.09 L 10058.1,2149.36 L 10080.3,2156.08 L 10100.7,2166.99 L 10118.6,2181.68 L 10133.3,2199.58 L 10144.2,2220 L 10150.9,2242.15 L 10153.2,2265.2 L 10150.9,2288.24 L 10144.2,2310.4 L 10133.3,2330.82 L 10118.6,2348.71 L 10100.7,2363.4 L 10080.3,2374.32 L 10058.1,2381.04 L 10035.1,2383.31 L 10012,2381.04 L 9989.86,2374.32 L 9969.44,2363.4 L 9951.55,2348.71 L 9936.86,2330.82 L 9925.94,2310.4 L 9919.22,2288.24 L 9916.95,2265.2 z " style="fill-opacity:1.000000;fill:rgb(137,212,182);stroke:rgb(0,0,0);stroke-width:2"/></g>
<g fill-rule="evenodd"><path d="M 9997.95,1557.01 L 9997.95,1399.53 L 10360.2,1399.53 L 10360.2,1557.01 L 9997.95,1557.01 z " style="fill-opacity:1.000000;fill:rgb(99,53,193);stroke:rgb(0,0,0);stroke-width:2"/></g>
<g fill-rule="evenodd"><path d="M 10013.7,982.205 L 10015.2,966.843 L 10019.7,952.072 L 10027,938.459 L 10036.8,926.527 L 10048.7,916.735 L 10062.3,909.458 L 10077.1,904.978 L 10092.4,903.465 L 10265.7,903.465 L 10281,904.978 L 10295.8,909.458 L 10309.4,916.735 L 10321.3,926.527 L 10331.1,938.459 L 10338.4,952.072 L 10342.9,966.843 L 10344.4,982.205 L 10342.9,997.566 L 10338.4,1012.34 L 10331.1,1025.95 L 10321.3,1037.88 L 10309.4,1047.67 L 10295.8,1054.95 L 10281,1059.43 L 10265.7,1060.94 L 10092.4,1060.94 L 10077.1,1059.43 L 10062.3,1054.95 L 10048.7,1047.67 L 10036.8,1037.88 L 10027,1025.95 L 10019.7,1012.34 L 10015.2,997.566 L 10013.7,982.205 z " style="fill-opacity:1.000000;fill:rgb(199,228,36);stroke:rgb(0,0,0);stroke-width:2"/></g>
<g fill-rule="evenodd"><path d="M 10611.3,5764.09 L 10613.6,5741.05 L 10620.3,5718.9 L 10631.2,5698.48 L 10645.9,5680.58 L 10663.8,5665.89 L 10684.2,5654.97 L 10706.4,5648.25 L 10729.4,5645.98 L 10752.5,5648.25 L 10774.6,5654.97 L 10795.1,5665.89 L 10813,5680.58 L 10827.7,5698.48 L 10838.6,5718.9 L 10845.3,5741.05 L 10847.6,5764.09 L 10845.3,5787.14 L 10838.6,5809.29 L 10827.7,5829.71 L 10813,5847.61 L 10795.1,5862.3 L 10774.6,5873.21 L 10752.5,5879.94 L 10729.4,5882.2 L 10706.4,5879.94 L 10684.2,5873.21 L 10663.8,5862.3 L 10645.9,5847.61 L 10631.2,5829.71 L 10620.3,5809.29 L 10613.6,5787.14 L 10611.3,5764.09 z " style="fill-opacity:1.000000;fill:rgb(131,103,216);stroke:rgb(0,0,0);stroke-width:2"/></g>
<g fill-rule="evenodd"><path d="M 10611.3,1944.09 L 10613.6,1921.05 L 10620.3,1898.9 L 10631.2,1878.48 L 10645.9,1860.58 L 10663.8,1845.89 L 10684.2,1834.97 L 10706.4,1828.25 L 10729.4,1825.98 L 10752.5,1828.25 L 10774.6,1834.97 L 10795.1,1845.89 L 10813,1860.58 L 10827.7,1878.48 L 10838.6,1898.9 L 10845.3,1921.05 L 10847.6,1944.09 L 10845.3,1967.14 L 10838.6,1989.29 L 10827.7,2009.71 L 10813,2027.61 L 10795.1,2042.3 L 10774.6,2053.21 L 10752.5,2059.94 L 10729.4,2062.2 L 10706.4,2059.94 L 10684.2,2053.21 L 10663.8,2042.3 L 10645.9,2027.61 L 10631.2,2009.71 L 10620.3,1989.29 L 10613.6,1967.14 L 10611.3,1944.09 z " style="fill-opacity:1.000000;fill:rgb(237,150,18);stroke:rgb(0,0,0);stroke-width:2"/></g>
<g fill-rule="evenodd"><path d="M 10694.8,1336.54 L 10694.8,1163.31 L 10696.3,1147.95 L 10700.8,1133.17 L 10708.1,1119.56 L 10717.9,1107.63 L 10729.8,1097.84 L 10743.4,1090.56 L 10758.2,1086.08 L 10773.5,1084.57 L 10788.9,1086.08 L 10803.7,1090.56 L 10817.3,1097.84 L 10829.2,1107.63 L 10839,1119.56 L 10846.3,1133.17 L 10850.8,1147.95 L 10852.3,1163.31 L 10852.3,1336.54 L 10850.8,1351.9 L 10846.3,1366.67 L 10839,1380.28 L 10829.2,1392.21 L 10817.3,1402.01 L 10803.7,1409.28 L 10788.9,1413.76 L 10773.5,1415.28 L 10758.2,1413.76 L 10743.4,1409.28 L 10729.8,1402.01 L 10717.9,1392.21 L 10708.1,1380.28 L 10700.8,1366.67 L 10696.3,1351.9 L 10694.8,1336.54 z " style="fill-opacity:1.000000;fill:rgb(236,69,57);stroke:rgb(0,0,0);stroke-width:2"/></g>
<g fill-rule="evenodd"><path d="M 10851.3,5764.09 L 10853.6,5741.05 L 10860.3,5718.9 L 10871.2,5698.48 L 10885.9,5680.58 L 10903.8,5665.89 L 10924.2,5654.97 L 10946.4,5648.25 L 10969.4,5645.98 L 10992.5,5648.25 L 11014.6,5654.97 L 11035.1,5665.89 L 11053,5680.58 L 11067.7,5698.48 L 11078.6,5718.9 L 11085.3,5741.05 L 11087.6,5764.09 L 11085.3,5787.14 L 11078.6,5809.29 L 11067.7,5829.71 L 11053,5847.61 L 11035.1,5862.3 L 11014.6,5873.21 L 10992.5,5879.94 L 10969.4,5882.2 L 10946.4,5879.94 L 10924.2,5873.21 L 10903.8,5862.3 L 10885.9,5847.61 L 10871.2,5829.71 L 10860.3,5809.29 L 10853.6,5787.14 L 10851.3,5764.09 z " style="fill-opacity:1.000000;fill:rgb(2,216,229);stroke:rgb(0,0,0);stroke-width:2"/></g>
<g fill-rule="evenodd"><path d="M 10851.3,1944.09 L 10853.6,1921.05 L 10860.3,1898.9 L 10871.2,1878.48 L 10885.9,1860.58 L 10903.8,1845.89 L 10924.2,1834.97 L 10946.4,1828.25 L 10969.4,1825.98 L 10992.5,1828.25 L 11014.6,1834.97 L 11035.1,1845.89 L 11053,1860.58 L 11067.7,1878.48 L 11078.6,1898.9 L 11085.3,1921.05 L 11087.6,1944.09 L 11085.3,1967.14 L 11078.6,1989.29 L 11067.7,2009.71 L 11053,2027.61 L 11035.1,2042.3 L 11014.6,2053.21 L 10992.5,2059.94 L 10969.4,2062.2 L 10946.4,2059.94 L 10924.2,2053.21 L 10903.8,2042.3 L 10885.9,2027.61 L 10871.2,2009.71 L 10860.3,1989.29 L 10853.6,1967.14 L 10851.3,1944.09 z " style="fill-opacity:1.000000;fill:rgb(10,248,157);stroke:rgb(0,0,0);stroke-width:2"/></g>
<g fill-rule="evenodd"><path d="M 10970.4,1557.01 L 10970.4,1399.53 L 11332.6,1399.53 L 11332.6,1557.01 L 10970.4,1557.01 z " style="fill-opacity:1.000000;fill:rgb(119,9,209);stroke:rgb(0,0,0);stroke-width:2"/></g>
<g fill-rule="evenodd"><path d="M 10986.1,982.205 L 10987.7,966.843 L 10992.1,952.072 L 10999.4,938.459 L 11009.2,926.527 L 11021.1,916.735 L 11034.7,909.458 L 11049.5,904.978 L 11064.9,903.465 L 11238.1,903.465 L 11253.5,904.978 L 11268.2,909.458 L 11281.9,916.735 L 11293.8,926.527 L 11303.6,938.459 L 11310.9,952.072 L 11315.3,966.843 L 11316.9,982.205 L 11315.3,997.566 L 11310.9,1012.34 L 11303.6,1025.95 L 11293.8,1037.88 L 11281.9,1047.67 L 11268.2,1054.95 L 11253.5,1059.43 L 11238.1,1060.94 L 11064.9,1060.94 L 11049.5,1059.43 L 11034.7,1054.95 L 11021.1,1047.67 L 11009.2,1037.88 L 10999.4,1025.95 L 10992.1,1012.34 L 10987.7,997.566 L 10986.1,982.205 z " style="fill-opacity:1.000000;fill:rgb(165,150,193);stroke:rgb(0,0,0);stroke-width:2"/></g>
<g fill-rule="evenodd"><path d="M 11255.5,5414.8 L 11257.8,5391.76 L 11264.5,5369.6 L 11275.4,5349.18 L 11290.1,5331.29 L 11308,5316.6 L 11328.4,5305.68 L 11350.6,5298.96 L 11373.6,5296.69 L 11396.7,5298.96 L 11418.8,5305.68 L 11439.3,5316.6 L 11457.2,5331.29 L 11471.9,5349.18 L 11482.8,5369.6 L 11489.5,5391.76 L 11491.8,5414.8 L 11489.5,5437.85 L 11482.8,5460 L 11471.9,5480.42 L 11457.2,5498.32 L 11439.3,5513.01 L 11418.8,5523.92 L 11396.7,5530.64 L 11373.6,5532.91 L 11350.6,5530.64 L 11328.4,5523.92 L 11308,5513.01 L 11290.1,5498.32 L 11275.4,5480.42 L 11264.5,5460 L 11257.8,5437.85 L 11255.5,5414.8 z " style="fill-opacity:1.000000;fill:rgb(244,31,149);stroke:rgb(0,0,0);stroke-width:2"/></g>
<g fill-rule="evenodd"><path d="M 11255.5,2265.2 L 11257.8,2242.15 L 11264.5,2220 L 11275.4,2199.58 L 11290.1,2181.68 L 11308,2166.99 L 11328.4,2156.08 L 11350.6,2149.36 L 11373.6,2147.09 L 11396.7,2149.36 L 11418.8,2156.08 L 11439.3,2166.99 L 11457.2,2181.68 L 11471.9,2199.58 L 11482.8,2220 L 11489.5,2242.15 L 11491.8,2265.2 L 11489.5,2288.24 L 11482.8,2310.4 L 11471.9,2330.82 L 11457.2,2348.71 L 11439.3,2363.4 L 11418.8,2374.32 L 11396.7,2381.04 L 11373.6,2383.31 L 11350.6,2381.04 L 11328.4,2374.32 L 11308,2363.4 L 11290.1,2348.71 L 11275.4,2330.82 L 11264.5,2310.4 L 11257.8,2288.24 L 11255.5,2265.2 z " style="fill-opacity:1.000000;fill:rgb(170,130,202);stroke:rgb(0,0,0);stroke-width:2"/></g>
</svg>
