<?xml version="1.0" standalone="no"?>
<!DOCTYPE svg PUBLIC "-//W3C//DTD SVG 1.1//EN"
"http://www.w3.org/Graphics/SVG/1.1/DTD/svg11.dtd">
<svg width="582.803" height="306.898" viewBox="0 0 12141.7 6393.7" version="1.1"
xmlns="http://www.w3.org/2000/svg"
xmlns:xlink="http://www.w3.org/1999/xlink">
<g fill-rule="evenodd"><path d="M 552.283,5645.35 L 554.175,5626.15 L 559.776,5607.69 L 568.871,5590.67 L 581.112,5575.76 L 596.027,5563.52 L 613.043,5554.42 L 631.507,5548.82 L 650.709,5546.93 L 669.91,5548.82 L 688.374,5554.42 L 705.391,5563.52 L 720.306,5575.76 L 732.546,5590.67 L 741.642,5607.69 L 747.243,5626.15 L 749.134,5645.35 L 747.243,5664.56 L 741.642,5683.02 L 732.546,5700.04 L 720.306,5714.95 L 705.391,5727.19 L 688.374,5736.29 L 669.91,5741.89 L 650.709,5743.78 L 631.507,5741.89 L 613.043,5736.29 L 596.027,5727.19 L 581.112,5714.95 L 568.871,5700.04 L 559.776,5683.02 L 554.175,5664.56 L 552.283,5645.35 z " style="fill-opacity:1.000000;fill:rgb(103,198,105);stroke:rgb(0,0,0);stroke-width:2"/></g>
<g fill-rule="evenodd"><path d="M 872.283,5672.28 L 872.283,5538.43 L 1069.13,5538.43 L 1069.13,5672.28 L 872.283,5672.28 z " style="fill-opacity:1.000000;fill:rgb(115,81,255);stroke:rgb(0,0,0);stroke-width:2"/></g>
<g fill-rule="evenodd"><path d="M 872.283,5405.35 L 873.569,5392.3 L 877.378,5379.74 L 883.563,5368.17 L 891.887,5358.03 L 902.029,5349.7 L 913.6,5343.52 L 926.155,5339.71 L 939.213,5338.43 L 1002.2,5338.43 L 1015.26,5339.71 L 1027.82,5343.52 L 1039.39,5349.7 L 1049.53,5358.03 L 1057.85,5368.17 L 1064.04,5379.74 L 1067.85,5392.3 L 1069.13,5405.35 L 1067.85,5418.41 L 1064.04,5430.97 L 1057.85,5442.54 L 1049.53,5452.68 L 1039.39,5461 L 1027.82,5467.19 L 1015.26,5471 L 1002.2,5472.28 L 939.213,5472.28 L 926.155,5471 L 913.6,5467.19 L 902.029,5461 L 891.887,5452.68 L 883.563,5442.54 L 877.378,5430.97 L 873.569,5418.41 L 872.283,5405.35 z " style="fill-opacity:1.000000;fill:rgb(74,236,41);stroke:rgb(0,0,0);stroke-width:2"/></g>
<g fill-rule="evenodd"><path d="M 872.283,5205.35 L 873.569,5192.3 L 877.378,5179.74 L 883.563,5168.17 L 891.887,5158.03 L 902.029,5149.7 L 913.6,5143.52 L 926.155,5139.71 L 939.213,5138.43 L 1002.2,5138.43 L 1015.26,5139.71 L 1027.82,5143.52 L 1039.39,5149.7 L 1049.53,5158.03 L 1057.85,5168.17 L 1064.04,5179.74 L 1067.85,5192.3 L 1069.13,5205.35 L 1067.85,5218.41 L 1064.04,5230.97 L 1057.85,5242.54 L 1049.53,5252.68 L 1039.39,5261 L 1027.82,5267.19 L 1015.26,5271 L 1002.2,5272.28 L 939.213,5272.28 L 926.155,5271 L 913.6,5267.19 L 902.029,5261 L 891.887,5252.68 L 883.563,5242.54 L 877.378,5230.97 L 873.569,5218.41 L 872.283,5205.35 z " style="fill-opacity:1.000000;fill:rgb(205,186,171);stroke:rgb(0,0,0);stroke-width:2"/></g>
<g fill-rule="evenodd"><path d="M 872.283,3815.35 L 874.175,3796.15 L 879.776,3777.69 L 888.871,3760.67 L 901.112,3745.76 L 916.027,3733.52 L 933.043,3724.42 L 951.507,3718.82 L 970.709,3716.93 L 989.91,3718.82 L 1008.37,3724.42 L 1025.39,3733.52 L 1040.31,3745.76 L 1052.55,3760.67 L 1061.64,3777.69 L 1067.24,3796.15 L 1069.13,3815.35 L 1067.24,3834.56 L 1061.64,3853.02 L 1052.55,3870.04 L 1040.31,3884.95 L 1025.39,3897.19 L 1008.37,3906.29 L 989.91,3911.89 L 970.709,3913.78 L 951.507,3911.89 L 933.043,3906.29 L 916.027,3897.19 L 901.112,3884.95 L 888.871,3870.04 L 879.776,3853.02 L 874.175,3834.56 L 872.283,3815.35 z " style="fill-opacity:1.000000;fill:rgb(242,251,227);stroke:rgb(0,0,0);stroke-width:2"/></g>
<g fill-rule="evenodd"><path d="M 872.283,3632.28 L 872.283,3498.43 L 1069.13,3498.43 L 1069.13,3632.28 L 872.283,3632.28 z " style="fill-opacity:1.000000;fill:rgb(70,124,194);stroke:rgb(0,0,0);stroke-width:2"/></g>
<g fill-rule="evenodd"><path d="M 872.283,3365.35 L 873.569,3352.3 L 877.378,3339.74 L 883.563,3328.17 L 891.887,3318.03 L 902.029,3309.7 L 913.6,3303.52 L 926.155,3299.71 L 939.213,3298.43 L 1002.2,3298.43 L 1015.26,3299.71 L 1027.82,3303.52 L 1039.39,3309.7 L 1049.53,3318.03 L 1057.85,3328.17 L 1064.04,3339.74 L 1067.85,3352.3 L 1069.13,3365.35 L 1067.85,3378.41 L 1064.04,3390.97 L 1057.85,3402.54 L 1049.53,3412.68 L 1039.39,3421 L 1027.82,3427.19 L 1015.26,3431 L 1002.2,3432.28 L 939.213,3432.28 L 926.155,3431 L 913.6,3427.19 L 902.029,3421 L 891.887,3412.68 L 883.563,3402.54 L 877.378,3390.97 L 873.569,3378.41 L 872.283,3365.35 z " style="fill-opacity:1.000000;fill:rgb(84,248,27);stroke:rgb(0,0,0);stroke-width:2"/></g>
<g fill-rule="evenodd"><path d="M 872.283,3165.35 L 873.569,3152.3 L 877.378,3139.74 L 883.563,3128.17 L 891.887,3118.03 L 902.029,3109.7 L 913.6,3103.52 L 926.155,3099.71 L 939.213,3098.43 L 1002.2,3098.43 L 1015.26,3099.71 L 1027.82,3103.52 L 1039.39,3109.7 L 1049.53,3118.03 L 1057.85,3128.17 L 1064.04,3139.74 L 1067.85,3152.3 L 1069.13,3165.35 L 1067.85,3178.41 L 1064.04,3190.97 L 1057.85,3202.54 L 1049.53,3212.68 L 1039.39,3221 L 1027.82,3227.19 L 1015.26,3231 L 1002.2,3232.28 L 939.213,3232.28 L 926.155,3231 L 913.6,3227.19 L 902.029,3221 L 891.887,3212.68 L 883.563,3202.54 L 877.378,3190.97 L 873.569,3178.41 L 872.283,3165.35 z " style="fill-opacity:1.000000;fill:rgb(232,231,141);stroke:rgb(0,0,0);stroke-width:2"/></g>
<g fill-rule="evenodd"><path d="M 872.283,2965.35 L 873.569,2952.3 L 877.378,2939.74 L 883.563,2928.17 L 891.887,2918.03 L 902.029,2909.7 L 913.6,2903.52 L 926.155,2899.71 L 939.213,2898.43 L 1002.2,2898.43 L 1015.26,2899.71 L 1027.82,2903.52 L 1039.39,2909.7 L 1049.53,2918.03 L 1057.85,2928.17 L 1064.04,2939.74 L 1067.85,2952.3 L 1069.13,2965.35 L 1067.85,2978.41 L 1064.04,2990.97 L 1057.85,3002.54 L 1049.53,3012.68 L 1039.39,3021 L 1027.82,3027.19 L 1015.26,3031 L 1002.2,3032.28 L 939.213,3032.28 L 926.155,3031 L 913.6,3027.19 L 902.029,3021 L 891.887,3012.68 L 883.563,3002.54 L 877.378,2990.97 L 873.569,2978.41 L 872.283,2965.35 z " style="fill-opacity:1.000000;fill:rgb(118,90,46);stroke:rgb(0,0,0);stroke-width:2"/></g>
<g fill-rule="evenodd"><path d="M 872.283,1342.28 L 872.283,1208.43 L 1069.13,1208.43 L 1069.13,1342.28 L 872.283,1342.28 z " style="fill-opacity:1.000000;fill:rgb(99,51,159);stroke:rgb(0,0,0);stroke-width:2"/></g>
<g fill-rule="evenodd"><path d="M 872.283,1075.35 L 873.569,1062.3 L 877.378,1049.74 L 883.563,1038.17 L 891.887,1028.03 L 902.029,1019.7 L 913.6,1013.52 L 926.155,1009.71 L 939.213,1008.43 L 1002.2,1008.43 L 1015.26,1009.71 L 1027.82,1013.52 L 1039.39,1019.7 L 1049.53,1028.03 L 1057.85,1038.17 L 1064.04,1049.74 L 1067.85,1062.3 L 1069.13,1075.35 L 1067.85,1088.41 L 1064.04,1100.97 L 1057.85,1112.54 L 1049.53,1122.68 L 1039.39,1131 L 1027.82,1137.19 L 1015.26,1141 L 1002.2,1142.28 L 939.213,1142.28 L 926.155,1141 L 913.6,1137.19 L 902.029,1131 L 891.887,1122.68 L 883.563,1112.54 L 877.378,1100.97 L 873.569,1088.41 L 872.283,1075.35 z " style="fill-opacity:1.000000;fill:rgb(201,154,102);stroke:rgb(0,0,0);stroke-width:2"/></g>
<g fill-rule="evenodd"><path d="M 872.283,875.354 L 873.569,862.297 L 877.378,849.742 L 883.563,838.17 L 891.887,828.028 L 902.029,819.705 L 913.6,813.52 L 926.155,809.711 L 939.213,808.425 L 1002.2,808.425 L 1015.26,809.711 L 1027.82,813.52 L 1039.39,819.705 L 1049.53,828.028 L 1057.85,838.17 L 1064.04,849.742 L 1067.85,862.297 L 1069.13,875.354 L 1067.85,888.412 L 1064.04,900.967 L 1057.85,912.538 L 1049.53,922.68 L 1039.39,931.004 L 1027.82,937.189 L 1015.26,940.997 L 1002.2,942.283 L 939.213,942.283 L 926.155,940.997 L 913.6,937.189 L 902.029,931.004 L 891.887,922.68 L 883.563,912.538 L 877.378,900.967 L 873.569,888.412 L 872.283,875.354 z " style="fill-opacity:1.000000;fill:rgb(50,13,183);stroke:rgb(0,0,0);stroke-width:2"/></g>
<g fill-rule="evenodd"><path d="M 872.283,675.354 L 873.569,662.297 L 877.378,649.742 L 883.563,638.17 L 891.887,628.028 L 902.029,619.705 L 913.6,613.52 L 926.155,609.711 L 939.213,608.425 L 1002.2,608.425 L 1015.26,609.711 L 1027.82,613.52 L 1039.39,619.705 L 1049.53,628.028 L 1057.85,638.17 L 1064.04,649.742 L 1067.85,662.297 L 1069.13,675.354 L 1067.85,688.412 L 1064.04,700.967 L 1057.85,712.538 L 1049.53,722.68 L 1039.39,731.004 L 1027.82,737.189 L 1015.26,740.997 L 1002.2,742.283 L 939.213,742.283 L 926.155,740.997 L 913.6,737.189 L 902.029,731.004 L 891.887,722.68 L 883.563,712.538 L 877.378,700.967 L 873.569,688.412 L 872.283,675.354 z " style="fill-opacity:1.000000;fill:rgb(49,88,163);stroke:rgb(0,0,0);stroke-width:2"/></g>
<g fill-rule="evenodd"><path d="M 892.283,4522.28 L 892.283,4388.43 L 1089.13,4388.43 L 1089.13,4522.28 L 892.283,4522.28 z " style="fill-opacity:1.000000;fill:rgb(90,37,93);stroke:rgb(0,0,0);stroke-width:2"/></g>
<g fill-rule="evenodd"><path d="M 892.283,4255.35 L 893.569,4242.3 L 897.378,4229.74 L 903.563,4218.17 L 911.887,4208.03 L 922.029,4199.7 L 933.6,4193.52 L 946.155,4189.71 L 959.213,4188.43 L 1022.2,4188.43 L 1035.26,4189.71 L 1047.82,4193.52 L 1059.39,4199.7 L 1069.53,4208.03 L 1077.85,4218.17 L 1084.04,4229.74 L 1087.85,4242.3 L 1089.13,4255.35 L 1087.85,4268.41 L 1084.04,4280.97 L 1077.85,4292.54 L 1069.53,4302.68 L 1059.39,4311 L 1047.82,4317.19 L 1035.26,4321 L 1022.2,4322.28 L 959.213,4322.28 L 946.155,4321 L 933.6,4317.19 L 922.029,4311 L 911.887,4302.68 L 903.563,4292.54 L 897.378,4280.97 L 893.569,4268.41 L 892.283,4255.35 z " style="fill-opacity:1.000000;fill:rgb(5,23,88);stroke:rgb(0,0,0);stroke-width:2"/></g>
<g fill-rule="evenodd"><path d="M 972.598,2165.35 L 974.868,2142.31 L 981.589,2120.16 L 992.504,2099.74 L 1007.19,2081.84 L 1025.09,2067.15 L 1045.51,2056.23 L 1067.67,2049.51 L 1090.71,2047.24 L 1113.75,2049.51 L 1135.91,2056.23 L 1156.33,2067.15 L 1174.23,2081.84 L 1188.91,2099.74 L 1199.83,2120.16 L 1206.55,2142.31 L 1208.82,2165.35 L 1206.55,2188.4 L 1199.83,2210.55 L 1188.91,2230.97 L 1174.23,2248.87 L 1156.33,2263.56 L 1135.91,2274.47 L 1113.75,2281.2 L 1090.71,2283.46 L 1067.67,2281.2 L 1045.51,2274.47 L 1025.09,2263.56 L 1007.19,2248.87 L 992.504,2230.97 L 981.589,2210.55 L 974.868,2188.4 L 972.598,2165.35 z " style="fill-opacity:1.000000;fill:rgb(233,94,212);stroke:rgb(0,0,0);stroke-width:2"/></g>
<g fill-rule="evenodd"><path d="M 992.283,2465.35 L 994.175,2446.15 L 999.776,2427.69 L 1008.87,2410.67 L 1021.11,2395.76 L 1036.03,2383.52 L 1053.04,2374.42 L 1071.51,2368.82 L 1090.71,2366.93 L 1109.91,2368.82 L 1128.37,2374.42 L 1145.39,2383.52 L 1160.31,2395.76 L 1172.55,2410.67 L 1181.64,2427.69 L 1187.24,2446.15 L 1189.13,2465.35 L 1187.24,2484.56 L 1181.64,2503.02 L 1172.55,2520.04 L 1160.31,2534.95 L 1145.39,2547.19 L 1128.37,2556.29 L 1109.91,2561.89 L 1090.71,2563.78 L 1071.51,2561.89 L 1053.04,2556.29 L 1036.03,2547.19 L 1021.11,2534.95 L 1008.87,2520.04 L 999.776,2503.02 L 994.175,2484.56 L 992.283,2465.35 z " style="fill-opacity:1.000000;fill:rgb(171,178,205);stroke:rgb(0,0,0);stroke-width:2"/></g>
<g fill-rule="evenodd"><path d="M 1192.28,5672.28 L 1192.28,5538.43 L 1389.13,5538.43 L 1389.13,5672.28 L 1192.28,5672.28 z " style="fill-opacity:1.000000;fill:rgb(198,155,180);stroke:rgb(0,0,0);stroke-width:2"/></g>
<g fill-rule="evenodd"><path d="M 1192.28,5405.35 L 1193.57,5392.3 L 1197.38,5379.74 L 1203.56,5368.17 L 1211.89,5358.03 L 1222.03,5349.7 L 1233.6,5343.52 L 1246.16,5339.71 L 1259.21,5338.43 L 1322.2,5338.43 L 1335.26,5339.71 L 1347.82,5343.52 L 1359.39,5349.7 L 1369.53,5358.03 L 1377.85,5368.17 L 1384.04,5379.74 L 1387.85,5392.3 L 1389.13,5405.35 L 1387.85,5418.41 L 1384.04,5430.97 L 1377.85,5442.54 L 1369.53,5452.68 L 1359.39,5461 L 1347.82,5467.19 L 1335.26,5471 L 1322.2,5472.28 L 1259.21,5472.28 L 1246.16,5471 L 1233.6,5467.19 L 1222.03,5461 L 1211.89,5452.68 L 1203.56,5442.54 L 1197.38,5430.97 L 1193.57,5418.41 L 1192.28,5405.35 z " style="fill-opacity:1.000000;fill:rgb(84,17,14);stroke:rgb(0,0,0);stroke-width:2"/></g>
<g fill-rule="evenodd"><path d="M 1192.28,5205.35 L 1193.57,5192.3 L 1197.38,5179.74 L 1203.56,5168.17 L 1211.89,5158.03 L 1222.03,5149.7 L 1233.6,5143.52 L 1246.16,5139.71 L 1259.21,5138.43 L 1322.2,5138.43 L 1335.26,5139.71 L 1347.82,5143.52 L 1359.39,5149.7 L 1369.53,5158.03 L 1377.85,5168.17 L 1384.04,5179.74 L 1387.85,5192.3 L 1389.13,5205.35 L 1387.85,5218.41 L 1384.04,5230.97 L 1377.85,5242.54 L 1369.53,5252.68 L 1359.39,5261 L 1347.82,5267.19 L 1335.26,5271 L 1322.2,5272.28 L 1259.21,5272.28 L 1246.16,5271 L 1233.6,5267.19 L 1222.03,5261 L 1211.89,5252.68 L 1203.56,5242.54 L 1197.38,5230.97 L 1193.57,5218.41 L 1192.28,5205.35 z " style="fill-opacity:1.000000;fill:rgb(130,116,65);stroke:rgb(0,0,0);stroke-width:2"/></g>
<g fill-rule="evenodd"><path d="M 1283.78,2856.85 L 1283.78,2793.86 L 1285.07,2780.8 L 1288.87,2768.25 L 1295.06,2756.67 L 1303.38,2746.53 L 1313.52,2738.21 L 1325.1,2732.02 L 1337.65,2728.22 L 1350.71,2726.93 L 1363.77,2728.22 L 1376.32,2732.02 L 1387.89,2738.21 L 1398.03,2746.53 L 1406.36,2756.67 L 1412.54,2768.25 L 1416.35,2780.8 L 1417.64,2793.86 L 1417.64,2856.85 L 1416.35,2869.91 L 1412.54,2882.46 L 1406.36,2894.03 L 1398.03,2904.18 L 1387.89,2912.5 L 1376.32,2918.68 L 1363.77,2922.49 L 1350.71,2923.78 L 1337.65,2922.49 L 1325.1,2918.68 L 1313.52,2912.5 L 1303.38,2904.18 L 1295.06,2894.03 L 1288.87,2882.46 L 1285.07,2869.91 L 1283.78,2856.85 z " style="fill-opacity:1.000000;fill:rgb(33,61,220);stroke:rgb(0,0,0);stroke-width:2"/></g>
<g fill-rule="evenodd"><path d="M 1283.78,516.85 L 1283.78,453.858 L 1285.07,440.801 L 1288.87,428.246 L 1295.06,416.674 L 1303.38,406.532 L 1313.52,398.209 L 1325.1,392.024 L 1337.65,388.215 L 1350.71,386.929 L 1363.77,388.215 L 1376.32,392.024 L 1387.89,398.209 L 1398.03,406.532 L 1406.36,416.674 L 1412.54,428.246 L 1416.35,440.801 L 1417.64,453.858 L 1417.64,516.85 L 1416.35,529.908 L 1412.54,542.463 L 1406.36,554.034 L 1398.03,564.176 L 1387.89,572.5 L 1376.32,578.685 L 1363.77,582.494 L 1350.71,583.78 L 1337.65,582.494 L 1325.1,578.685 L 1313.52,572.5 L 1303.38,564.176 L 1295.06,554.034 L 1288.87,542.463 L 1285.07,529.908 L 1283.78,516.85 z " style="fill-opacity:1.000000;fill:rgb(135,112,233);stroke:rgb(0,0,0);stroke-width:2"/></g>
<g fill-rule="evenodd"><path d="M 1288.5,3852.13 L 1288.5,3789.13 L 1289.79,3776.08 L 1293.6,3763.52 L 1299.78,3751.95 L 1308.11,3741.81 L 1318.25,3733.48 L 1329.82,3727.3 L 1342.38,3723.49 L 1355.43,3722.2 L 1368.49,3723.49 L 1381.05,3727.3 L 1392.62,3733.48 L 1402.76,3741.81 L 1411.08,3751.95 L 1417.27,3763.52 L 1421.08,3776.08 L 1422.36,3789.13 L 1422.36,3852.13 L 1421.08,3865.18 L 1417.27,3877.74 L 1411.08,3889.31 L 1402.76,3899.45 L 1392.62,3907.78 L 1381.05,3913.96 L 1368.49,3917.77 L 1355.43,3919.06 L 1342.38,3917.77 L 1329.82,3913.96 L 1318.25,3907.78 L 1308.11,3899.45 L 1299.78,3889.31 L 1293.6,3877.74 L 1289.79,3865.18 L 1288.5,3852.13 z " style="fill-opacity:1.000000;fill:rgb(62,161,65);stroke:rgb(0,0,0);stroke-width:2"/></g>
<g fill-rule="evenodd"><path d="M 1288.5,1579.06 L 1288.5,1382.2 L 1422.36,1382.2 L 1422.36,1579.06 L 1288.5,1579.06 z " style="fill-opacity:1.000000;fill:rgb(225,252,103);stroke:rgb(0,0,0);stroke-width:2"/></g>
<g fill-rule="evenodd"><path d="M 1403.78,2496.85 L 1403.78,2433.86 L 1405.07,2420.8 L 1408.87,2408.25 L 1415.06,2396.67 L 1423.38,2386.53 L 1433.52,2378.21 L 1445.1,2372.02 L 1457.65,2368.22 L 1470.71,2366.93 L 1483.77,2368.22 L 1496.32,2372.02 L 1507.89,2378.21 L 1518.03,2386.53 L 1526.36,2396.67 L 1532.54,2408.25 L 1536.35,2420.8 L 1537.64,2433.86 L 1537.64,2496.85 L 1536.35,2509.91 L 1532.54,2522.46 L 1526.36,2534.03 L 1518.03,2544.18 L 1507.89,2552.5 L 1496.32,2558.68 L 1483.77,2562.49 L 1470.71,2563.78 L 1457.65,2562.49 L 1445.1,2558.68 L 1433.52,2552.5 L 1423.38,2544.18 L 1415.06,2534.03 L 1408.87,2522.46 L 1405.07,2509.91 L 1403.78,2496.85 z " style="fill-opacity:1.000000;fill:rgb(62,1,126);stroke:rgb(0,0,0);stroke-width:2"/></g>
<g fill-rule="evenodd"><path d="M 1403.78,2196.85 L 1403.78,2133.86 L 1405.07,2120.8 L 1408.87,2108.25 L 1415.06,2096.67 L 1423.38,2086.53 L 1433.52,2078.21 L 1445.1,2072.02 L 1457.65,2068.22 L 1470.71,2066.93 L 1483.77,2068.22 L 1496.32,2072.02 L 1507.89,2078.21 L 1518.03,2086.53 L 1526.36,2096.67 L 1532.54,2108.25 L 1536.35,2120.8 L 1537.64,2133.86 L 1537.64,2196.85 L 1536.35,2209.91 L 1532.54,2222.46 L 1526.36,2234.03 L 1518.03,2244.18 L 1507.89,2252.5 L 1496.32,2258.68 L 1483.77,2262.49 L 1470.71,2263.78 L 1457.65,2262.49 L 1445.1,2258.68 L 1433.52,2252.5 L 1423.38,2244.18 L 1415.06,2234.03 L 1408.87,2222.46 L 1405.07,2209.91 L 1403.78,2196.85 z " style="fill-opacity:1.000000;fill:rgb(151,234,220);stroke:rgb(0,0,0);stroke-width:2"/></g>
<g fill-rule="evenodd"><path d="M 1403.78,1896.85 L 1403.78,1833.86 L 1405.07,1820.8 L 1408.87,1808.25 L 1415.06,1796.67 L 1423.38,1786.53 L 1433.52,1778.21 L 1445.1,1772.02 L 1457.65,1768.22 L 1470.71,1766.93 L 1483.77,1768.22 L 1496.32,1772.02 L 1507.89,1778.21 L 1518.03,1786.53 L 1526.36,1796.67 L 1532.54,1808.25 L 1536.35,1820.8 L 1537.64,1833.86 L 1537.64,1896.85 L 1536.35,1909.91 L 1532.54,1922.46 L 1526.36,1934.03 L 1518.03,1944.18 L 1507.89,1952.5 L 1496.32,1958.68 L 1483.77,1962.49 L 1470.71,1963.78 L 1457.65,1962.49 L 1445.1,1958.68 L 1433.52,1952.5 L 1423.38,1944.18 L 1415.06,1934.03 L 1408.87,1922.46 L 1405.07,1909.91 L 1403.78,1896.85 z " style="fill-opacity:1.000000;fill:rgb(107,150,143);stroke:rgb(0,0,0);stroke-width:2"/></g>
<g fill-rule="evenodd"><path d="M 1483.78,2856.85 L 1483.78,2793.86 L 1485.07,2780.8 L 1488.87,2768.25 L 1495.06,2756.67 L 1503.38,2746.53 L 1513.52,2738.21 L 1525.1,2732.02 L 1537.65,2728.22 L 1550.71,2726.93 L 1563.77,2728.22 L 1576.32,2732.02 L 1587.89,2738.21 L 1598.03,2746.53 L 1606.36,2756.67 L 1612.54,2768.25 L 1616.35,2780.8 L 1617.64,2793.86 L 1617.64,2856.85 L 1616.35,2869.91 L 1612.54,2882.46 L 1606.36,2894.03 L 1598.03,2904.18 L 1587.89,2912.5 L 1576.32,2918.68 L 1563.77,2922.49 L 1550.71,2923.78 L 1537.65,2922.49 L 1525.1,2918.68 L 1513.52,2912.5 L 1503.38,2904.18 L 1495.06,2894.03 L 1488.87,2882.46 L 1485.07,2869.91 L 1483.78,2856.85 z " style="fill-opacity:1.000000;fill:rgb(56,92,42);stroke:rgb(0,0,0);stroke-width:2"/></g>
<g fill-rule="evenodd"><path d="M 1483.78,516.85 L 1483.78,453.858 L 1485.07,440.801 L 1488.87,428.246 L 1495.06,416.674 L 1503.38,406.532 L 1513.52,398.209 L 1525.1,392.024 L 1537.65,388.215 L 1550.71,386.929 L 1563.77,388.215 L 1576.32,392.024 L 1587.89,398.209 L 1598.03,406.532 L 1606.36,416.674 L 1612.54,428.246 L 1616.35,440.801 L 1617.64,453.858 L 1617.64,516.85 L 1616.35,529.908 L 1612.54,542.463 L 1606.36,554.034 L 1598.03,564.176 L 1587.89,572.5 L 1576.32,578.685 L 1563.77,582.494 L 1550.71,583.78 L 1537.65,582.494 L 1525.1,578.685 L 1513.52,572.5 L 1503.38,564.176 L 1495.06,554.034 L 1488.87,542.463 L 1485.07,529.908 L 1483.78,516.85 z " style="fill-opacity:1.000000;fill:rgb(236,176,59);stroke:rgb(0,0,0);stroke-width:2"/></g>
<g fill-rule="evenodd"><path d="M 1488.5,3852.13 L 1488.5,3789.13 L 1489.79,3776.08 L 1493.6,3763.52 L 1499.78,3751.95 L 1508.11,3741.81 L 1518.25,3733.48 L 1529.82,3727.3 L 1542.38,3723.49 L 1555.43,3722.2 L 1568.49,3723.49 L 1581.05,3727.3 L 1592.62,3733.48 L 1602.76,3741.81 L 1611.08,3751.95 L 1617.27,3763.52 L 1621.08,3776.08 L 1622.36,3789.13 L 1622.36,3852.13 L 1621.08,3865.18 L 1617.27,3877.74 L 1611.08,3889.31 L 1602.76,3899.45 L 1592.62,3907.78 L 1581.05,3913.96 L 1568.49,3917.77 L 1555.43,3919.06 L 1542.38,3917.77 L 1529.82,3913.96 L 1518.25,3907.78 L 1508.11,3899.45 L 1499.78,3889.31 L 1493.6,3877.74 L 1489.79,3865.18 L 1488.5,3852.13 z " style="fill-opacity:1.000000;fill:rgb(251,50,175);stroke:rgb(0,0,0);stroke-width:2"/></g>
<g fill-rule="evenodd"><path d="M 1488.5,1512.13 L 1488.5,1449.13 L 1489.79,1436.08 L 1493.6,1423.52 L 1499.78,1411.95 L 1508.11,1401.81 L 1518.25,1393.48 L 1529.82,1387.3 L 1542.38,1383.49 L 1555.43,1382.2 L 1568.49,1383.49 L 1581.05,1387.3 L 1592.62,1393.48 L 1602.76,1401.81 L 1611.08,1411.95 L 1617.27,1423.52 L 1621.08,1436.08 L 1622.36,1449.13 L 1622.36,1512.13 L 1621.08,1525.18 L 1617.27,1537.74 L 1611.08,1549.31 L 1602.76,1559.45 L 1592.62,1567.78 L 1581.05,1573.96 L 1568.49,1577.77 L 1555.43,1579.06 L 1542.38,1577.77 L 1529.82,1573.96 L 1518.25,1567.78 L 1508.11,1559.45 L 1499.78,1549.31 L 1493.6,1537.74 L 1489.79,1525.18 L 1488.5,1512.13 z " style="fill-opacity:1.000000;fill:rgb(60,84,236);stroke:rgb(0,0,0);stroke-width:2"/></g>
<g fill-rule="evenodd"><path d="M 1512.28,5672.28 L 1512.28,5538.43 L 1709.13,5538.43 L 1709.13,5672.28 L 1512.28,5672.28 z " style="fill-opacity:1.000000;fill:rgb(24,219,92);stroke:rgb(0,0,0);stroke-width:2"/></g>
<g fill-rule="evenodd"><path d="M 1512.28,5405.35 L 1513.57,5392.3 L 1517.38,5379.74 L 1523.56,5368.17 L 1531.89,5358.03 L 1542.03,5349.7 L 1553.6,5343.52 L 1566.16,5339.71 L 1579.21,5338.43 L 1642.2,5338.43 L 1655.26,5339.71 L 1667.82,5343.52 L 1679.39,5349.7 L 1689.53,5358.03 L 1697.85,5368.17 L 1704.04,5379.74 L 1707.85,5392.3 L 1709.13,5405.35 L 1707.85,5418.41 L 1704.04,5430.97 L 1697.85,5442.54 L 1689.53,5452.68 L 1679.39,5461 L 1667.82,5467.19 L 1655.26,5471 L 1642.2,5472.28 L 1579.21,5472.28 L 1566.16,5471 L 1553.6,5467.19 L 1542.03,5461 L 1531.89,5452.68 L 1523.56,5442.54 L 1517.38,5430.97 L 1513.57,5418.41 L 1512.28,5405.35 z " style="fill-opacity:1.000000;fill:rgb(2,26,254);stroke:rgb(0,0,0);stroke-width:2"/></g>
<g fill-rule="evenodd"><path d="M 1512.28,5205.35 L 1513.57,5192.3 L 1517.38,5179.74 L 1523.56,5168.17 L 1531.89,5158.03 L 1542.03,5149.7 L 1553.6,5143.52 L 1566.16,5139.71 L 1579.21,5138.43 L 1642.2,5138.43 L 1655.26,5139.71 L 1667.82,5143.52 L 1679.39,5149.7 L 1689.53,5158.03 L 1697.85,5168.17 L 1704.04,5179.74 L 1707.85,5192.3 L 1709.13,5205.35 L 1707.85,5218.41 L 1704.04,5230.97 L 1697.85,5242.54 L 1689.53,5252.68 L 1679.39,5261 L 1667.82,5267.19 L 1655.26,5271 L 1642.2,5272.28 L 1579.21,5272.28 L 1566.16,5271 L 1553.6,5267.19 L 1542.03,5261 L 1531.89,5252.68 L 1523.56,5242.54 L 1517.38,5230.97 L 1513.57,5218.41 L 1512.28,5205.35 z " style="fill-opacity:1.000000;fill:rgb(67,251,250);stroke:rgb(0,0,0);stroke-width:2"/></g>
<g fill-rule="evenodd"><path d="M 1603.78,2496.85 L 1603.78,2433.86 L 1605.07,2420.8 L 1608.87,2408.25 L 1615.06,2396.67 L 1623.38,2386.53 L 1633.52,2378.21 L 1645.1,2372.02 L 1657.65,2368.22 L 1670.71,2366.93 L 1683.77,2368.22 L 1696.32,2372.02 L 1707.89,2378.21 L 1718.03,2386.53 L 1726.36,2396.67 L 1732.54,2408.25 L 1736.35,2420.8 L 1737.64,2433.86 L 1737.64,2496.85 L 1736.35,2509.91 L 1732.54,2522.46 L 1726.36,2534.03 L 1718.03,2544.18 L 1707.89,2552.5 L 1696.32,2558.68 L 1683.77,2562.49 L 1670.71,2563.78 L 1657.65,2562.49 L 1645.1,2558.68 L 1633.52,2552.5 L 1623.38,2544.18 L 1615.06,2534.03 L 1608.87,2522.46 L 1605.07,2509.91 L 1603.78,2496.85 z " style="fill-opacity:1.000000;fill:rgb(170,58,251);stroke:rgb(0,0,0);stroke-width:2"/></g>
<g fill-rule="evenodd"><path d="M 1603.78,2196.85 L 1603.78,2133.86 L 1605.07,2120.8 L 1608.87,2108.25 L 1615.06,2096.67 L 1623.38,2086.53 L 1633.52,2078.21 L 1645.1,2072.02 L 1657.65,2068.22 L 1670.71,2066.93 L 1683.77,2068.22 L 1696.32,2072.02 L 1707.89,2078.21 L 1718.03,2086.53 L 1726.36,2096.67 L 1732.54,2108.25 L 1736.35,2120.8 L 1737.64,2133.86 L 1737.64,2196.85 L 1736.35,2209.91 L 1732.54,2222.46 L 1726.36,2234.03 L 1718.03,2244.18 L 1707.89,2252.5 L 1696.32,2258.68 L 1683.77,2262.49 L 1670.71,2263.78 L 1657.65,2262.49 L 1645.1,2258.68 L 1633.52,2252.5 L 1623.38,2244.18 L 1615.06,2234.03 L 1608.87,2222.46 L 1605.07,2209.91 L 1603.78,2196.85 z " style="fill-opacity:1.000000;fill:rgb(41,209,230);stroke:rgb(0,0,0);stroke-width:2"/></g>
<g fill-rule="evenodd"><path d="M 1603.78,1896.85 L 1603.78,1833.86 L 1605.07,1820.8 L 1608.87,1808.25 L 1615.06,1796.67 L 1623.38,1786.53 L 1633.52,1778.21 L 1645.1,1772.02 L 1657.65,1768.22 L 1670.71,1766.93 L 1683.77,1768.22 L 1696.32,1772.02 L 1707.89,1778.21 L 1718.03,1786.53 L 1726.36,1796.67 L 1732.54,1808.25 L 1736.35,1820.8 L 1737.64,1833.86 L 1737.64,1896.85 L 1736.35,1909.91 L 1732.54,1922.46 L 1726.36,1934.03 L 1718.03,1944.18 L 1707.89,1952.5 L 1696.32,1958.68 L 1683.77,1962.49 L 1670.71,1963.78 L 1657.65,1962.49 L 1645.1,1958.68 L 1633.52,1952.5 L 1623.38,1944.18 L 1615.06,1934.03 L 1608.87,1922.46 L 1605.07,1909.91 L 1603.78,1896.85 z " style="fill-opacity:1.000000;fill:rgb(5,60,124);stroke:rgb(0,0,0);stroke-width:2"/></g>
<g fill-rule="evenodd"><path d="M 1683.78,2856.85 L 1683.78,2793.86 L 1685.07,2780.8 L 1688.87,2768.25 L 1695.06,2756.67 L 1703.38,2746.53 L 1713.52,2738.21 L 1725.1,2732.02 L 1737.65,2728.22 L 1750.71,2726.93 L 1763.77,2728.22 L 1776.32,2732.02 L 1787.89,2738.21 L 1798.03,2746.53 L 1806.36,2756.67 L 1812.54,2768.25 L 1816.35,2780.8 L 1817.64,2793.86 L 1817.64,2856.85 L 1816.35,2869.91 L 1812.54,2882.46 L 1806.36,2894.03 L 1798.03,2904.18 L 1787.89,2912.5 L 1776.32,2918.68 L 1763.77,2922.49 L 1750.71,2923.78 L 1737.65,2922.49 L 1725.1,2918.68 L 1713.52,2912.5 L 1703.38,2904.18 L 1695.06,2894.03 L 1688.87,2882.46 L 1685.07,2869.91 L 1683.78,2856.85 z " style="fill-opacity:1.000000;fill:rgb(148,117,216);stroke:rgb(0,0,0);stroke-width:2"/></g>
<g fill-rule="evenodd"><path d="M 1683.78,516.85 L 1683.78,453.858 L 1685.07,440.801 L 1688.87,428.246 L 1695.06,416.674 L 1703.38,406.532 L 1713.52,398.209 L 1725.1,392.024 L 1737.65,388.215 L 1750.71,386.929 L 1763.77,388.215 L 1776.32,392.024 L 1787.89,398.209 L 1798.03,406.532 L 1806.36,416.674 L 1812.54,428.246 L 1816.35,440.801 L 1817.64,453.858 L 1817.64,516.85 L 1816.35,529.908 L 1812.54,542.463 L 1806.36,554.034 L 1798.03,564.176 L 1787.89,572.5 L 1776.32,578.685 L 1763.77,582.494 L 1750.71,583.78 L 1737.65,582.494 L 1725.1,578.685 L 1713.52,572.5 L 1703.38,564.176 L 1695.06,554.034 L 1688.87,542.463 L 1685.07,529.908 L 1683.78,516.85 z " style="fill-opacity:1.000000;fill:rgb(190,97,137);stroke:rgb(0,0,0);stroke-width:2"/></g>
<g fill-rule="evenodd"><path d="M 1688.5,3852.13 L 1688.5,3789.13 L 1689.79,3776.08 L 1693.6,3763.52 L 1699.78,3751.95 L 1708.11,3741.81 L 1718.25,3733.48 L 1729.82,3727.3 L 1742.38,3723.49 L 1755.43,3722.2 L 1768.49,3723.49 L 1781.05,3727.3 L 1792.62,3733.48 L 1802.76,3741.81 L 1811.08,3751.95 L 1817.27,3763.52 L 1821.08,3776.08 L 1822.36,3789.13 L 1822.36,3852.13 L 1821.08,3865.18 L 1817.27,3877.74 L 1811.08,3889.31 L 1802.76,3899.45 L 1792.62,3907.78 L 1781.05,3913.96 L 1768.49,3917.77 L 1755.43,3919.06 L 1742.38,3917.77 L 1729.82,3913.96 L 1718.25,3907.78 L 1708.11,3899.45 L 1699.78,3889.31 L 1693.6,3877.74 L 1689.79,3865.18 L 1688.5,3852.13 z " style="fill-opacity:1.000000;fill:rgb(249,92,187);stroke:rgb(0,0,0);stroke-width:2"/></g>
<g fill-rule="evenodd"><path d="M 1688.5,1512.13 L 1688.5,1449.13 L 1689.79,1436.08 L 1693.6,1423.52 L 1699.78,1411.95 L 1708.11,1401.81 L 1718.25,1393.48 L 1729.82,1387.3 L 1742.38,1383.49 L 1755.43,1382.2 L 1768.49,1383.49 L 1781.05,1387.3 L 1792.62,1393.48 L 1802.76,1401.81 L 1811.08,1411.95 L 1817.27,1423.52 L 1821.08,1436.08 L 1822.36,1449.13 L 1822.36,1512.13 L 1821.08,1525.18 L 1817.27,1537.74 L 1811.08,1549.31 L 1802.76,1559.45 L 1792.62,1567.78 L 1781.05,1573.96 L 1768.49,1577.77 L 1755.43,1579.06 L 1742.38,1577.77 L 1729.82,1573.96 L 1718.25,1567.78 L 1708.11,1559.45 L 1699.78,1549.31 L 1693.6,1537.74 L 1689.79,1525.18 L 1688.5,1512.13 z " style="fill-opacity:1.000000;fill:rgb(168,153,15);stroke:rgb(0,0,0);stroke-width:2"/></g>
<g fill-rule="evenodd"><path d="M 1692.28,4522.28 L 1692.28,4388.43 L 1889.13,4388.43 L 1889.13,4522.28 L 1692.28,4522.28 z " style="fill-opacity:1.000000;fill:rgb(149,177,235);stroke:rgb(0,0,0);stroke-width:2"/></g>
<g fill-rule="evenodd"><path d="M 1692.28,4255.35 L 1693.57,4242.3 L 1697.38,4229.74 L 1703.56,4218.17 L 1711.89,4208.03 L 1722.03,4199.7 L 1733.6,4193.52 L 1746.16,4189.71 L 1759.21,4188.43 L 1822.2,4188.43 L 1835.26,4189.71 L 1847.82,4193.52 L 1859.39,4199.7 L 1869.53,4208.03 L 1877.85,4218.17 L 1884.04,4229.74 L 1887.85,4242.3 L 1889.13,4255.35 L 1887.85,4268.41 L 1884.04,4280.97 L 1877.85,4292.54 L 1869.53,4302.68 L 1859.39,4311 L 1847.82,4317.19 L 1835.26,4321 L 1822.2,4322.28 L 1759.21,4322.28 L 1746.16,4321 L 1733.6,4317.19 L 1722.03,4311 L 1711.89,4302.68 L 1703.56,4292.54 L 1697.38,4280.97 L 1693.57,4268.41 L 1692.28,4255.35 z " style="fill-opacity:1.000000;fill:rgb(241,179,5);stroke:rgb(0,0,0);stroke-width:2"/></g>
<g fill-rule="evenodd"><path d="M 1803.78,2563.78 L 1803.78,2366.93 L 1937.64,2366.93 L 1937.64,2563.78 L 1803.78,2563.78 z " style="fill-opacity:1.000000;fill:rgb(239,247,0);stroke:rgb(0,0,0);stroke-width:2"/></g>
<g fill-rule="evenodd"><path d="M 1803.78,2263.78 L 1803.78,2066.93 L 1937.64,2066.93 L 1937.64,2263.78 L 1803.78,2263.78 z " style="fill-opacity:1.000000;fill:rgb(233,161,58);stroke:rgb(0,0,0);stroke-width:2"/></g>
<g fill-rule="evenodd"><path d="M 1803.78,1963.78 L 1803.78,1766.93 L 1937.64,1766.93 L 1937.64,1963.78 L 1803.78,1963.78 z " style="fill-opacity:1.000000;fill:rgb(229,202,11);stroke:rgb(0,0,0);stroke-width:2"/></g>
<g fill-rule="evenodd"><path d="M 1832.28,5672.28 L 1832.28,5538.43 L 2029.13,5538.43 L 2029.13,5672.28 L 1832.28,5672.28 z " style="fill-opacity:1.000000;fill:rgb(203,208,72);stroke:rgb(0,0,0);stroke-width:2"/></g>
<g fill-rule="evenodd"><path d="M 1832.28,5405.35 L 1833.57,5392.3 L 1837.38,5379.74 L 1843.56,5368.17 L 1851.89,5358.03 L 1862.03,5349.7 L 1873.6,5343.52 L 1886.16,5339.71 L 1899.21,5338.43 L 1962.2,5338.43 L 1975.26,5339.71 L 1987.82,5343.52 L 1999.39,5349.7 L 2009.53,5358.03 L 2017.85,5368.17 L 2024.04,5379.74 L 2027.85,5392.3 L 2029.13,5405.35 L 2027.85,5418.41 L 2024.04,5430.97 L 2017.85,5442.54 L 2009.53,5452.68 L 1999.39,5461 L 1987.82,5467.19 L 1975.26,5471 L 1962.2,5472.28 L 1899.21,5472.28 L 1886.16,5471 L 1873.6,5467.19 L 1862.03,5461 L 1851.89,5452.68 L 1843.56,5442.54 L 1837.38,5430.97 L 1833.57,5418.41 L 1832.28,5405.35 z " style="fill-opacity:1.000000;fill:rgb(71,100,189);stroke:rgb(0,0,0);stroke-width:2"/></g>
<g fill-rule="evenodd"><path d="M 1832.28,5205.35 L 1833.57,5192.3 L 1837.38,5179.74 L 1843.56,5168.17 L 1851.89,5158.03 L 1862.03,5149.7 L 1873.6,5143.52 L 1886.16,5139.71 L 1899.21,5138.43 L 1962.2,5138.43 L 1975.26,5139.71 L 1987.82,5143.52 L 1999.39,5149.7 L 2009.53,5158.03 L 2017.85,5168.17 L 2024.04,5179.74 L 2027.85,5192.3 L 2029.13,5205.35 L 2027.85,5218.41 L 2024.04,5230.97 L 2017.85,5242.54 L 2009.53,5252.68 L 1999.39,5261 L 1987.82,5267.19 L 1975.26,5271 L 1962.2,5272.28 L 1899.21,5272.28 L 1886.16,5271 L 1873.6,5267.19 L 1862.03,5261 L 1851.89,5252.68 L 1843.56,5242.54 L 1837.38,5230.97 L 1833.57,5218.41 L 1832.28,5205.35 z " style="fill-opacity:1.000000;fill:rgb(31,35,30);stroke:rgb(0,0,0);stroke-width:2"/></g>
<g fill-rule="evenodd"><path d="M 1883.78,2856.85 L 1883.78,2793.86 L 1885.07,2780.8 L 1888.87,2768.25 L 1895.06,2756.67 L 1903.38,2746.53 L 1913.52,2738.21 L 1925.1,2732.02 L 1937.65,2728.22 L 1950.71,2726.93 L 1963.77,2728.22 L 1976.32,2732.02 L 1987.89,2738.21 L 1998.03,2746.53 L 2006.36,2756.67 L 2012.54,2768.25 L 2016.35,2780.8 L 2017.64,2793.86 L 2017.64,2856.85 L 2016.35,2869.91 L 2012.54,2882.46 L 2006.36,2894.03 L 1998.03,2904.18 L 1987.89,2912.5 L 1976.32,2918.68 L 1963.77,2922.49 L 1950.71,2923.78 L 1937.65,2922.49 L 1925.1,2918.68 L 1913.52,2912.5 L 1903.38,2904.18 L 1895.06,2894.03 L 1888.87,2882.46 L 1885.07,2869.91 L 1883.78,2856.85 z " style="fill-opacity:1.000000;fill:rgb(168,28,123);stroke:rgb(0,0,0);stroke-width:2"/></g>
<g fill-rule="evenodd"><path d="M 1883.78,516.85 L 1883.78,453.858 L 1885.07,440.801 L 1888.87,428.246 L 1895.06,416.674 L 1903.38,406.532 L 1913.52,398.209 L 1925.1,392.024 L 1937.65,388.215 L 1950.71,386.929 L 1963.77,388.215 L 1976.32,392.024 L 1987.89,398.209 L 1998.03,406.532 L 2006.36,416.674 L 2012.54,428.246 L 2016.35,440.801 L 2017.64,453.858 L 2017.64,516.85 L 2016.35,529.908 L 2012.54,542.463 L 2006.36,554.034 L 1998.03,564.176 L 1987.89,572.5 L 1976.32,578.685 L 1963.77,582.494 L 1950.71,583.78 L 1937.65,582.494 L 1925.1,578.685 L 1913.52,572.5 L 1903.38,564.176 L 1895.06,554.034 L 1888.87,542.463 L 1885.07,529.908 L 1883.78,516.85 z " style="fill-opacity:1.000000;fill:rgb(100,197,20);stroke:rgb(0,0,0);stroke-width:2"/></g>
<g fill-rule="evenodd"><path d="M 1888.5,3852.13 L 1888.5,3789.13 L 1889.79,3776.08 L 1893.6,3763.52 L 1899.78,3751.95 L 1908.11,3741.81 L 1918.25,3733.48 L 1929.82,3727.3 L 1942.38,3723.49 L 1955.43,3722.2 L 1968.49,3723.49 L 1981.05,3727.3 L 1992.62,3733.48 L 2002.76,3741.81 L 2011.08,3751.95 L 2017.27,3763.52 L 2021.08,3776.08 L 2022.36,3789.13 L 2022.36,3852.13 L 2021.08,3865.18 L 2017.27,3877.74 L 2011.08,3889.31 L 2002.76,3899.45 L 1992.62,3907.78 L 1981.05,3913.96 L 1968.49,3917.77 L 1955.43,3919.06 L 1942.38,3917.77 L 1929.82,3913.96 L 1918.25,3907.78 L 1908.11,3899.45 L 1899.78,3889.31 L 1893.6,3877.74 L 1889.79,3865.18 L 1888.5,3852.13 z " style="fill-opacity:1.000000;fill:rgb(115,90,197);stroke:rgb(0,0,0);stroke-width:2"/></g>
<g fill-rule="evenodd"><path d="M 1888.5,1512.13 L 1888.5,1449.13 L 1889.79,1436.08 L 1893.6,1423.52 L 1899.78,1411.95 L 1908.11,1401.81 L 1918.25,1393.48 L 1929.82,1387.3 L 1942.38,1383.49 L 1955.43,1382.2 L 1968.49,1383.49 L 1981.05,1387.3 L 1992.62,1393.48 L 2002.76,1401.81 L 2011.08,1411.95 L 2017.27,1423.52 L 2021.08,1436.08 L 2022.36,1449.13 L 2022.36,1512.13 L 2021.08,1525.18 L 2017.27,1537.74 L 2011.08,1549.31 L 2002.76,1559.45 L 1992.62,1567.78 L 1981.05,1573.96 L 1968.49,1577.77 L 1955.43,1579.06 L 1942.38,1577.77 L 1929.82,1573.96 L 1918.25,1567.78 L 1908.11,1559.45 L 1899.78,1549.31 L 1893.6,1537.74 L 1889.79,1525.18 L 1888.5,1512.13 z " style="fill-opacity:1.000000;fill:rgb(94,75,121);stroke:rgb(0,0,0);stroke-width:2"/></g>
<g fill-rule="evenodd"><path d="M 2083.78,2856.85 L 2083.78,2793.86 L 2085.07,2780.8 L 2088.87,2768.25 L 2095.06,2756.67 L 2103.38,2746.53 L 2113.52,2738.21 L 2125.1,2732.02 L 2137.65,2728.22 L 2150.71,2726.93 L 2163.77,2728.22 L 2176.32,2732.02 L 2187.89,2738.21 L 2198.03,2746.53 L 2206.36,2756.67 L 2212.54,2768.25 L 2216.35,2780.8 L 2217.64,2793.86 L 2217.64,2856.85 L 2216.35,2869.91 L 2212.54,2882.46 L 2206.36,2894.03 L 2198.03,2904.18 L 2187.89,2912.5 L 2176.32,2918.68 L 2163.77,2922.49 L 2150.71,2923.78 L 2137.65,2922.49 L 2125.1,2918.68 L 2113.52,2912.5 L 2103.38,2904.18 L 2095.06,2894.03 L 2088.87,2882.46 L 2085.07,2869.91 L 2083.78,2856.85 z " style="fill-opacity:1.000000;fill:rgb(99,59,112);stroke:rgb(0,0,0);stroke-width:2"/></g>
<g fill-rule="evenodd"><path d="M 2083.78,516.85 L 2083.78,453.858 L 2085.07,440.801 L 2088.87,428.246 L 2095.06,416.674 L 2103.38,406.532 L 2113.52,398.209 L 2125.1,392.024 L 2137.65,388.215 L 2150.71,386.929 L 2163.77,388.215 L 2176.32,392.024 L 2187.89,398.209 L 2198.03,406.532 L 2206.36,416.674 L 2212.54,428.246 L 2216.35,440.801 L 2217.64,453.858 L 2217.64,516.85 L 2216.35,529.908 L 2212.54,542.463 L 2206.36,554.034 L 2198.03,564.176 L 2187.89,572.5 L 2176.32,578.685 L 2163.77,582.494 L 2150.71,583.78 L 2137.65,582.494 L 2125.1,578.685 L 2113.52,572.5 L 2103.38,564.176 L 2095.06,554.034 L 2088.87,542.463 L 2085.07,529.908 L 2083.78,516.85 z " style="fill-opacity:1.000000;fill:rgb(100,36,17);stroke:rgb(0,0,0);stroke-width:2"/></g>
<g fill-rule="evenodd"><path d="M 2088.5,3852.13 L 2088.5,3789.13 L 2089.79,3776.08 L 2093.6,3763.52 L 2099.78,3751.95 L 2108.11,3741.81 L 2118.25,3733.48 L 2129.82,3727.3 L 2142.38,3723.49 L 2155.43,3722.2 L 2168.49,3723.49 L 2181.05,3727.3 L 2192.62,3733.48 L 2202.76,3741.81 L 2211.08,3751.95 L 2217.27,3763.52 L 2221.08,3776.08 L 2222.36,3789.13 L 2222.36,3852.13 L 2221.08,3865.18 L 2217.27,3877.74 L 2211.08,3889.31 L 2202.76,3899.45 L 2192.62,3907.78 L 2181.05,3913.96 L 2168.49,3917.77 L 2155.43,3919.06 L 2142.38,3917.77 L 2129.82,3913.96 L 2118.25,3907.78 L 2108.11,3899.45 L 2099.78,3889.31 L 2093.6,3877.74 L 2089.79,3865.18 L 2088.5,3852.13 z " style="fill-opacity:1.000000;fill:rgb(158,9,220);stroke:rgb(0,0,0);stroke-width:2"/></g>
<g fill-rule="evenodd"><path d="M 2088.5,1512.13 L 2088.5,1449.13 L 2089.79,1436.08 L 2093.6,1423.52 L 2099.78,1411.95 L 2108.11,1401.81 L 2118.25,1393.48 L 2129.82,1387.3 L 2142.38,1383.49 L 2155.43,1382.2 L 2168.49,1383.49 L 2181.05,1387.3 L 2192.62,1393.48 L 2202.76,1401.81 L 2211.08,1411.95 L 2217.27,1423.52 L 2221.08,1436.08 L 2222.36,1449.13 L 2222.36,1512.13 L 2221.08,1525.18 L 2217.27,1537.74 L 2211.08,1549.31 L 2202.76,1559.45 L 2192.62,1567.78 L 2181.05,1573.96 L 2168.49,1577.77 L 2155.43,1579.06 L 2142.38,1577.77 L 2129.82,1573.96 L 2118.25,1567.78 L 2108.11,1559.45 L 2099.78,1549.31 L 2093.6,1537.74 L 2089.79,1525.18 L 2088.5,1512.13 z " style="fill-opacity:1.000000;fill:rgb(170,212,172);stroke:rgb(0,0,0);stroke-width:2"/></g>
<g fill-rule="evenodd"><path d="M 2152.28,5672.28 L 2152.28,5538.43 L 2349.13,5538.43 L 2349.13,5672.28 L 2152.28,5672.28 z " style="fill-opacity:1.000000;fill:rgb(242,27,16);stroke:rgb(0,0,0);stroke-width:2"/></g>
<g fill-rule="evenodd"><path d="M 2152.28,5405.35 L 2153.57,5392.3 L 2157.38,5379.74 L 2163.56,5368.17 L 2171.89,5358.03 L 2182.03,5349.7 L 2193.6,5343.52 L 2206.16,5339.71 L 2219.21,5338.43 L 2282.2,5338.43 L 2295.26,5339.71 L 2307.82,5343.52 L 2319.39,5349.7 L 2329.53,5358.03 L 2337.85,5368.17 L 2344.04,5379.74 L 2347.85,5392.3 L 2349.13,5405.35 L 2347.85,5418.41 L 2344.04,5430.97 L 2337.85,5442.54 L 2329.53,5452.68 L 2319.39,5461 L 2307.82,5467.19 L 2295.26,5471 L 2282.2,5472.28 L 2219.21,5472.28 L 2206.16,5471 L 2193.6,5467.19 L 2182.03,5461 L 2171.89,5452.68 L 2163.56,5442.54 L 2157.38,5430.97 L 2153.57,5418.41 L 2152.28,5405.35 z " style="fill-opacity:1.000000;fill:rgb(175,59,51);stroke:rgb(0,0,0);stroke-width:2"/></g>
<g fill-rule="evenodd"><path d="M 2152.28,5205.35 L 2153.57,5192.3 L 2157.38,5179.74 L 2163.56,5168.17 L 2171.89,5158.03 L 2182.03,5149.7 L 2193.6,5143.52 L 2206.16,5139.71 L 2219.21,5138.43 L 2282.2,5138.43 L 2295.26,5139.71 L 2307.82,5143.52 L 2319.39,5149.7 L 2329.53,5158.03 L 2337.85,5168.17 L 2344.04,5179.74 L 2347.85,5192.3 L 2349.13,5205.35 L 2347.85,5218.41 L 2344.04,5230.97 L 2337.85,5242.54 L 2329.53,5252.68 L 2319.39,5261 L 2307.82,5267.19 L 2295.26,5271 L 2282.2,5272.28 L 2219.21,5272.28 L 2206.16,5271 L 2193.6,5267.19 L 2182.03,5261 L 2171.89,5252.68 L 2163.56,5242.54 L 2157.38,5230.97 L 2153.57,5218.41 L 2152.28,5205.35 z " style="fill-opacity:1.000000;fill:rgb(205,227,80);stroke:rgb(0,0,0);stroke-width:2"/></g>
<g fill-rule="evenodd"><path d="M 2154.09,2565.35 L 2154.09,2368.5 L 2287.95,2368.5 L 2287.95,2565.35 L 2154.09,2565.35 z " style="fill-opacity:1.000000;fill:rgb(72,71,21);stroke:rgb(0,0,0);stroke-width:2"/></g>
<g fill-rule="evenodd"><path d="M 2154.09,2261.42 L 2154.09,2064.57 L 2287.95,2064.57 L 2287.95,2261.42 L 2154.09,2261.42 z " style="fill-opacity:1.000000;fill:rgb(92,187,111);stroke:rgb(0,0,0);stroke-width:2"/></g>
<g fill-rule="evenodd"><path d="M 2154.09,1946.46 L 2154.09,1749.61 L 2287.95,1749.61 L 2287.95,1946.46 L 2154.09,1946.46 z " style="fill-opacity:1.000000;fill:rgb(34,25,186);stroke:rgb(0,0,0);stroke-width:2"/></g>
<g fill-rule="evenodd"><path d="M 2283.78,2856.85 L 2283.78,2793.86 L 2285.07,2780.8 L 2288.87,2768.25 L 2295.06,2756.67 L 2303.38,2746.53 L 2313.52,2738.21 L 2325.1,2732.02 L 2337.65,2728.22 L 2350.71,2726.93 L 2363.77,2728.22 L 2376.32,2732.02 L 2387.89,2738.21 L 2398.03,2746.53 L 2406.36,2756.67 L 2412.54,2768.25 L 2416.35,2780.8 L 2417.64,2793.86 L 2417.64,2856.85 L 2416.35,2869.91 L 2412.54,2882.46 L 2406.36,2894.03 L 2398.03,2904.18 L 2387.89,2912.5 L 2376.32,2918.68 L 2363.77,2922.49 L 2350.71,2923.78 L 2337.65,2922.49 L 2325.1,2918.68 L 2313.52,2912.5 L 2303.38,2904.18 L 2295.06,2894.03 L 2288.87,2882.46 L 2285.07,2869.91 L 2283.78,2856.85 z " style="fill-opacity:1.000000;fill:rgb(155,125,245);stroke:rgb(0,0,0);stroke-width:2"/></g>
<g fill-rule="evenodd"><path d="M 2283.78,516.85 L 2283.78,453.858 L 2285.07,440.801 L 2288.87,428.246 L 2295.06,416.674 L 2303.38,406.532 L 2313.52,398.209 L 2325.1,392.024 L 2337.65,388.215 L 2350.71,386.929 L 2363.77,388.215 L 2376.32,392.024 L 2387.89,398.209 L 2398.03,406.532 L 2406.36,416.674 L 2412.54,428.246 L 2416.35,440.801 L 2417.64,453.858 L 2417.64,516.85 L 2416.35,529.908 L 2412.54,542.463 L 2406.36,554.034 L 2398.03,564.176 L 2387.89,572.5 L 2376.32,578.685 L 2363.77,582.494 L 2350.71,583.78 L 2337.65,582.494 L 2325.1,578.685 L 2313.52,572.5 L 2303.38,564.176 L 2295.06,554.034 L 2288.87,542.463 L 2285.07,529.908 L 2283.78,516.85 z " style="fill-opacity:1.000000;fill:rgb(11,225,26);stroke:rgb(0,0,0);stroke-width:2"/></g>
<g fill-rule="evenodd"><path d="M 2288.5,3852.13 L 2288.5,3789.13 L 2289.79,3776.08 L 2293.6,3763.52 L 2299.78,3751.95 L 2308.11,3741.81 L 2318.25,3733.48 L 2329.82,3727.3 L 2342.38,3723.49 L 2355.43,3722.2 L 2368.49,3723.49 L 2381.05,3727.3 L 2392.62,3733.48 L 2402.76,3741.81 L 2411.08,3751.95 L 2417.27,3763.52 L 2421.08,3776.08 L 2422.36,3789.13 L 2422.36,3852.13 L 2421.08,3865.18 L 2417.27,3877.74 L 2411.08,3889.31 L 2402.76,3899.45 L 2392.62,3907.78 L 2381.05,3913.96 L 2368.49,3917.77 L 2355.43,3919.06 L 2342.38,3917.77 L 2329.82,3913.96 L 2318.25,3907.78 L 2308.11,3899.45 L 2299.78,3889.31 L 2293.6,3877.74 L 2289.79,3865.18 L 2288.5,3852.13 z " style="fill-opacity:1.000000;fill:rgb(28,127,35);stroke:rgb(0,0,0);stroke-width:2"/></g>
<g fill-rule="evenodd"><path d="M 2288.5,1512.13 L 2288.5,1449.13 L 2289.79,1436.08 L 2293.6,1423.52 L 2299.78,1411.95 L 2308.11,1401.81 L 2318.25,1393.48 L 2329.82,1387.3 L 2342.38,1383.49 L 2355.43,1382.2 L 2368.49,1383.49 L 2381.05,1387.3 L 2392.62,1393.48 L 2402.76,1401.81 L 2411.08,1411.95 L 2417.27,1423.52 L 2421.08,1436.08 L 2422.36,1449.13 L 2422.36,1512.13 L 2421.08,1525.18 L 2417.27,1537.74 L 2411.08,1549.31 L 2402.76,1559.45 L 2392.62,1567.78 L 2381.05,1573.96 L 2368.49,1577.77 L 2355.43,1579.06 L 2342.38,1577.77 L 2329.82,1573.96 L 2318.25,1567.78 L 2308.11,1559.45 L 2299.78,1549.31 L 2293.6,1537.74 L 2289.79,1525.18 L 2288.5,1512.13 z " style="fill-opacity:1.000000;fill:rgb(248,41,248);stroke:rgb(0,0,0);stroke-width:2"/></g>
<g fill-rule="evenodd"><path d="M 2354.09,2498.43 L 2354.09,2435.43 L 2355.38,2422.38 L 2359.19,2409.82 L 2365.37,2398.25 L 2373.7,2388.11 L 2383.84,2379.78 L 2395.41,2373.6 L 2407.97,2369.79 L 2421.02,2368.5 L 2434.08,2369.79 L 2446.64,2373.6 L 2458.21,2379.78 L 2468.35,2388.11 L 2476.67,2398.25 L 2482.86,2409.82 L 2486.67,2422.38 L 2487.95,2435.43 L 2487.95,2498.43 L 2486.67,2511.48 L 2482.86,2524.04 L 2476.67,2535.61 L 2468.35,2545.75 L 2458.21,2554.07 L 2446.64,2560.26 L 2434.08,2564.07 L 2421.02,2565.35 L 2407.97,2564.07 L 2395.41,2560.26 L 2383.84,2554.07 L 2373.7,2545.75 L 2365.37,2535.61 L 2359.19,2524.04 L 2355.38,2511.48 L 2354.09,2498.43 z " style="fill-opacity:1.000000;fill:rgb(164,27,19);stroke:rgb(0,0,0);stroke-width:2"/></g>
<g fill-rule="evenodd"><path d="M 2354.09,2194.49 L 2354.09,2131.5 L 2355.38,2118.44 L 2359.19,2105.88 L 2365.37,2094.31 L 2373.7,2084.17 L 2383.84,2075.85 L 2395.41,2069.66 L 2407.97,2065.85 L 2421.02,2064.57 L 2434.08,2065.85 L 2446.64,2069.66 L 2458.21,2075.85 L 2468.35,2084.17 L 2476.67,2094.31 L 2482.86,2105.88 L 2486.67,2118.44 L 2487.95,2131.5 L 2487.95,2194.49 L 2486.67,2207.55 L 2482.86,2220.1 L 2476.67,2231.67 L 2468.35,2241.81 L 2458.21,2250.14 L 2446.64,2256.32 L 2434.08,2260.13 L 2421.02,2261.42 L 2407.97,2260.13 L 2395.41,2256.32 L 2383.84,2250.14 L 2373.7,2241.81 L 2365.37,2231.67 L 2359.19,2220.1 L 2355.38,2207.55 L 2354.09,2194.49 z " style="fill-opacity:1.000000;fill:rgb(181,202,78);stroke:rgb(0,0,0);stroke-width:2"/></g>
<g fill-rule="evenodd"><path d="M 2354.09,1879.53 L 2354.09,1816.54 L 2355.38,1803.48 L 2359.19,1790.92 L 2365.37,1779.35 L 2373.7,1769.21 L 2383.84,1760.89 L 2395.41,1754.7 L 2407.97,1750.89 L 2421.02,1749.61 L 2434.08,1750.89 L 2446.64,1754.7 L 2458.21,1760.89 L 2468.35,1769.21 L 2476.67,1779.35 L 2482.86,1790.92 L 2486.67,1803.48 L 2487.95,1816.54 L 2487.95,1879.53 L 2486.67,1892.58 L 2482.86,1905.14 L 2476.67,1916.71 L 2468.35,1926.85 L 2458.21,1935.18 L 2446.64,1941.36 L 2434.08,1945.17 L 2421.02,1946.46 L 2407.97,1945.17 L 2395.41,1941.36 L 2383.84,1935.18 L 2373.7,1926.85 L 2365.37,1916.71 L 2359.19,1905.14 L 2355.38,1892.58 L 2354.09,1879.53 z " style="fill-opacity:1.000000;fill:rgb(232,152,50);stroke:rgb(0,0,0);stroke-width:2"/></g>
<g fill-rule="evenodd"><path d="M 2472.28,5672.28 L 2472.28,5538.43 L 2669.13,5538.43 L 2669.13,5672.28 L 2472.28,5672.28 z " style="fill-opacity:1.000000;fill:rgb(56,224,121);stroke:rgb(0,0,0);stroke-width:2"/></g>
<g fill-rule="evenodd"><path d="M 2472.28,5405.35 L 2473.57,5392.3 L 2477.38,5379.74 L 2483.56,5368.17 L 2491.89,5358.03 L 2502.03,5349.7 L 2513.6,5343.52 L 2526.16,5339.71 L 2539.21,5338.43 L 2602.2,5338.43 L 2615.26,5339.71 L 2627.82,5343.52 L 2639.39,5349.7 L 2649.53,5358.03 L 2657.85,5368.17 L 2664.04,5379.74 L 2667.85,5392.3 L 2669.13,5405.35 L 2667.85,5418.41 L 2664.04,5430.97 L 2657.85,5442.54 L 2649.53,5452.68 L 2639.39,5461 L 2627.82,5467.19 L 2615.26,5471 L 2602.2,5472.28 L 2539.21,5472.28 L 2526.16,5471 L 2513.6,5467.19 L 2502.03,5461 L 2491.89,5452.68 L 2483.56,5442.54 L 2477.38,5430.97 L 2473.57,5418.41 L 2472.28,5405.35 z " style="fill-opacity:1.000000;fill:rgb(77,61,52);stroke:rgb(0,0,0);stroke-width:2"/></g>
<g fill-rule="evenodd"><path d="M 2472.28,5205.35 L 2473.57,5192.3 L 2477.38,5179.74 L 2483.56,5168.17 L 2491.89,5158.03 L 2502.03,5149.7 L 2513.6,5143.52 L 2526.16,5139.71 L 2539.21,5138.43 L 2602.2,5138.43 L 2615.26,5139.71 L 2627.82,5143.52 L 2639.39,5149.7 L 2649.53,5158.03 L 2657.85,5168.17 L 2664.04,5179.74 L 2667.85,5192.3 L 2669.13,5205.35 L 2667.85,5218.41 L 2664.04,5230.97 L 2657.85,5242.54 L 2649.53,5252.68 L 2639.39,5261 L 2627.82,5267.19 L 2615.26,5271 L 2602.2,5272.28 L 2539.21,5272.28 L 2526.16,5271 L 2513.6,5267.19 L 2502.03,5261 L 2491.89,5252.68 L 2483.56,5242.54 L 2477.38,5230.97 L 2473.57,5218.41 L 2472.28,5205.35 z " style="fill-opacity:1.000000;fill:rgb(188,95,78);stroke:rgb(0,0,0);stroke-width:2"/></g>
<g fill-rule="evenodd"><path d="M 2472.28,3445.35 L 2474.17,3426.15 L 2479.78,3407.69 L 2488.87,3390.67 L 2501.11,3375.76 L 2516.03,3363.52 L 2533.04,3354.42 L 2551.51,3348.82 L 2570.71,3346.93 L 2589.91,3348.82 L 2608.37,3354.42 L 2625.39,3363.52 L 2640.31,3375.76 L 2652.55,3390.67 L 2661.64,3407.69 L 2667.24,3426.15 L 2669.13,3445.35 L 2667.24,3464.56 L 2661.64,3483.02 L 2652.55,3500.04 L 2640.31,3514.95 L 2625.39,3527.19 L 2608.37,3536.29 L 2589.91,3541.89 L 2570.71,3543.78 L 2551.51,3541.89 L 2533.04,3536.29 L 2516.03,3527.19 L 2501.11,3514.95 L 2488.87,3500.04 L 2479.78,3483.02 L 2474.17,3464.56 L 2472.28,3445.35 z " style="fill-opacity:1.000000;fill:rgb(119,250,203);stroke:rgb(0,0,0);stroke-width:2"/></g>
<g fill-rule="evenodd"><path d="M 2483.78,2856.85 L 2483.78,2793.86 L 2485.07,2780.8 L 2488.87,2768.25 L 2495.06,2756.67 L 2503.38,2746.53 L 2513.52,2738.21 L 2525.1,2732.02 L 2537.65,2728.22 L 2550.71,2726.93 L 2563.77,2728.22 L 2576.32,2732.02 L 2587.89,2738.21 L 2598.03,2746.53 L 2606.36,2756.67 L 2612.54,2768.25 L 2616.35,2780.8 L 2617.64,2793.86 L 2617.64,2856.85 L 2616.35,2869.91 L 2612.54,2882.46 L 2606.36,2894.03 L 2598.03,2904.18 L 2587.89,2912.5 L 2576.32,2918.68 L 2563.77,2922.49 L 2550.71,2923.78 L 2537.65,2922.49 L 2525.1,2918.68 L 2513.52,2912.5 L 2503.38,2904.18 L 2495.06,2894.03 L 2488.87,2882.46 L 2485.07,2869.91 L 2483.78,2856.85 z " style="fill-opacity:1.000000;fill:rgb(108,5,172);stroke:rgb(0,0,0);stroke-width:2"/></g>
<g fill-rule="evenodd"><path d="M 2483.78,516.85 L 2483.78,453.858 L 2485.07,440.801 L 2488.87,428.246 L 2495.06,416.674 L 2503.38,406.532 L 2513.52,398.209 L 2525.1,392.024 L 2537.65,388.215 L 2550.71,386.929 L 2563.77,388.215 L 2576.32,392.024 L 2587.89,398.209 L 2598.03,406.532 L 2606.36,416.674 L 2612.54,428.246 L 2616.35,440.801 L 2617.64,453.858 L 2617.64,516.85 L 2616.35,529.908 L 2612.54,542.463 L 2606.36,554.034 L 2598.03,564.176 L 2587.89,572.5 L 2576.32,578.685 L 2563.77,582.494 L 2550.71,583.78 L 2537.65,582.494 L 2525.1,578.685 L 2513.52,572.5 L 2503.38,564.176 L 2495.06,554.034 L 2488.87,542.463 L 2485.07,529.908 L 2483.78,516.85 z " style="fill-opacity:1.000000;fill:rgb(134,33,43);stroke:rgb(0,0,0);stroke-width:2"/></g>
<g fill-rule="evenodd"><path d="M 2488.5,3852.13 L 2488.5,3789.13 L 2489.79,3776.08 L 2493.6,3763.52 L 2499.78,3751.95 L 2508.11,3741.81 L 2518.25,3733.48 L 2529.82,3727.3 L 2542.38,3723.49 L 2555.43,3722.2 L 2568.49,3723.49 L 2581.05,3727.3 L 2592.62,3733.48 L 2602.76,3741.81 L 2611.08,3751.95 L 2617.27,3763.52 L 2621.08,3776.08 L 2622.36,3789.13 L 2622.36,3852.13 L 2621.08,3865.18 L 2617.27,3877.74 L 2611.08,3889.31 L 2602.76,3899.45 L 2592.62,3907.78 L 2581.05,3913.96 L 2568.49,3917.77 L 2555.43,3919.06 L 2542.38,3917.77 L 2529.82,3913.96 L 2518.25,3907.78 L 2508.11,3899.45 L 2499.78,3889.31 L 2493.6,3877.74 L 2489.79,3865.18 L 2488.5,3852.13 z " style="fill-opacity:1.000000;fill:rgb(170,26,85);stroke:rgb(0,0,0);stroke-width:2"/></g>
<g fill-rule="evenodd"><path d="M 2488.5,1512.13 L 2488.5,1449.13 L 2489.79,1436.08 L 2493.6,1423.52 L 2499.78,1411.95 L 2508.11,1401.81 L 2518.25,1393.48 L 2529.82,1387.3 L 2542.38,1383.49 L 2555.43,1382.2 L 2568.49,1383.49 L 2581.05,1387.3 L 2592.62,1393.48 L 2602.76,1401.81 L 2611.08,1411.95 L 2617.27,1423.52 L 2621.08,1436.08 L 2622.36,1449.13 L 2622.36,1512.13 L 2621.08,1525.18 L 2617.27,1537.74 L 2611.08,1549.31 L 2602.76,1559.45 L 2592.62,1567.78 L 2581.05,1573.96 L 2568.49,1577.77 L 2555.43,1579.06 L 2542.38,1577.77 L 2529.82,1573.96 L 2518.25,1567.78 L 2508.11,1559.45 L 2499.78,1549.31 L 2493.6,1537.74 L 2489.79,1525.18 L 2488.5,1512.13 z " style="fill-opacity:1.000000;fill:rgb(162,190,112);stroke:rgb(0,0,0);stroke-width:2"/></g>
<g fill-rule="evenodd"><path d="M 2502.28,835.354 L 2504.17,816.153 L 2509.78,797.689 L 2518.87,780.672 L 2531.11,765.757 L 2546.03,753.517 L 2563.04,744.421 L 2581.51,738.82 L 2600.71,736.929 L 2619.91,738.82 L 2638.37,744.421 L 2655.39,753.517 L 2670.31,765.757 L 2682.55,780.672 L 2691.64,797.689 L 2697.24,816.153 L 2699.13,835.354 L 2697.24,854.556 L 2691.64,873.02 L 2682.55,890.036 L 2670.31,904.951 L 2655.39,917.192 L 2638.37,926.287 L 2619.91,931.888 L 2600.71,933.78 L 2581.51,931.888 L 2563.04,926.287 L 2546.03,917.192 L 2531.11,904.951 L 2518.87,890.036 L 2509.78,873.02 L 2504.17,854.556 L 2502.28,835.354 z " style="fill-opacity:1.000000;fill:rgb(181,115,59);stroke:rgb(0,0,0);stroke-width:2"/></g>
<g fill-rule="evenodd"><path d="M 2554.09,2498.43 L 2554.09,2435.43 L 2555.38,2422.38 L 2559.19,2409.82 L 2565.37,2398.25 L 2573.7,2388.11 L 2583.84,2379.78 L 2595.41,2373.6 L 2607.97,2369.79 L 2621.02,2368.5 L 2634.08,2369.79 L 2646.64,2373.6 L 2658.21,2379.78 L 2668.35,2388.11 L 2676.67,2398.25 L 2682.86,2409.82 L 2686.67,2422.38 L 2687.95,2435.43 L 2687.95,2498.43 L 2686.67,2511.48 L 2682.86,2524.04 L 2676.67,2535.61 L 2668.35,2545.75 L 2658.21,2554.07 L 2646.64,2560.26 L 2634.08,2564.07 L 2621.02,2565.35 L 2607.97,2564.07 L 2595.41,2560.26 L 2583.84,2554.07 L 2573.7,2545.75 L 2565.37,2535.61 L 2559.19,2524.04 L 2555.38,2511.48 L 2554.09,2498.43 z " style="fill-opacity:1.000000;fill:rgb(4,92,211);stroke:rgb(0,0,0);stroke-width:2"/></g>
<g fill-rule="evenodd"><path d="M 2554.09,2194.49 L 2554.09,2131.5 L 2555.38,2118.44 L 2559.19,2105.88 L 2565.37,2094.31 L 2573.7,2084.17 L 2583.84,2075.85 L 2595.41,2069.66 L 2607.97,2065.85 L 2621.02,2064.57 L 2634.08,2065.85 L 2646.64,2069.66 L 2658.21,2075.85 L 2668.35,2084.17 L 2676.67,2094.31 L 2682.86,2105.88 L 2686.67,2118.44 L 2687.95,2131.5 L 2687.95,2194.49 L 2686.67,2207.55 L 2682.86,2220.1 L 2676.67,2231.67 L 2668.35,2241.81 L 2658.21,2250.14 L 2646.64,2256.32 L 2634.08,2260.13 L 2621.02,2261.42 L 2607.97,2260.13 L 2595.41,2256.32 L 2583.84,2250.14 L 2573.7,2241.81 L 2565.37,2231.67 L 2559.19,2220.1 L 2555.38,2207.55 L 2554.09,2194.49 z " style="fill-opacity:1.000000;fill:rgb(54,148,179);stroke:rgb(0,0,0);stroke-width:2"/></g>
<g fill-rule="evenodd"><path d="M 2554.09,1879.53 L 2554.09,1816.54 L 2555.38,1803.48 L 2559.19,1790.92 L 2565.37,1779.35 L 2573.7,1769.21 L 2583.84,1760.89 L 2595.41,1754.7 L 2607.97,1750.89 L 2621.02,1749.61 L 2634.08,1750.89 L 2646.64,1754.7 L 2658.21,1760.89 L 2668.35,1769.21 L 2676.67,1779.35 L 2682.86,1790.92 L 2686.67,1803.48 L 2687.95,1816.54 L 2687.95,1879.53 L 2686.67,1892.58 L 2682.86,1905.14 L 2676.67,1916.71 L 2668.35,1926.85 L 2658.21,1935.18 L 2646.64,1941.36 L 2634.08,1945.17 L 2621.02,1946.46 L 2607.97,1945.17 L 2595.41,1941.36 L 2583.84,1935.18 L 2573.7,1926.85 L 2565.37,1916.71 L 2559.19,1905.14 L 2555.38,1892.58 L 2554.09,1879.53 z " style="fill-opacity:1.000000;fill:rgb(175,226,240);stroke:rgb(0,0,0);stroke-width:2"/></g>
<g fill-rule="evenodd"><path d="M 2683.78,2923.78 L 2683.78,2726.93 L 2817.64,2726.93 L 2817.64,2923.78 L 2683.78,2923.78 z " style="fill-opacity:1.000000;fill:rgb(228,158,79);stroke:rgb(0,0,0);stroke-width:2"/></g>
<g fill-rule="evenodd"><path d="M 2683.78,516.85 L 2683.78,453.858 L 2685.07,440.801 L 2688.87,428.246 L 2695.06,416.674 L 2703.38,406.532 L 2713.52,398.209 L 2725.1,392.024 L 2737.65,388.215 L 2750.71,386.929 L 2763.77,388.215 L 2776.32,392.024 L 2787.89,398.209 L 2798.03,406.532 L 2806.36,416.674 L 2812.54,428.246 L 2816.35,440.801 L 2817.64,453.858 L 2817.64,516.85 L 2816.35,529.908 L 2812.54,542.463 L 2806.36,554.034 L 2798.03,564.176 L 2787.89,572.5 L 2776.32,578.685 L 2763.77,582.494 L 2750.71,583.78 L 2737.65,582.494 L 2725.1,578.685 L 2713.52,572.5 L 2703.38,564.176 L 2695.06,554.034 L 2688.87,542.463 L 2685.07,529.908 L 2683.78,516.85 z " style="fill-opacity:1.000000;fill:rgb(50,21,73);stroke:rgb(0,0,0);stroke-width:2"/></g>
<g fill-rule="evenodd"><path d="M 2688.5,3852.13 L 2688.5,3789.13 L 2689.79,3776.08 L 2693.6,3763.52 L 2699.78,3751.95 L 2708.11,3741.81 L 2718.25,3733.48 L 2729.82,3727.3 L 2742.38,3723.49 L 2755.43,3722.2 L 2768.49,3723.49 L 2781.05,3727.3 L 2792.62,3733.48 L 2802.76,3741.81 L 2811.08,3751.95 L 2817.27,3763.52 L 2821.08,3776.08 L 2822.36,3789.13 L 2822.36,3852.13 L 2821.08,3865.18 L 2817.27,3877.74 L 2811.08,3889.31 L 2802.76,3899.45 L 2792.62,3907.78 L 2781.05,3913.96 L 2768.49,3917.77 L 2755.43,3919.06 L 2742.38,3917.77 L 2729.82,3913.96 L 2718.25,3907.78 L 2708.11,3899.45 L 2699.78,3889.31 L 2693.6,3877.74 L 2689.79,3865.18 L 2688.5,3852.13 z " style="fill-opacity:1.000000;fill:rgb(253,130,78);stroke:rgb(0,0,0);stroke-width:2"/></g>
<g fill-rule="evenodd"><path d="M 2688.5,1512.13 L 2688.5,1449.13 L 2689.79,1436.08 L 2693.6,1423.52 L 2699.78,1411.95 L 2708.11,1401.81 L 2718.25,1393.48 L 2729.82,1387.3 L 2742.38,1383.49 L 2755.43,1382.2 L 2768.49,1383.49 L 2781.05,1387.3 L 2792.62,1393.48 L 2802.76,1401.81 L 2811.08,1411.95 L 2817.27,1423.52 L 2821.08,1436.08 L 2822.36,1449.13 L 2822.36,1512.13 L 2821.08,1525.18 L 2817.27,1537.74 L 2811.08,1549.31 L 2802.76,1559.45 L 2792.62,1567.78 L 2781.05,1573.96 L 2768.49,1577.77 L 2755.43,1579.06 L 2742.38,1577.77 L 2729.82,1573.96 L 2718.25,1567.78 L 2708.11,1559.45 L 2699.78,1549.31 L 2693.6,1537.74 L 2689.79,1525.18 L 2688.5,1512.13 z " style="fill-opacity:1.000000;fill:rgb(169,8,112);stroke:rgb(0,0,0);stroke-width:2"/></g>
<g fill-rule="evenodd"><path d="M 2792.28,5672.28 L 2792.28,5538.43 L 2989.13,5538.43 L 2989.13,5672.28 L 2792.28,5672.28 z " style="fill-opacity:1.000000;fill:rgb(212,178,138);stroke:rgb(0,0,0);stroke-width:2"/></g>
<g fill-rule="evenodd"><path d="M 2792.28,5405.35 L 2793.57,5392.3 L 2797.38,5379.74 L 2803.56,5368.17 L 2811.89,5358.03 L 2822.03,5349.7 L 2833.6,5343.52 L 2846.16,5339.71 L 2859.21,5338.43 L 2922.2,5338.43 L 2935.26,5339.71 L 2947.82,5343.52 L 2959.39,5349.7 L 2969.53,5358.03 L 2977.85,5368.17 L 2984.04,5379.74 L 2987.85,5392.3 L 2989.13,5405.35 L 2987.85,5418.41 L 2984.04,5430.97 L 2977.85,5442.54 L 2969.53,5452.68 L 2959.39,5461 L 2947.82,5467.19 L 2935.26,5471 L 2922.2,5472.28 L 2859.21,5472.28 L 2846.16,5471 L 2833.6,5467.19 L 2822.03,5461 L 2811.89,5452.68 L 2803.56,5442.54 L 2797.38,5430.97 L 2793.57,5418.41 L 2792.28,5405.35 z " style="fill-opacity:1.000000;fill:rgb(41,84,72);stroke:rgb(0,0,0);stroke-width:2"/></g>
<g fill-rule="evenodd"><path d="M 2792.28,5205.35 L 2793.57,5192.3 L 2797.38,5179.74 L 2803.56,5168.17 L 2811.89,5158.03 L 2822.03,5149.7 L 2833.6,5143.52 L 2846.16,5139.71 L 2859.21,5138.43 L 2922.2,5138.43 L 2935.26,5139.71 L 2947.82,5143.52 L 2959.39,5149.7 L 2969.53,5158.03 L 2977.85,5168.17 L 2984.04,5179.74 L 2987.85,5192.3 L 2989.13,5205.35 L 2987.85,5218.41 L 2984.04,5230.97 L 2977.85,5242.54 L 2969.53,5252.68 L 2959.39,5261 L 2947.82,5267.19 L 2935.26,5271 L 2922.2,5272.28 L 2859.21,5272.28 L 2846.16,5271 L 2833.6,5267.19 L 2822.03,5261 L 2811.89,5252.68 L 2803.56,5242.54 L 2797.38,5230.97 L 2793.57,5218.41 L 2792.28,5205.35 z " style="fill-opacity:1.000000;fill:rgb(154,10,188);stroke:rgb(0,0,0);stroke-width:2"/></g>
<g fill-rule="evenodd"><path d="M 3112.28,5672.28 L 3112.28,5538.43 L 3309.13,5538.43 L 3309.13,5672.28 L 3112.28,5672.28 z " style="fill-opacity:1.000000;fill:rgb(213,14,24);stroke:rgb(0,0,0);stroke-width:2"/></g>
<g fill-rule="evenodd"><path d="M 3112.28,5405.35 L 3113.57,5392.3 L 3117.38,5379.74 L 3123.56,5368.17 L 3131.89,5358.03 L 3142.03,5349.7 L 3153.6,5343.52 L 3166.16,5339.71 L 3179.21,5338.43 L 3242.2,5338.43 L 3255.26,5339.71 L 3267.82,5343.52 L 3279.39,5349.7 L 3289.53,5358.03 L 3297.85,5368.17 L 3304.04,5379.74 L 3307.85,5392.3 L 3309.13,5405.35 L 3307.85,5418.41 L 3304.04,5430.97 L 3297.85,5442.54 L 3289.53,5452.68 L 3279.39,5461 L 3267.82,5467.19 L 3255.26,5471 L 3242.2,5472.28 L 3179.21,5472.28 L 3166.16,5471 L 3153.6,5467.19 L 3142.03,5461 L 3131.89,5452.68 L 3123.56,5442.54 L 3117.38,5430.97 L 3113.57,5418.41 L 3112.28,5405.35 z " style="fill-opacity:1.000000;fill:rgb(168,68,172);stroke:rgb(0,0,0);stroke-width:2"/></g>
<g fill-rule="evenodd"><path d="M 3112.28,5205.35 L 3113.57,5192.3 L 3117.38,5179.74 L 3123.56,5168.17 L 3131.89,5158.03 L 3142.03,5149.7 L 3153.6,5143.52 L 3166.16,5139.71 L 3179.21,5138.43 L 3242.2,5138.43 L 3255.26,5139.71 L 3267.82,5143.52 L 3279.39,5149.7 L 3289.53,5158.03 L 3297.85,5168.17 L 3304.04,5179.74 L 3307.85,5192.3 L 3309.13,5205.35 L 3307.85,5218.41 L 3304.04,5230.97 L 3297.85,5242.54 L 3289.53,5252.68 L 3279.39,5261 L 3267.82,5267.19 L 3255.26,5271 L 3242.2,5272.28 L 3179.21,5272.28 L 3166.16,5271 L 3153.6,5267.19 L 3142.03,5261 L 3131.89,5252.68 L 3123.56,5242.54 L 3117.38,5230.97 L 3113.57,5218.41 L 3112.28,5205.35 z " style="fill-opacity:1.000000;fill:rgb(91,243,142);stroke:rgb(0,0,0);stroke-width:2"/></g>
<g fill-rule="evenodd"><path d="M 3635.75,4412.28 L 3635.75,4278.43 L 3911.34,4278.43 L 3911.34,4288.77 L 3913.09,4289.7 L 3923.23,4298.03 L 3931.56,4308.17 L 3937.74,4319.74 L 3941.55,4332.3 L 3942.83,4345.35 L 3941.55,4358.41 L 3937.74,4370.97 L 3931.56,4382.54 L 3923.23,4392.68 L 3913.09,4401 L 3911.34,4401.94 L 3911.34,4412.28 L 3635.75,4412.28 z " style="fill-opacity:1.000000;fill:rgb(76,215,45);stroke:rgb(0,0,0);stroke-width:2"/></g>
<g fill-rule="evenodd"><path d="M 3635.75,4212.28 L 3635.75,4078.43 L 3911.34,4078.43 L 3911.34,4088.77 L 3913.09,4089.7 L 3923.23,4098.03 L 3931.56,4108.17 L 3937.74,4119.74 L 3941.55,4132.3 L 3942.83,4145.35 L 3941.55,4158.41 L 3937.74,4170.97 L 3931.56,4182.54 L 3923.23,4192.68 L 3913.09,4201 L 3911.34,4201.94 L 3911.34,4212.28 L 3635.75,4212.28 z " style="fill-opacity:1.000000;fill:rgb(155,9,66);stroke:rgb(0,0,0);stroke-width:2"/></g>
<g fill-rule="evenodd"><path d="M 3635.75,4012.28 L 3635.75,3878.43 L 3942.83,3878.43 L 3942.83,4012.28 L 3635.75,4012.28 z " style="fill-opacity:1.000000;fill:rgb(229,6,196);stroke:rgb(0,0,0);stroke-width:2"/></g>
<g fill-rule="evenodd"><path d="M 3635.75,3812.28 L 3635.75,3678.43 L 3911.34,3678.43 L 3911.34,3688.77 L 3913.09,3689.7 L 3923.23,3698.03 L 3931.56,3708.17 L 3937.74,3719.74 L 3941.55,3732.3 L 3942.83,3745.35 L 3941.55,3758.41 L 3937.74,3770.97 L 3931.56,3782.54 L 3923.23,3792.68 L 3913.09,3801 L 3911.34,3801.94 L 3911.34,3812.28 L 3635.75,3812.28 z " style="fill-opacity:1.000000;fill:rgb(51,175,205);stroke:rgb(0,0,0);stroke-width:2"/></g>
<g fill-rule="evenodd"><path d="M 3635.75,3612.28 L 3635.75,3478.43 L 3911.34,3478.43 L 3911.34,3488.77 L 3913.09,3489.7 L 3923.23,3498.03 L 3931.56,3508.17 L 3937.74,3519.74 L 3941.55,3532.3 L 3942.83,3545.35 L 3941.55,3558.41 L 3937.74,3570.97 L 3931.56,3582.54 L 3923.23,3592.68 L 3913.09,3601 L 3911.34,3601.94 L 3911.34,3612.28 L 3635.75,3612.28 z " style="fill-opacity:1.000000;fill:rgb(163,132,127);stroke:rgb(0,0,0);stroke-width:2"/></g>
<g fill-rule="evenodd"><path d="M 3635.75,3412.28 L 3635.75,3278.43 L 3911.34,3278.43 L 3911.34,3288.77 L 3913.09,3289.7 L 3923.23,3298.03 L 3931.56,3308.17 L 3937.74,3319.74 L 3941.55,3332.3 L 3942.83,3345.35 L 3941.55,3358.41 L 3937.74,3370.97 L 3931.56,3382.54 L 3923.23,3392.68 L 3913.09,3401 L 3911.34,3401.94 L 3911.34,3412.28 L 3635.75,3412.28 z " style="fill-opacity:1.000000;fill:rgb(45,173,212);stroke:rgb(0,0,0);stroke-width:2"/></g>
<g fill-rule="evenodd"><path d="M 3635.75,3212.28 L 3635.75,3078.43 L 3911.34,3078.43 L 3911.34,3088.77 L 3913.09,3089.7 L 3923.23,3098.03 L 3931.56,3108.17 L 3937.74,3119.74 L 3941.55,3132.3 L 3942.83,3145.35 L 3941.55,3158.41 L 3937.74,3170.97 L 3931.56,3182.54 L 3923.23,3192.68 L 3913.09,3201 L 3911.34,3201.94 L 3911.34,3212.28 L 3635.75,3212.28 z " style="fill-opacity:1.000000;fill:rgb(118,71,222);stroke:rgb(0,0,0);stroke-width:2"/></g>
<g fill-rule="evenodd"><path d="M 3635.75,3012.28 L 3635.75,2878.43 L 3942.83,2878.43 L 3942.83,3012.28 L 3635.75,3012.28 z " style="fill-opacity:1.000000;fill:rgb(50,28,236);stroke:rgb(0,0,0);stroke-width:2"/></g>
<g fill-rule="evenodd"><path d="M 3635.75,2812.28 L 3635.75,2678.43 L 3911.34,2678.43 L 3911.34,2688.77 L 3913.09,2689.7 L 3923.23,2698.03 L 3931.56,2708.17 L 3937.74,2719.74 L 3941.55,2732.3 L 3942.83,2745.35 L 3941.55,2758.41 L 3937.74,2770.97 L 3931.56,2782.54 L 3923.23,2792.68 L 3913.09,2801 L 3911.34,2801.94 L 3911.34,2812.28 L 3635.75,2812.28 z " style="fill-opacity:1.000000;fill:rgb(74,196,48);stroke:rgb(0,0,0);stroke-width:2"/></g>
<g fill-rule="evenodd"><path d="M 3635.75,2612.28 L 3635.75,2478.43 L 3911.34,2478.43 L 3911.34,2488.77 L 3913.09,2489.7 L 3923.23,2498.03 L 3931.56,2508.17 L 3937.74,2519.74 L 3941.55,2532.3 L 3942.83,2545.35 L 3941.55,2558.41 L 3937.74,2570.97 L 3931.56,2582.54 L 3923.23,2592.68 L 3913.09,2601 L 3911.34,2601.94 L 3911.34,2612.28 L 3635.75,2612.28 z " style="fill-opacity:1.000000;fill:rgb(246,32,35);stroke:rgb(0,0,0);stroke-width:2"/></g>
<g fill-rule="evenodd"><path d="M 3635.75,2412.28 L 3635.75,2278.43 L 3911.34,2278.43 L 3911.34,2288.77 L 3913.09,2289.7 L 3923.23,2298.03 L 3931.56,2308.17 L 3937.74,2319.74 L 3941.55,2332.3 L 3942.83,2345.35 L 3941.55,2358.41 L 3937.74,2370.97 L 3931.56,2382.54 L 3923.23,2392.68 L 3913.09,2401 L 3911.34,2401.94 L 3911.34,2412.28 L 3635.75,2412.28 z " style="fill-opacity:1.000000;fill:rgb(133,108,251);stroke:rgb(0,0,0);stroke-width:2"/></g>
<g fill-rule="evenodd"><path d="M 3635.75,2212.28 L 3635.75,2078.43 L 3911.34,2078.43 L 3911.34,2088.77 L 3913.09,2089.7 L 3923.23,2098.03 L 3931.56,2108.17 L 3937.74,2119.74 L 3941.55,2132.3 L 3942.83,2145.35 L 3941.55,2158.41 L 3937.74,2170.97 L 3931.56,2182.54 L 3923.23,2192.68 L 3913.09,2201 L 3911.34,2201.94 L 3911.34,2212.28 L 3635.75,2212.28 z " style="fill-opacity:1.000000;fill:rgb(178,7,4);stroke:rgb(0,0,0);stroke-width:2"/></g>
<g fill-rule="evenodd"><path d="M 3635.75,2012.28 L 3635.75,1878.43 L 3942.83,1878.43 L 3942.83,2012.28 L 3635.75,2012.28 z " style="fill-opacity:1.000000;fill:rgb(244,236,11);stroke:rgb(0,0,0);stroke-width:2"/></g>
<g fill-rule="evenodd"><path d="M 3635.75,1812.28 L 3635.75,1678.43 L 3911.34,1678.43 L 3911.34,1688.77 L 3913.09,1689.7 L 3923.23,1698.03 L 3931.56,1708.17 L 3937.74,1719.74 L 3941.55,1732.3 L 3942.83,1745.35 L 3941.55,1758.41 L 3937.74,1770.97 L 3931.56,1782.54 L 3923.23,1792.68 L 3913.09,1801 L 3911.34,1801.94 L 3911.34,1812.28 L 3635.75,1812.28 z " style="fill-opacity:1.000000;fill:rgb(185,32,186);stroke:rgb(0,0,0);stroke-width:2"/></g>
<g fill-rule="evenodd"><path d="M 3635.75,1612.28 L 3635.75,1478.43 L 3911.34,1478.43 L 3911.34,1488.77 L 3913.09,1489.7 L 3923.23,1498.03 L 3931.56,1508.17 L 3937.74,1519.74 L 3941.55,1532.3 L 3942.83,1545.35 L 3941.55,1558.41 L 3937.74,1570.97 L 3931.56,1582.54 L 3923.23,1592.68 L 3913.09,1601 L 3911.34,1601.94 L 3911.34,1612.28 L 3635.75,1612.28 z " style="fill-opacity:1.000000;fill:rgb(134,195,62);stroke:rgb(0,0,0);stroke-width:2"/></g>
<g fill-rule="evenodd"><path d="M 3635.75,1412.28 L 3635.75,1278.43 L 3911.34,1278.43 L 3911.34,1288.77 L 3913.09,1289.7 L 3923.23,1298.03 L 3931.56,1308.17 L 3937.74,1319.74 L 3941.55,1332.3 L 3942.83,1345.35 L 3941.55,1358.41 L 3937.74,1370.97 L 3931.56,1382.54 L 3923.23,1392.68 L 3913.09,1401 L 3911.34,1401.94 L 3911.34,1412.28 L 3635.75,1412.28 z " style="fill-opacity:1.000000;fill:rgb(5,241,236);stroke:rgb(0,0,0);stroke-width:2"/></g>
<g fill-rule="evenodd"><path d="M 3635.75,1212.28 L 3635.75,1078.43 L 3911.34,1078.43 L 3911.34,1088.77 L 3913.09,1089.7 L 3923.23,1098.03 L 3931.56,1108.17 L 3937.74,1119.74 L 3941.55,1132.3 L 3942.83,1145.35 L 3941.55,1158.41 L 3937.74,1170.97 L 3931.56,1182.54 L 3923.23,1192.68 L 3913.09,1201 L 3911.34,1201.94 L 3911.34,1212.28 L 3635.75,1212.28 z " style="fill-opacity:1.000000;fill:rgb(217,103,51);stroke:rgb(0,0,0);stroke-width:2"/></g>
<g fill-rule="evenodd"><path d="M 3635.75,1012.28 L 3635.75,878.425 L 3942.83,878.425 L 3942.83,1012.28 L 3635.75,1012.28 z " style="fill-opacity:1.000000;fill:rgb(183,153,80);stroke:rgb(0,0,0);stroke-width:2"/></g>
<g fill-rule="evenodd"><path d="M 3635.75,812.283 L 3635.75,678.425 L 3911.34,678.425 L 3911.34,688.769 L 3913.09,689.705 L 3923.23,698.028 L 3931.56,708.17 L 3937.74,719.742 L 3941.55,732.297 L 3942.83,745.354 L 3941.55,758.412 L 3937.74,770.967 L 3931.56,782.538 L 3923.23,792.68 L 3913.09,801.004 L 3911.34,801.94 L 3911.34,812.283 L 3635.75,812.283 z " style="fill-opacity:1.000000;fill:rgb(163,227,20);stroke:rgb(0,0,0);stroke-width:2"/></g>
<g fill-rule="evenodd"><path d="M 3635.75,612.283 L 3635.75,478.425 L 3911.34,478.425 L 3911.34,488.769 L 3913.09,489.705 L 3923.23,498.028 L 3931.56,508.17 L 3937.74,519.742 L 3941.55,532.297 L 3942.83,545.354 L 3941.55,558.412 L 3937.74,570.967 L 3931.56,582.538 L 3923.23,592.68 L 3913.09,601.004 L 3911.34,601.94 L 3911.34,612.283 L 3635.75,612.283 z " style="fill-opacity:1.000000;fill:rgb(211,217,52);stroke:rgb(0,0,0);stroke-width:2"/></g>
<g fill-rule="evenodd"><path d="M 4426.3,2445.35 L 4428.57,2422.31 L 4435.29,2400.16 L 4446.2,2379.74 L 4460.89,2361.84 L 4478.79,2347.15 L 4499.21,2336.23 L 4521.37,2329.51 L 4544.41,2327.24 L 4567.45,2329.51 L 4589.61,2336.23 L 4610.03,2347.15 L 4627.93,2361.84 L 4642.61,2379.74 L 4653.53,2400.16 L 4660.25,2422.31 L 4662.52,2445.35 L 4660.25,2468.4 L 4653.53,2490.55 L 4642.61,2510.97 L 4627.93,2528.87 L 4610.03,2543.56 L 4589.61,2554.47 L 4567.45,2561.2 L 4544.41,2563.46 L 4521.37,2561.2 L 4499.21,2554.47 L 4478.79,2543.56 L 4460.89,2528.87 L 4446.2,2510.97 L 4435.29,2490.55 L 4428.57,2468.4 L 4426.3,2445.35 z " style="fill-opacity:1.000000;fill:rgb(247,94,160);stroke:rgb(0,0,0);stroke-width:2"/></g>
<g fill-rule="evenodd"><path d="M 5145.98,4345.35 L 5147.27,4332.3 L 5151.08,4319.74 L 5157.26,4308.17 L 5165.59,4298.03 L 5175.73,4289.7 L 5177.48,4288.77 L 5177.48,4278.43 L 5453.07,4278.43 L 5453.07,4412.28 L 5177.48,4412.28 L 5177.48,4401.94 L 5175.73,4401 L 5165.59,4392.68 L 5157.26,4382.54 L 5151.08,4370.97 L 5147.27,4358.41 L 5145.98,4345.35 z " style="fill-opacity:1.000000;fill:rgb(242,16,168);stroke:rgb(0,0,0);stroke-width:2"/></g>
<g fill-rule="evenodd"><path d="M 5145.98,4145.35 L 5147.27,4132.3 L 5151.08,4119.74 L 5157.26,4108.17 L 5165.59,4098.03 L 5175.73,4089.7 L 5177.48,4088.77 L 5177.48,4078.43 L 5453.07,4078.43 L 5453.07,4212.28 L 5177.48,4212.28 L 5177.48,4201.94 L 5175.73,4201 L 5165.59,4192.68 L 5157.26,4182.54 L 5151.08,4170.97 L 5147.27,4158.41 L 5145.98,4145.35 z " style="fill-opacity:1.000000;fill:rgb(246,5,148);stroke:rgb(0,0,0);stroke-width:2"/></g>
<g fill-rule="evenodd"><path d="M 5145.98,4012.28 L 5145.98,3878.43 L 5453.07,3878.43 L 5453.07,4012.28 L 5145.98,4012.28 z " style="fill-opacity:1.000000;fill:rgb(1,190,180);stroke:rgb(0,0,0);stroke-width:2"/></g>
<g fill-rule="evenodd"><path d="M 5145.98,3745.35 L 5147.27,3732.3 L 5151.08,3719.74 L 5157.26,3708.17 L 5165.59,3698.03 L 5175.73,3689.7 L 5177.48,3688.77 L 5177.48,3678.43 L 5453.07,3678.43 L 5453.07,3812.28 L 5177.48,3812.28 L 5177.48,3801.94 L 5175.73,3801 L 5165.59,3792.68 L 5157.26,3782.54 L 5151.08,3770.97 L 5147.27,3758.41 L 5145.98,3745.35 z " style="fill-opacity:1.000000;fill:rgb(188,68,120);stroke:rgb(0,0,0);stroke-width:2"/></g>
<g fill-rule="evenodd"><path d="M 5145.98,3545.35 L 5147.27,3532.3 L 5151.08,3519.74 L 5157.26,3508.17 L 5165.59,3498.03 L 5175.73,3489.7 L 5177.48,3488.77 L 5177.48,3478.43 L 5453.07,3478.43 L 5453.07,3612.28 L 5177.48,3612.28 L 5177.48,3601.94 L 5175.73,3601 L 5165.59,3592.68 L 5157.26,3582.54 L 5151.08,3570.97 L 5147.27,3558.41 L 5145.98,3545.35 z " style="fill-opacity:1.000000;fill:rgb(250,73,105);stroke:rgb(0,0,0);stroke-width:2"/></g>
<g fill-rule="evenodd"><path d="M 5145.98,3345.35 L 5147.27,3332.3 L 5151.08,3319.74 L 5157.26,3308.17 L 5165.59,3298.03 L 5175.73,3289.7 L 5177.48,3288.77 L 5177.48,3278.43 L 5453.07,3278.43 L 5453.07,3412.28 L 5177.48,3412.28 L 5177.48,3401.94 L 5175.73,3401 L 5165.59,3392.68 L 5157.26,3382.54 L 5151.08,3370.97 L 5147.27,3358.41 L 5145.98,3345.35 z " style="fill-opacity:1.000000;fill:rgb(230,35,208);stroke:rgb(0,0,0);stroke-width:2"/></g>
<g fill-rule="evenodd"><path d="M 5145.98,3145.35 L 5147.27,3132.3 L 5151.08,3119.74 L 5157.26,3108.17 L 5165.59,3098.03 L 5175.73,3089.7 L 5177.48,3088.77 L 5177.48,3078.43 L 5453.07,3078.43 L 5453.07,3212.28 L 5177.48,3212.28 L 5177.48,3201.94 L 5175.73,3201 L 5165.59,3192.68 L 5157.26,3182.54 L 5151.08,3170.97 L 5147.27,3158.41 L 5145.98,3145.35 z " style="fill-opacity:1.000000;fill:rgb(26,218,105);stroke:rgb(0,0,0);stroke-width:2"/></g>
<g fill-rule="evenodd"><path d="M 5145.98,3012.28 L 5145.98,2878.43 L 5453.07,2878.43 L 5453.07,3012.28 L 5145.98,3012.28 z " style="fill-opacity:1.000000;fill:rgb(106,126,76);stroke:rgb(0,0,0);stroke-width:2"/></g>
<g fill-rule="evenodd"><path d="M 5145.98,2745.35 L 5147.27,2732.3 L 5151.08,2719.74 L 5157.26,2708.17 L 5165.59,2698.03 L 5175.73,2689.7 L 5177.48,2688.77 L 5177.48,2678.43 L 5453.07,2678.43 L 5453.07,2812.28 L 5177.48,2812.28 L 5177.48,2801.94 L 5175.73,2801 L 5165.59,2792.68 L 5157.26,2782.54 L 5151.08,2770.97 L 5147.27,2758.41 L 5145.98,2745.35 z " style="fill-opacity:1.000000;fill:rgb(126,81,37);stroke:rgb(0,0,0);stroke-width:2"/></g>
<g fill-rule="evenodd"><path d="M 5145.98,2545.35 L 5147.27,2532.3 L 5151.08,2519.74 L 5157.26,2508.17 L 5165.59,2498.03 L 5175.73,2489.7 L 5177.48,2488.77 L 5177.48,2478.43 L 5453.07,2478.43 L 5453.07,2612.28 L 5177.48,2612.28 L 5177.48,2601.94 L 5175.73,2601 L 5165.59,2592.68 L 5157.26,2582.54 L 5151.08,2570.97 L 5147.27,2558.41 L 5145.98,2545.35 z " style="fill-opacity:1.000000;fill:rgb(179,72,132);stroke:rgb(0,0,0);stroke-width:2"/></g>
<g fill-rule="evenodd"><path d="M 5145.98,2345.35 L 5147.27,2332.3 L 5151.08,2319.74 L 5157.26,2308.17 L 5165.59,2298.03 L 5175.73,2289.7 L 5177.48,2288.77 L 5177.48,2278.43 L 5453.07,2278.43 L 5453.07,2412.28 L 5177.48,2412.28 L 5177.48,2401.94 L 5175.73,2401 L 5165.59,2392.68 L 5157.26,2382.54 L 5151.08,2370.97 L 5147.27,2358.41 L 5145.98,2345.35 z " style="fill-opacity:1.000000;fill:rgb(83,58,148);stroke:rgb(0,0,0);stroke-width:2"/></g>
<g fill-rule="evenodd"><path d="M 5145.98,2145.35 L 5147.27,2132.3 L 5151.08,2119.74 L 5157.26,2108.17 L 5165.59,2098.03 L 5175.73,2089.7 L 5177.48,2088.77 L 5177.48,2078.43 L 5453.07,2078.43 L 5453.07,2212.28 L 5177.48,2212.28 L 5177.48,2201.94 L 5175.73,2201 L 5165.59,2192.68 L 5157.26,2182.54 L 5151.08,2170.97 L 5147.27,2158.41 L 5145.98,2145.35 z " style="fill-opacity:1.000000;fill:rgb(251,49,153);stroke:rgb(0,0,0);stroke-width:2"/></g>
<g fill-rule="evenodd"><path d="M 5145.98,2012.28 L 5145.98,1878.43 L 5453.07,1878.43 L 5453.07,2012.28 L 5145.98,2012.28 z " style="fill-opacity:1.000000;fill:rgb(144,50,87);stroke:rgb(0,0,0);stroke-width:2"/></g>
<g fill-rule="evenodd"><path d="M 5145.98,1745.35 L 5147.27,1732.3 L 5151.08,1719.74 L 5157.26,1708.17 L 5165.59,1698.03 L 5175.73,1689.7 L 5177.48,1688.77 L 5177.48,1678.43 L 5453.07,1678.43 L 5453.07,1812.28 L 5177.48,1812.28 L 5177.48,1801.94 L 5175.73,1801 L 5165.59,1792.68 L 5157.26,1782.54 L 5151.08,1770.97 L 5147.27,1758.41 L 5145.98,1745.35 z " style="fill-opacity:1.000000;fill:rgb(68,238,155);stroke:rgb(0,0,0);stroke-width:2"/></g>
<g fill-rule="evenodd"><path d="M 5145.98,1545.35 L 5147.27,1532.3 L 5151.08,1519.74 L 5157.26,1508.17 L 5165.59,1498.03 L 5175.73,1489.7 L 5177.48,1488.77 L 5177.48,1478.43 L 5453.07,1478.43 L 5453.07,1612.28 L 5177.48,1612.28 L 5177.48,1601.94 L 5175.73,1601 L 5165.59,1592.68 L 5157.26,1582.54 L 5151.08,1570.97 L 5147.27,1558.41 L 5145.98,1545.35 z " style="fill-opacity:1.000000;fill:rgb(188,233,229);stroke:rgb(0,0,0);stroke-width:2"/></g>
<g fill-rule="evenodd"><path d="M 5145.98,1345.35 L 5147.27,1332.3 L 5151.08,1319.74 L 5157.26,1308.17 L 5165.59,1298.03 L 5175.73,1289.7 L 5177.48,1288.77 L 5177.48,1278.43 L 5453.07,1278.43 L 5453.07,1412.28 L 5177.48,1412.28 L 5177.48,1401.94 L 5175.73,1401 L 5165.59,1392.68 L 5157.26,1382.54 L 5151.08,1370.97 L 5147.27,1358.41 L 5145.98,1345.35 z " style="fill-opacity:1.000000;fill:rgb(37,207,8);stroke:rgb(0,0,0);stroke-width:2"/></g>
<g fill-rule="evenodd"><path d="M 5145.98,1145.35 L 5147.27,1132.3 L 5151.08,1119.74 L 5157.26,1108.17 L 5165.59,1098.03 L 5175.73,1089.7 L 5177.48,1088.77 L 5177.48,1078.43 L 5453.07,1078.43 L 5453.07,1212.28 L 5177.48,1212.28 L 5177.48,1201.94 L 5175.73,1201 L 5165.59,1192.68 L 5157.26,1182.54 L 5151.08,1170.97 L 5147.27,1158.41 L 5145.98,1145.35 z " style="fill-opacity:1.000000;fill:rgb(245,233,226);stroke:rgb(0,0,0);stroke-width:2"/></g>
<g fill-rule="evenodd"><path d="M 5145.98,1012.28 L 5145.98,878.425 L 5453.07,878.425 L 5453.07,1012.28 L 5145.98,1012.28 z " style="fill-opacity:1.000000;fill:rgb(94,83,96);stroke:rgb(0,0,0);stroke-width:2"/></g>
<g fill-rule="evenodd"><path d="M 5145.98,745.354 L 5147.27,732.297 L 5151.08,719.742 L 5157.26,708.17 L 5165.59,698.028 L 5175.73,689.705 L 5177.48,688.769 L 5177.48,678.425 L 5453.07,678.425 L 5453.07,812.283 L 5177.48,812.283 L 5177.48,801.94 L 5175.73,801.004 L 5165.59,792.68 L 5157.26,782.538 L 5151.08,770.967 L 5147.27,758.412 L 5145.98,745.354 z " style="fill-opacity:1.000000;fill:rgb(170,210,178);stroke:rgb(0,0,0);stroke-width:2"/></g>
<g fill-rule="evenodd"><path d="M 5145.98,545.354 L 5147.27,532.297 L 5151.08,519.742 L 5157.26,508.17 L 5165.59,498.028 L 5175.73,489.705 L 5177.48,488.769 L 5177.48,478.425 L 5453.07,478.425 L 5453.07,612.283 L 5177.48,612.283 L 5177.48,601.94 L 5175.73,601.004 L 5165.59,592.68 L 5157.26,582.538 L 5151.08,570.967 L 5147.27,558.412 L 5145.98,545.354 z " style="fill-opacity:1.000000;fill:rgb(208,133,250);stroke:rgb(0,0,0);stroke-width:2"/></g>
<g fill-rule="evenodd"><path d="M 5732.28,1165.35 L 5734.17,1146.15 L 5739.78,1127.69 L 5748.87,1110.67 L 5761.11,1095.76 L 5776.03,1083.52 L 5793.04,1074.42 L 5811.51,1068.82 L 5830.71,1066.93 L 5849.91,1068.82 L 5868.37,1074.42 L 5885.39,1083.52 L 5900.31,1095.76 L 5912.55,1110.67 L 5921.64,1127.69 L 5927.24,1146.15 L 5929.13,1165.35 L 5927.24,1184.56 L 5921.64,1203.02 L 5912.55,1220.04 L 5900.31,1234.95 L 5885.39,1247.19 L 5868.37,1256.29 L 5849.91,1261.89 L 5830.71,1263.78 L 5811.51,1261.89 L 5793.04,1256.29 L 5776.03,1247.19 L 5761.11,1234.95 L 5748.87,1220.04 L 5739.78,1203.02 L 5734.17,1184.56 L 5732.28,1165.35 z " style="fill-opacity:1.000000;fill:rgb(84,216,53);stroke:rgb(0,0,0);stroke-width:2"/></g>
<g fill-rule="evenodd"><path d="M 5863.78,2043.78 L 5863.78,1846.93 L 5997.64,1846.93 L 5997.64,2043.78 L 5863.78,2043.78 z " style="fill-opacity:1.000000;fill:rgb(232,212,102);stroke:rgb(0,0,0);stroke-width:2"/></g>
<g fill-rule="evenodd"><path d="M 5863.78,1743.78 L 5863.78,1546.93 L 5997.64,1546.93 L 5997.64,1743.78 L 5863.78,1743.78 z " style="fill-opacity:1.000000;fill:rgb(130,100,152);stroke:rgb(0,0,0);stroke-width:2"/></g>
<g fill-rule="evenodd"><path d="M 6032.28,1165.35 L 6034.17,1146.15 L 6039.78,1127.69 L 6048.87,1110.67 L 6061.11,1095.76 L 6076.03,1083.52 L 6093.04,1074.42 L 6111.51,1068.82 L 6130.71,1066.93 L 6149.91,1068.82 L 6168.37,1074.42 L 6185.39,1083.52 L 6200.31,1095.76 L 6212.55,1110.67 L 6221.64,1127.69 L 6227.24,1146.15 L 6229.13,1165.35 L 6227.24,1184.56 L 6221.64,1203.02 L 6212.55,1220.04 L 6200.31,1234.95 L 6185.39,1247.19 L 6168.37,1256.29 L 6149.91,1261.89 L 6130.71,1263.78 L 6111.51,1261.89 L 6093.04,1256.29 L 6076.03,1247.19 L 6061.11,1234.95 L 6048.87,1220.04 L 6039.78,1203.02 L 6034.17,1184.56 L 6032.28,1165.35 z " style="fill-opacity:1.000000;fill:rgb(217,168,135);stroke:rgb(0,0,0);stroke-width:2"/></g>
<g fill-rule="evenodd"><path d="M 6063.78,1976.85 L 6063.78,1913.86 L 6065.07,1900.8 L 6068.87,1888.25 L 6075.06,1876.67 L 6083.38,1866.53 L 6093.52,1858.21 L 6105.1,1852.02 L 6117.65,1848.22 L 6130.71,1846.93 L 6143.77,1848.22 L 6156.32,1852.02 L 6167.89,1858.21 L 6178.03,1866.53 L 6186.36,1876.67 L 6192.54,1888.25 L 6196.35,1900.8 L 6197.64,1913.86 L 6197.64,1976.85 L 6196.35,1989.91 L 6192.54,2002.46 L 6186.36,2014.03 L 6178.03,2024.18 L 6167.89,2032.5 L 6156.32,2038.68 L 6143.77,2042.49 L 6130.71,2043.78 L 6117.65,2042.49 L 6105.1,2038.68 L 6093.52,2032.5 L 6083.38,2024.18 L 6075.06,2014.03 L 6068.87,2002.46 L 6065.07,1989.91 L 6063.78,1976.85 z " style="fill-opacity:1.000000;fill:rgb(117,101,112);stroke:rgb(0,0,0);stroke-width:2"/></g>
<g fill-rule="evenodd"><path d="M 6063.78,1676.85 L 6063.78,1613.86 L 6065.07,1600.8 L 6068.87,1588.25 L 6075.06,1576.67 L 6083.38,1566.53 L 6093.52,1558.21 L 6105.1,1552.02 L 6117.65,1548.22 L 6130.71,1546.93 L 6143.77,1548.22 L 6156.32,1552.02 L 6167.89,1558.21 L 6178.03,1566.53 L 6186.36,1576.67 L 6192.54,1588.25 L 6196.35,1600.8 L 6197.64,1613.86 L 6197.64,1676.85 L 6196.35,1689.91 L 6192.54,1702.46 L 6186.36,1714.03 L 6178.03,1724.18 L 6167.89,1732.5 L 6156.32,1738.68 L 6143.77,1742.49 L 6130.71,1743.78 L 6117.65,1742.49 L 6105.1,1738.68 L 6093.52,1732.5 L 6083.38,1724.18 L 6075.06,1714.03 L 6068.87,1702.46 L 6065.07,1689.91 L 6063.78,1676.85 z " style="fill-opacity:1.000000;fill:rgb(90,138,63);stroke:rgb(0,0,0);stroke-width:2"/></g>
<g fill-rule="evenodd"><path d="M 6063.78,776.85 L 6063.78,713.858 L 6065.07,700.801 L 6068.87,688.246 L 6075.06,676.674 L 6083.38,666.532 L 6093.52,658.209 L 6105.1,652.024 L 6117.65,648.215 L 6130.71,646.929 L 6143.77,648.215 L 6156.32,652.024 L 6167.89,658.209 L 6178.03,666.532 L 6186.36,676.674 L 6192.54,688.246 L 6196.35,700.801 L 6197.64,713.858 L 6197.64,776.85 L 6196.35,789.908 L 6192.54,802.463 L 6186.36,814.034 L 6178.03,824.176 L 6167.89,832.5 L 6156.32,838.685 L 6143.77,842.494 L 6130.71,843.78 L 6117.65,842.494 L 6105.1,838.685 L 6093.52,832.5 L 6083.38,824.176 L 6075.06,814.034 L 6068.87,802.463 L 6065.07,789.908 L 6063.78,776.85 z " style="fill-opacity:1.000000;fill:rgb(98,128,41);stroke:rgb(0,0,0);stroke-width:2"/></g>
<g fill-rule="evenodd"><path d="M 6263.78,1976.85 L 6263.78,1913.86 L 6265.07,1900.8 L 6268.87,1888.25 L 6275.06,1876.67 L 6283.38,1866.53 L 6293.52,1858.21 L 6305.1,1852.02 L 6317.65,1848.22 L 6330.71,1846.93 L 6343.77,1848.22 L 6356.32,1852.02 L 6367.89,1858.21 L 6378.03,1866.53 L 6386.36,1876.67 L 6392.54,1888.25 L 6396.35,1900.8 L 6397.64,1913.86 L 6397.64,1976.85 L 6396.35,1989.91 L 6392.54,2002.46 L 6386.36,2014.03 L 6378.03,2024.18 L 6367.89,2032.5 L 6356.32,2038.68 L 6343.77,2042.49 L 6330.71,2043.78 L 6317.65,2042.49 L 6305.1,2038.68 L 6293.52,2032.5 L 6283.38,2024.18 L 6275.06,2014.03 L 6268.87,2002.46 L 6265.07,1989.91 L 6263.78,1976.85 z " style="fill-opacity:1.000000;fill:rgb(68,222,124);stroke:rgb(0,0,0);stroke-width:2"/></g>
<g fill-rule="evenodd"><path d="M 6263.78,1676.85 L 6263.78,1613.86 L 6265.07,1600.8 L 6268.87,1588.25 L 6275.06,1576.67 L 6283.38,1566.53 L 6293.52,1558.21 L 6305.1,1552.02 L 6317.65,1548.22 L 6330.71,1546.93 L 6343.77,1548.22 L 6356.32,1552.02 L 6367.89,1558.21 L 6378.03,1566.53 L 6386.36,1576.67 L 6392.54,1588.25 L 6396.35,1600.8 L 6397.64,1613.86 L 6397.64,1676.85 L 6396.35,1689.91 L 6392.54,1702.46 L 6386.36,1714.03 L 6378.03,1724.18 L 6367.89,1732.5 L 6356.32,1738.68 L 6343.77,1742.49 L 6330.71,1743.78 L 6317.65,1742.49 L 6305.1,1738.68 L 6293.52,1732.5 L 6283.38,1724.18 L 6275.06,1714.03 L 6268.87,1702.46 L 6265.07,1689.91 L 6263.78,1676.85 z " style="fill-opacity:1.000000;fill:rgb(165,137,78);stroke:rgb(0,0,0);stroke-width:2"/></g>
<g fill-rule="evenodd"><path d="M 6263.78,843.78 L 6263.78,646.929 L 6397.64,646.929 L 6397.64,843.78 L 6263.78,843.78 z " style="fill-opacity:1.000000;fill:rgb(87,89,211);stroke:rgb(0,0,0);stroke-width:2"/></g>
<g fill-rule="evenodd"><path d="M 6372.6,1165.35 L 6374.87,1142.31 L 6381.59,1120.16 L 6392.5,1099.74 L 6407.19,1081.84 L 6425.09,1067.15 L 6445.51,1056.23 L 6467.67,1049.51 L 6490.71,1047.24 L 6513.75,1049.51 L 6535.91,1056.23 L 6556.33,1067.15 L 6574.23,1081.84 L 6588.91,1099.74 L 6599.83,1120.16 L 6606.55,1142.31 L 6608.82,1165.35 L 6606.55,1188.4 L 6599.83,1210.55 L 6588.91,1230.97 L 6574.23,1248.87 L 6556.33,1263.56 L 6535.91,1274.47 L 6513.75,1281.2 L 6490.71,1283.46 L 6467.67,1281.2 L 6445.51,1274.47 L 6425.09,1263.56 L 6407.19,1248.87 L 6392.5,1230.97 L 6381.59,1210.55 L 6374.87,1188.4 L 6372.6,1165.35 z " style="fill-opacity:1.000000;fill:rgb(81,173,172);stroke:rgb(0,0,0);stroke-width:2"/></g>
<g fill-rule="evenodd"><path d="M 7550.28,4782.28 L 7550.28,4648.43 L 7747.13,4648.43 L 7747.13,4782.28 L 7550.28,4782.28 z " style="fill-opacity:1.000000;fill:rgb(134,149,128);stroke:rgb(0,0,0);stroke-width:2"/></g>
<g fill-rule="evenodd"><path d="M 7550.28,4515.35 L 7551.57,4502.3 L 7555.38,4489.74 L 7561.56,4478.17 L 7569.89,4468.03 L 7580.03,4459.7 L 7591.6,4453.52 L 7604.16,4449.71 L 7617.21,4448.43 L 7680.2,4448.43 L 7693.26,4449.71 L 7705.82,4453.52 L 7717.39,4459.7 L 7727.53,4468.03 L 7735.85,4478.17 L 7742.04,4489.74 L 7745.85,4502.3 L 7747.13,4515.35 L 7745.85,4528.41 L 7742.04,4540.97 L 7735.85,4552.54 L 7727.53,4562.68 L 7717.39,4571 L 7705.82,4577.19 L 7693.26,4581 L 7680.2,4582.28 L 7617.21,4582.28 L 7604.16,4581 L 7591.6,4577.19 L 7580.03,4571 L 7569.89,4562.68 L 7561.56,4552.54 L 7555.38,4540.97 L 7551.57,4528.41 L 7550.28,4515.35 z " style="fill-opacity:1.000000;fill:rgb(236,23,228);stroke:rgb(0,0,0);stroke-width:2"/></g>
<g fill-rule="evenodd"><path d="M 7552.68,3452.68 L 7552.68,3318.82 L 7749.53,3318.82 L 7749.53,3452.68 L 7552.68,3452.68 z " style="fill-opacity:1.000000;fill:rgb(133,241,140);stroke:rgb(0,0,0);stroke-width:2"/></g>
<g fill-rule="evenodd"><path d="M 7552.68,3185.75 L 7553.96,3172.69 L 7557.77,3160.14 L 7563.96,3148.56 L 7572.28,3138.42 L 7582.42,3130.1 L 7593.99,3123.91 L 7606.55,3120.1 L 7619.61,3118.82 L 7682.6,3118.82 L 7695.66,3120.1 L 7708.21,3123.91 L 7719.78,3130.1 L 7729.92,3138.42 L 7738.25,3148.56 L 7744.43,3160.14 L 7748.24,3172.69 L 7749.53,3185.75 L 7748.24,3198.81 L 7744.43,3211.36 L 7738.25,3222.93 L 7729.92,3233.07 L 7719.78,3241.4 L 7708.21,3247.58 L 7695.66,3251.39 L 7682.6,3252.68 L 7619.61,3252.68 L 7606.55,3251.39 L 7593.99,3247.58 L 7582.42,3241.4 L 7572.28,3233.07 L 7563.96,3222.93 L 7557.77,3211.36 L 7553.96,3198.81 L 7552.68,3185.75 z " style="fill-opacity:1.000000;fill:rgb(12,102,241);stroke:rgb(0,0,0);stroke-width:2"/></g>
<g fill-rule="evenodd"><path d="M 7988.28,4715.35 L 7989.57,4702.3 L 7993.38,4689.74 L 7999.56,4678.17 L 8007.89,4668.03 L 8018.03,4659.7 L 8029.6,4653.52 L 8042.16,4649.71 L 8055.21,4648.43 L 8118.2,4648.43 L 8131.26,4649.71 L 8143.82,4653.52 L 8155.39,4659.7 L 8165.53,4668.03 L 8173.85,4678.17 L 8180.04,4689.74 L 8183.85,4702.3 L 8185.13,4715.35 L 8183.85,4728.41 L 8180.04,4740.97 L 8173.85,4752.54 L 8165.53,4762.68 L 8155.39,4771 L 8143.82,4777.19 L 8131.26,4781 L 8118.2,4782.28 L 8055.21,4782.28 L 8042.16,4781 L 8029.6,4777.19 L 8018.03,4771 L 8007.89,4762.68 L 7999.56,4752.54 L 7993.38,4740.97 L 7989.57,4728.41 L 7988.28,4715.35 z " style="fill-opacity:1.000000;fill:rgb(124,192,124);stroke:rgb(0,0,0);stroke-width:2"/></g>
<g fill-rule="evenodd"><path d="M 7988.28,4582.28 L 7988.28,4448.43 L 8185.13,4448.43 L 8185.13,4582.28 L 7988.28,4582.28 z " style="fill-opacity:1.000000;fill:rgb(187,34,252);stroke:rgb(0,0,0);stroke-width:2"/></g>
<g fill-rule="evenodd"><path d="M 7992.28,3385.35 L 7993.57,3372.3 L 7997.38,3359.74 L 8003.56,3348.17 L 8011.89,3338.03 L 8022.03,3329.7 L 8033.6,3323.52 L 8046.16,3319.71 L 8059.21,3318.43 L 8122.2,3318.43 L 8135.26,3319.71 L 8147.82,3323.52 L 8159.39,3329.7 L 8169.53,3338.03 L 8177.85,3348.17 L 8184.04,3359.74 L 8187.85,3372.3 L 8189.13,3385.35 L 8187.85,3398.41 L 8184.04,3410.97 L 8177.85,3422.54 L 8169.53,3432.68 L 8159.39,3441 L 8147.82,3447.19 L 8135.26,3451 L 8122.2,3452.28 L 8059.21,3452.28 L 8046.16,3451 L 8033.6,3447.19 L 8022.03,3441 L 8011.89,3432.68 L 8003.56,3422.54 L 7997.38,3410.97 L 7993.57,3398.41 L 7992.28,3385.35 z " style="fill-opacity:1.000000;fill:rgb(228,102,218);stroke:rgb(0,0,0);stroke-width:2"/></g>
<g fill-rule="evenodd"><path d="M 7992.28,3252.28 L 7992.28,3118.43 L 8189.13,3118.43 L 8189.13,3252.28 L 7992.28,3252.28 z " style="fill-opacity:1.000000;fill:rgb(97,11,99);stroke:rgb(0,0,0);stroke-width:2"/></g>
<g fill-rule="evenodd"><path d="M 8026.77,2398.74 L 8026.77,2258.58 L 8184.25,2258.58 L 8184.25,2398.74 L 8026.77,2398.74 z " style="fill-opacity:1.000000;fill:rgb(175,98,188);stroke:rgb(0,0,0);stroke-width:2"/></g>
<g fill-rule="evenodd"><path d="M 8026.77,2198.74 L 8026.77,2058.58 L 8184.25,2058.58 L 8184.25,2198.74 L 8026.77,2198.74 z " style="fill-opacity:1.000000;fill:rgb(131,180,105);stroke:rgb(0,0,0);stroke-width:2"/></g>
<g fill-rule="evenodd"><path d="M 8026.77,1998.74 L 8026.77,1858.58 L 8184.25,1858.58 L 8184.25,1998.74 L 8026.77,1998.74 z " style="fill-opacity:1.000000;fill:rgb(47,58,255);stroke:rgb(0,0,0);stroke-width:2"/></g>
<g fill-rule="evenodd"><path d="M 8777.17,2398.74 L 8777.17,2258.58 L 8934.65,2258.58 L 8934.65,2398.74 L 8777.17,2398.74 z " style="fill-opacity:1.000000;fill:rgb(175,39,22);stroke:rgb(0,0,0);stroke-width:2"/></g>
<g fill-rule="evenodd"><path d="M 8777.17,2198.74 L 8777.17,2058.58 L 8934.65,2058.58 L 8934.65,2198.74 L 8777.17,2198.74 z " style="fill-opacity:1.000000;fill:rgb(147,172,7);stroke:rgb(0,0,0);stroke-width:2"/></g>
<g fill-rule="evenodd"><path d="M 8777.17,1998.74 L 8777.17,1858.58 L 8934.65,1858.58 L 8934.65,1998.74 L 8777.17,1998.74 z " style="fill-opacity:1.000000;fill:rgb(31,184,109);stroke:rgb(0,0,0);stroke-width:2"/></g>
<g fill-rule="evenodd"><path d="M 9643.62,1257.8 L 9643.62,1084.57 L 9645.14,1069.21 L 9649.62,1054.43 L 9656.89,1040.82 L 9666.68,1028.89 L 9678.62,1019.1 L 9692.23,1011.82 L 9707,1007.34 L 9722.36,1005.83 L 9737.72,1007.34 L 9752.49,1011.82 L 9766.11,1019.1 L 9778.04,1028.89 L 9787.83,1040.82 L 9795.11,1054.43 L 9799.59,1069.21 L 9801.1,1084.57 L 9801.1,1257.8 L 9799.59,1273.16 L 9795.11,1287.93 L 9787.83,1301.54 L 9778.04,1313.47 L 9766.11,1323.27 L 9752.49,1330.54 L 9737.72,1335.02 L 9722.36,1336.54 L 9707,1335.02 L 9692.23,1330.54 L 9678.62,1323.27 L 9666.68,1313.47 L 9656.89,1301.54 L 9649.62,1287.93 L 9645.14,1273.16 L 9643.62,1257.8 z " style="fill-opacity:1.000000;fill:rgb(17,52,45);stroke:rgb(0,0,0);stroke-width:2"/></g>
<g fill-rule="evenodd"><path d="M 9838.21,5336.06 L 9840.48,5313.02 L 9847.2,5290.86 L 9858.12,5270.44 L 9872.81,5252.55 L 9890.7,5237.86 L 9911.12,5226.94 L 9933.28,5220.22 L 9956.32,5217.95 L 9979.36,5220.22 L 10001.5,5226.94 L 10021.9,5237.86 L 10039.8,5252.55 L 10054.5,5270.44 L 10065.4,5290.86 L 10072.2,5313.02 L 10074.4,5336.06 L 10072.2,5359.11 L 10065.4,5381.26 L 10054.5,5401.68 L 10039.8,5419.58 L 10021.9,5434.27 L 10001.5,5445.18 L 9979.36,5451.9 L 9956.32,5454.17 L 9933.28,5451.9 L 9911.12,5445.18 L 9890.7,5434.27 L 9872.81,5419.58 L 9858.12,5401.68 L 9847.2,5381.26 L 9840.48,5359.11 L 9838.21,5336.06 z " style="fill-opacity:1.000000;fill:rgb(141,239,79);stroke:rgb(0,0,0);stroke-width:2"/></g>
<g fill-rule="evenodd"><path d="M 9838.21,2186.46 L 9840.48,2163.41 L 9847.2,2141.26 L 9858.12,2120.84 L 9872.81,2102.94 L 9890.7,2088.25 L 9911.12,2077.34 L 9933.28,2070.62 L 9956.32,2068.35 L 9979.36,2070.62 L 10001.5,2077.34 L 10021.9,2088.25 L 10039.8,2102.94 L 10054.5,2120.84 L 10065.4,2141.26 L 10072.2,2163.41 L 10074.4,2186.46 L 10072.2,2209.5 L 10065.4,2231.66 L 10054.5,2252.08 L 10039.8,2269.97 L 10021.9,2284.66 L 10001.5,2295.58 L 9979.36,2302.3 L 9956.32,2304.57 L 9933.28,2302.3 L 9911.12,2295.58 L 9890.7,2284.66 L 9872.81,2269.97 L 9858.12,2252.08 L 9847.2,2231.66 L 9840.48,2209.5 L 9838.21,2186.46 z " style="fill-opacity:1.000000;fill:rgb(137,212,182);stroke:rgb(0,0,0);stroke-width:2"/></g>
<g fill-rule="evenodd"><path d="M 9919.21,1478.27 L 9919.21,1320.79 L 10281.4,1320.79 L 10281.4,1478.27 L 9919.21,1478.27 z " style="fill-opacity:1.000000;fill:rgb(99,53,193);stroke:rgb(0,0,0);stroke-width:2"/></g>
<g fill-rule="evenodd"><path d="M 9934.96,903.465 L 9936.47,888.103 L 9940.95,873.332 L 9948.23,859.719 L 9958.02,847.787 L 9969.96,837.995 L 9983.57,830.718 L 9998.34,826.237 L 10013.7,824.724 L 10186.9,824.724 L 10202.3,826.237 L 10217.1,830.718 L 10230.7,837.995 L 10242.6,847.787 L 10252.4,859.719 L 10259.7,873.332 L 10264.2,888.103 L 10265.7,903.465 L 10264.2,918.826 L 10259.7,933.597 L 10252.4,947.21 L 10242.6,959.142 L 10230.7,968.935 L 10217.1,976.211 L 10202.3,980.692 L 10186.9,982.205 L 10013.7,982.205 L 9998.34,980.692 L 9983.57,976.211 L 9969.96,968.935 L 9958.02,959.142 L 9948.23,947.21 L 9940.95,933.597 L 9936.47,918.826 L 9934.96,903.465 z " style="fill-opacity:1.000000;fill:rgb(199,228,36);stroke:rgb(0,0,0);stroke-width:2"/></g>
<g fill-rule="evenodd"><path d="M 10532.6,5685.35 L 10534.9,5662.31 L 10541.6,5640.16 L 10552.5,5619.74 L 10567.2,5601.84 L 10585.1,5587.15 L 10605.5,5576.23 L 10627.7,5569.51 L 10650.7,5567.24 L 10673.8,5569.51 L 10695.9,5576.23 L 10716.3,5587.15 L 10734.2,5601.84 L 10748.9,5619.74 L 10759.8,5640.16 L 10766.5,5662.31 L 10768.8,5685.35 L 10766.5,5708.4 L 10759.8,5730.55 L 10748.9,5750.97 L 10734.2,5768.87 L 10716.3,5783.56 L 10695.9,5794.47 L 10673.8,5801.2 L 10650.7,5803.46 L 10627.7,5801.2 L 10605.5,5794.47 L 10585.1,5783.56 L 10567.2,5768.87 L 10552.5,5750.97 L 10541.6,5730.55 L 10534.9,5708.4 L 10532.6,5685.35 z " style="fill-opacity:1.000000;fill:rgb(131,103,216);stroke:rgb(0,0,0);stroke-width:2"/></g>
<g fill-rule="evenodd"><path d="M 10532.6,1865.35 L 10534.9,1842.31 L 10541.6,1820.16 L 10552.5,1799.74 L 10567.2,1781.84 L 10585.1,1767.15 L 10605.5,1756.23 L 10627.7,1749.51 L 10650.7,1747.24 L 10673.8,1749.51 L 10695.9,1756.23 L 10716.3,1767.15 L 10734.2,1781.84 L 10748.9,1799.74 L 10759.8,1820.16 L 10766.5,1842.31 L 10768.8,1865.35 L 10766.5,1888.4 L 10759.8,1910.55 L 10748.9,1930.97 L 10734.2,1948.87 L 10716.3,1963.56 L 10695.9,1974.47 L 10673.8,1981.2 L 10650.7,1983.46 L 10627.7,1981.2 L 10605.5,1974.47 L 10585.1,1963.56 L 10567.2,1948.87 L 10552.5,1930.97 L 10541.6,1910.55 L 10534.9,1888.4 L 10532.6,1865.35 z " style="fill-opacity:1.000000;fill:rgb(237,150,18);stroke:rgb(0,0,0);stroke-width:2"/></g>
<g fill-rule="evenodd"><path d="M 10616.1,1257.8 L 10616.1,1084.57 L 10617.6,1069.21 L 10622.1,1054.43 L 10629.3,1040.82 L 10639.1,1028.89 L 10651.1,1019.1 L 10664.7,1011.82 L 10679.4,1007.34 L 10694.8,1005.83 L 10710.2,1007.34 L 10724.9,1011.82 L 10738.5,1019.1 L 10750.5,1028.89 L 10760.3,1040.82 L 10767.5,1054.43 L 10772,1069.21 L 10773.5,1084.57 L 10773.5,1257.8 L 10772,1273.16 L 10767.5,1287.93 L 10760.3,1301.54 L 10750.5,1313.47 L 10738.5,1323.27 L 10724.9,1330.54 L 10710.2,1335.02 L 10694.8,1336.54 L 10679.4,1335.02 L 10664.7,1330.54 L 10651.1,1323.27 L 10639.1,1313.47 L 10629.3,1301.54 L 10622.1,1287.93 L 10617.6,1273.16 L 10616.1,1257.8 z " style="fill-opacity:1.000000;fill:rgb(236,69,57);stroke:rgb(0,0,0);stroke-width:2"/></g>
<g fill-rule="evenodd"><path d="M 10772.6,5685.35 L 10774.9,5662.31 L 10781.6,5640.16 L 10792.5,5619.74 L 10807.2,5601.84 L 10825.1,5587.15 L 10845.5,5576.23 L 10867.7,5569.51 L 10890.7,5567.24 L 10913.8,5569.51 L 10935.9,5576.23 L 10956.3,5587.15 L 10974.2,5601.84 L 10988.9,5619.74 L 10999.8,5640.16 L 11006.5,5662.31 L 11008.8,5685.35 L 11006.5,5708.4 L 10999.8,5730.55 L 10988.9,5750.97 L 10974.2,5768.87 L 10956.3,5783.56 L 10935.9,5794.47 L 10913.8,5801.2 L 10890.7,5803.46 L 10867.7,5801.2 L 10845.5,5794.47 L 10825.1,5783.56 L 10807.2,5768.87 L 10792.5,5750.97 L 10781.6,5730.55 L 10774.9,5708.4 L 10772.6,5685.35 z " style="fill-opacity:1.000000;fill:rgb(2,216,229);stroke:rgb(0,0,0);stroke-width:2"/></g>
<g fill-rule="evenodd"><path d="M 10772.6,1865.35 L 10774.9,1842.31 L 10781.6,1820.16 L 10792.5,1799.74 L 10807.2,1781.84 L 10825.1,1767.15 L 10845.5,1756.23 L 10867.7,1749.51 L 10890.7,1747.24 L 10913.8,1749.51 L 10935.9,1756.23 L 10956.3,1767.15 L 10974.2,1781.84 L 10988.9,1799.74 L 10999.8,1820.16 L 11006.5,1842.31 L 11008.8,1865.35 L 11006.5,1888.4 L 10999.8,1910.55 L 10988.9,1930.97 L 10974.2,1948.87 L 10956.3,1963.56 L 10935.9,1974.47 L 10913.8,1981.2 L 10890.7,1983.46 L 10867.7,1981.2 L 10845.5,1974.47 L 10825.1,1963.56 L 10807.2,1948.87 L 10792.5,1930.97 L 10781.6,1910.55 L 10774.9,1888.4 L 10772.6,1865.35 z " style="fill-opacity:1.000000;fill:rgb(10,248,157);stroke:rgb(0,0,0);stroke-width:2"/></g>
<g fill-rule="evenodd"><path d="M 10891.7,1478.27 L 10891.7,1320.79 L 11253.9,1320.79 L 11253.9,1478.27 L 10891.7,1478.27 z " style="fill-opacity:1.000000;fill:rgb(119,9,209);stroke:rgb(0,0,0);stroke-width:2"/></g>
<g fill-rule="evenodd"><path d="M 10907.4,903.465 L 10908.9,888.103 L 10913.4,873.332 L 10920.7,859.719 L 10930.5,847.787 L 10942.4,837.995 L 10956,830.718 L 10970.8,826.237 L 10986.1,824.724 L 11159.4,824.724 L 11174.7,826.237 L 11189.5,830.718 L 11203.1,837.995 L 11215,847.787 L 11224.8,859.719 L 11232.1,873.332 L 11236.6,888.103 L 11238.1,903.465 L 11236.6,918.826 L 11232.1,933.597 L 11224.8,947.21 L 11215,959.142 L 11203.1,968.935 L 11189.5,976.211 L 11174.7,980.692 L 11159.4,982.205 L 10986.1,982.205 L 10970.8,980.692 L 10956,976.211 L 10942.4,968.935 L 10930.5,959.142 L 10920.7,947.21 L 10913.4,933.597 L 10908.9,918.826 L 10907.4,903.465 z " style="fill-opacity:1.000000;fill:rgb(165,150,193);stroke:rgb(0,0,0);stroke-width:2"/></g>
<g fill-rule="evenodd"><path d="M 11176.8,5336.06 L 11179.1,5313.02 L 11185.8,5290.86 L 11196.7,5270.44 L 11211.4,5252.55 L 11229.3,5237.86 L 11249.7,5226.94 L 11271.9,5220.22 L 11294.9,5217.95 L 11317.9,5220.22 L 11340.1,5226.94 L 11360.5,5237.86 L 11378.4,5252.55 L 11393.1,5270.44 L 11404,5290.86 L 11410.7,5313.02 L 11413,5336.06 L 11410.7,5359.11 L 11404,5381.26 L 11393.1,5401.68 L 11378.4,5419.58 L 11360.5,5434.27 L 11340.1,5445.18 L 11317.9,5451.9 L 11294.9,5454.17 L 11271.9,5451.9 L 11249.7,5445.18 L 11229.3,5434.27 L 11211.4,5419.58 L 11196.7,5401.68 L 11185.8,5381.26 L 11179.1,5359.11 L 11176.8,5336.06 z " style="fill-opacity:1.000000;fill:rgb(244,31,149);stroke:rgb(0,0,0);stroke-width:2"/></g>
<g fill-rule="evenodd"><path d="M 11176.8,2186.46 L 11179.1,2163.41 L 11185.8,2141.26 L 11196.7,2120.84 L 11211.4,2102.94 L 11229.3,2088.25 L 11249.7,2077.34 L 11271.9,2070.62 L 11294.9,2068.35 L 11317.9,2070.62 L 11340.1,2077.34 L 11360.5,2088.25 L 11378.4,2102.94 L 11393.1,2120.84 L 11404,2141.26 L 11410.7,2163.41 L 11413,2186.46 L 11410.7,2209.5 L 11404,2231.66 L 11393.1,2252.08 L 11378.4,2269.97 L 11360.5,2284.66 L 11340.1,2295.58 L 11317.9,2302.3 L 11294.9,2304.57 L 11271.9,2302.3 L 11249.7,2295.58 L 11229.3,2284.66 L 11211.4,2269.97 L 11196.7,2252.08 L 11185.8,2231.66 L 11179.1,2209.5 L 11176.8,2186.46 z " style="fill-opacity:1.000000;fill:rgb(170,130,202);stroke:rgb(0,0,0);stroke-width:2"/></g>
</svg>
