<?xml version="1.0" standalone="no"?>
<!DOCTYPE svg PUBLIC "-//W3C//DTD SVG 1.1//EN"
"http://www.w3.org/Graphics/SVG/1.1/DTD/svg11.dtd">
<svg width="575.244" height="299.339" viewBox="0 0 11984.3 6236.22" version="1.1"
xmlns="http://www.w3.org/2000/svg"
xmlns:xlink="http://www.w3.org/1999/xlink">
<polyline points="47.2442,6149.61 48.0022,6157.29 50.2422,6164.67 53.8802,6171.48 58.7762,6177.44 64.7422,6182.34 71.5482,6185.98 78.9342,6188.22 86.6142,6188.98 11897.6,6188.98 11905.3,6188.22 11912.7,6185.98 11919.5,6182.34 11925.5,6177.44 11930.4,6171.48 11934,6164.67 11936.2,6157.29 11937,6149.61 11937,86.6143 11936.2,78.9343 11934,71.5483 11930.4,64.7423 11925.5,58.7763 11919.5,53.8803 11912.7,50.2423 11905.3,48.0023 11897.6,47.2443 86.6142,47.2443 78.9342,48.0023 71.5482,50.2423 64.7422,53.8803 58.7762,58.7763 53.8802,64.7423 50.2422,71.5483 48.0022,78.9343 47.2442,86.6143 47.2442,6149.61" style="stroke:rgb(103,198,105);stroke-width:78.740157;fill:none;stroke-opacity:0.5;stroke-linecap:round;stroke-linejoin:round;;fill:none"/>
<polyline points="47.2442,6149.61 48.0022,6157.29 50.2422,6164.67 53.8802,6171.48 58.7762,6177.44 64.7422,6182.34 71.5482,6185.98 78.9342,6188.22 86.6142,6188.98 11897.6,6188.98 11905.3,6188.22 11912.7,6185.98 11919.5,6182.34 11925.5,6177.44 11930.4,6171.48 11934,6164.67 11936.2,6157.29 11937,6149.61 11937,86.6143 11936.2,78.9343 11934,71.5483 11930.4,64.7423 11925.5,58.7763 11919.5,53.8803 11912.7,50.2423 11905.3,48.0023 11897.6,47.2443 86.6142,47.2443 78.9342,48.0023 71.5482,50.2423 64.7422,53.8803 58.7762,58.7763 53.8802,64.7423 50.2422,71.5483 48.0022,78.9343 47.2442,86.6143 47.2442,6149.61" style="stroke:rgb(0,0,0);stroke-width:1px;fill:none;stroke-opacity:1;stroke-linecap:round;stroke-linejoin:round;;fill:none"/>
</svg>
